<svg width="841" height="594" viewBox="0 0 841 594" fill="none" xmlns="http://www.w3.org/2000/svg">
<g clip-path="url(#clip0_4607_205366)">
<rect width="841" height="594" fill="none"/>
<rect x="20.25" y="5.25" width="815.5" height="583.5" stroke="black" stroke-width="0.5"/>
<rect x="0.25" y="0.25" width="840.5" height="593.5" stroke="black" stroke-width="0.5"/>
<g clip-path="url(#clip1_4607_205366)">
<rect x="648" y="532" width="67.5" height="57" fill="black"/>
<rect width="7" height="5" transform="translate(648 532)" fill="white"/>
<rect width="10" height="5" transform="translate(655.5 532)" fill="white"/>
<rect width="11" height="5" transform="translate(666 532)" fill="white"/>
<rect width="12" height="5" transform="translate(677.5 532)" fill="white"/>
<rect width="15" height="5" transform="translate(690 532)" fill="white"/>
<rect width="10" height="5" transform="translate(705.5 532)" fill="white"/>
<rect width="7" height="5" transform="translate(648 537.2)" fill="white"/>
<rect width="10" height="5" transform="translate(655.5 537.2)" fill="white"/>
<rect width="11" height="5" transform="translate(666 537.2)" fill="white"/>
<rect width="12" height="5" transform="translate(677.5 537.2)" fill="white"/>
<rect width="15" height="5" transform="translate(690 537.2)" fill="white"/>
<rect width="10" height="5" transform="translate(705.5 537.2)" fill="white"/>
<rect width="7" height="5" transform="translate(648 542.4)" fill="white"/>
<rect width="10" height="5" transform="translate(655.5 542.4)" fill="white"/>
<rect width="11" height="5" transform="translate(666 542.4)" fill="white"/>
<rect width="12" height="5" transform="translate(677.5 542.4)" fill="white"/>
<rect width="15" height="5" transform="translate(690 542.4)" fill="white"/>
<rect width="10" height="5" transform="translate(705.5 542.4)" fill="white"/>
<rect width="7" height="5" transform="translate(648 547.6)" fill="white"/>
<rect width="10" height="5" transform="translate(655.5 547.6)" fill="white"/>
<rect width="11" height="5" transform="translate(666 547.6)" fill="white"/>
<rect width="12" height="5" transform="translate(677.5 547.6)" fill="white"/>
<rect width="15" height="5" transform="translate(690 547.6)" fill="white"/>
<rect width="10" height="5" transform="translate(705.5 547.6)" fill="white"/>
<rect width="7" height="5" transform="translate(648 552.8)" fill="white"/>
<path d="M650.374 555.695C650.368 555.723 650.354 555.746 650.331 555.763C650.311 555.778 650.287 555.786 650.26 555.786C650.248 555.786 650.229 555.779 650.201 555.764C650.186 555.749 650.182 555.725 650.191 555.693L650.665 553.799L649.283 555.732C649.251 555.776 649.216 555.798 649.178 555.798C649.156 555.798 649.137 555.789 649.123 555.77C649.117 555.759 649.114 555.746 649.114 555.73C649.114 555.719 649.116 555.706 649.119 555.693L649.7 553.374C649.704 553.355 649.717 553.336 649.74 553.316C649.763 553.294 649.788 553.283 649.813 553.283C649.835 553.283 649.854 553.292 649.87 553.308C649.886 553.324 649.891 553.346 649.882 553.376L649.408 555.271L650.789 553.337C650.821 553.293 650.856 553.271 650.895 553.271C650.914 553.271 650.931 553.281 650.946 553.3C650.955 553.314 650.959 553.33 650.959 553.348C650.959 553.357 650.957 553.367 650.955 553.378L650.374 555.695ZM651.689 554.911C651.751 554.98 651.768 555.068 651.741 555.176L651.675 555.444C651.65 555.541 651.591 555.626 651.497 555.698C651.465 555.722 651.418 555.748 651.358 555.775C651.296 555.794 651.246 555.804 651.206 555.804H650.939C650.867 555.804 650.805 555.782 650.754 555.739C650.704 555.697 650.672 555.635 650.657 555.554L650.663 555.522C650.669 555.499 650.682 555.479 650.704 555.461C650.726 555.442 650.751 555.433 650.779 555.433C650.82 555.433 650.843 555.453 650.846 555.493C650.849 555.523 650.862 555.554 650.887 555.586C650.912 555.608 650.944 555.618 650.984 555.618H651.251C651.3 555.618 651.349 555.601 651.399 555.567C651.448 555.531 651.478 555.49 651.49 555.444L651.556 555.176C651.566 555.131 651.556 555.091 651.525 555.055C651.496 555.019 651.456 555.002 651.406 555.002H651.228C651.199 555.002 651.178 554.993 651.165 554.975C651.155 554.956 651.153 554.933 651.16 554.907C651.161 554.894 651.173 554.876 651.194 554.852C651.215 554.828 651.241 554.816 651.272 554.816H651.451C651.499 554.816 651.549 554.799 651.598 554.765C651.647 554.729 651.677 554.688 651.689 554.642L651.757 554.374C651.768 554.329 651.758 554.289 651.727 554.253C651.697 554.217 651.657 554.2 651.607 554.2H651.429C651.394 554.2 651.357 554.211 651.319 554.233C651.282 554.255 651.253 554.284 651.231 554.321C651.227 554.329 651.211 554.345 651.185 554.369L651.173 554.374L651.133 554.383C651.107 554.383 651.086 554.375 651.071 554.358C651.056 554.342 651.051 554.32 651.058 554.294L651.071 554.26C651.116 554.186 651.175 554.127 651.247 554.082C651.32 554.037 651.395 554.014 651.474 554.014H651.652C651.753 554.014 651.833 554.05 651.893 554.121C651.933 554.172 651.953 554.23 651.953 554.294C651.953 554.319 651.95 554.346 651.942 554.374L651.875 554.642C651.86 554.702 651.838 554.753 651.807 554.795C651.783 554.835 651.744 554.874 651.689 554.911ZM653.074 555.713C653.068 555.741 653.054 555.764 653.031 555.78C653.011 555.796 652.987 555.804 652.96 555.804C652.948 555.804 652.929 555.796 652.901 555.78C652.886 555.766 652.882 555.743 652.891 555.711L653.213 554.413L652.714 554.962C652.683 554.997 652.653 555.014 652.623 555.014C652.595 555.014 652.573 554.996 652.557 554.961L652.331 554.413L652.005 555.711C651.999 555.741 651.985 555.764 651.962 555.78C651.942 555.796 651.918 555.804 651.891 555.804C651.879 555.804 651.859 555.796 651.832 555.78C651.822 555.771 651.818 555.758 651.818 555.741C651.818 555.733 651.819 555.723 651.823 555.711L652.222 554.107C652.228 554.081 652.242 554.059 652.265 554.041C652.288 554.022 652.312 554.012 652.338 554.012C652.35 554.012 652.362 554.016 652.376 554.023C652.39 554.027 652.4 554.038 652.406 554.057L652.691 554.741L653.32 554.055C653.347 554.025 653.377 554.011 653.409 554.011C653.422 554.011 653.438 554.02 653.457 554.037C653.472 554.05 653.479 554.067 653.479 554.087C653.479 554.093 653.478 554.1 653.477 554.109L653.074 555.713ZM653.448 555.618C653.471 555.618 653.49 555.628 653.505 555.648C653.515 555.662 653.52 555.676 653.52 555.693C653.52 555.7 653.519 555.707 653.518 555.713C653.513 555.734 653.5 555.755 653.479 555.775C653.459 555.794 653.434 555.804 653.404 555.804C653.375 555.804 653.354 555.795 653.34 555.779C653.333 555.766 653.329 555.751 653.329 555.736C653.329 555.728 653.33 555.719 653.333 555.709C653.336 555.696 653.349 555.678 653.37 555.654C653.391 555.63 653.418 555.618 653.448 555.618Z" fill="black"/>
<rect width="10" height="5" transform="translate(655.5 552.8)" fill="white"/>
<rect width="11" height="5" transform="translate(666 552.8)" fill="white"/>
<path d="M669.461 555.713C669.455 555.741 669.442 555.764 669.42 555.78C669.4 555.796 669.376 555.804 669.349 555.804C669.337 555.804 669.318 555.796 669.29 555.78C669.275 555.765 669.271 555.742 669.278 555.711L669.834 553.487H669.463L668.205 555.739C668.179 555.783 668.144 555.805 668.102 555.805C668.075 555.805 668.055 555.797 668.041 555.78C668.03 555.769 668.025 555.755 668.025 555.739C668.025 555.731 668.026 555.722 668.029 555.713L668.041 555.682L669.335 553.365C669.36 553.323 669.395 553.301 669.44 553.301H669.973C670.023 553.301 670.048 553.321 670.048 553.36C670.048 553.372 670.046 553.384 670.042 553.396L669.461 555.713ZM670.875 555.711C670.86 555.773 670.822 555.804 670.761 555.804H670.137C670.036 555.804 669.959 555.769 669.907 555.698C669.871 555.652 669.854 555.598 669.854 555.536C669.854 555.507 669.858 555.476 669.866 555.444L670.203 554.107C670.206 554.087 670.219 554.066 670.242 554.046C670.266 554.025 670.29 554.014 670.315 554.014C670.338 554.014 670.357 554.023 670.372 554.039C670.389 554.055 670.393 554.077 670.385 554.107L670.051 555.444C670.039 555.492 670.046 555.534 670.071 555.568C670.096 555.602 670.133 555.618 670.181 555.618H670.713L671.094 554.107C671.098 554.087 671.111 554.066 671.133 554.046C671.157 554.025 671.181 554.014 671.206 554.014C671.229 554.014 671.248 554.022 671.263 554.037C671.275 554.049 671.281 554.064 671.281 554.082C671.281 554.089 671.28 554.098 671.278 554.109L670.875 555.711ZM672.08 555.804H671.456C671.355 555.804 671.278 555.769 671.226 555.698C671.19 555.652 671.172 555.598 671.172 555.536C671.172 555.507 671.177 555.476 671.185 555.444L671.454 554.374C671.475 554.284 671.529 554.201 671.616 554.126C671.704 554.052 671.799 554.014 671.901 554.014H672.525C672.548 554.014 672.566 554.023 672.58 554.041C672.592 554.058 672.598 554.074 672.598 554.091C672.598 554.097 672.598 554.103 672.596 554.109C672.59 554.13 672.577 554.151 672.555 554.171C672.535 554.19 672.51 554.2 672.481 554.2H671.857C671.808 554.2 671.762 554.217 671.72 554.251C671.678 554.285 671.651 554.325 671.638 554.374L671.37 555.444C671.358 555.492 671.365 555.534 671.39 555.568C671.415 555.602 671.452 555.618 671.5 555.618H672.124C672.147 555.618 672.165 555.628 672.179 555.648C672.195 555.669 672.2 555.689 672.194 555.711C672.189 555.733 672.176 555.755 672.154 555.775C672.134 555.794 672.109 555.804 672.08 555.804ZM673.514 554.2H672.988L672.609 555.711C672.603 555.741 672.589 555.764 672.566 555.78C672.546 555.796 672.522 555.804 672.495 555.804C672.483 555.804 672.463 555.796 672.436 555.78C672.425 555.771 672.42 555.758 672.42 555.741C672.42 555.732 672.422 555.721 672.425 555.709L672.828 554.107C672.842 554.045 672.88 554.014 672.94 554.014H674.099C674.199 554.014 674.275 554.048 674.329 554.116C674.364 554.163 674.382 554.219 674.382 554.282C674.382 554.311 674.378 554.342 674.37 554.374L674.035 555.711C674.029 555.741 674.014 555.764 673.992 555.78C673.972 555.796 673.948 555.804 673.921 555.804C673.909 555.804 673.889 555.796 673.862 555.78C673.846 555.766 673.843 555.743 673.851 555.711L674.186 554.374C674.197 554.324 674.19 554.283 674.165 554.249C674.14 554.216 674.103 554.2 674.054 554.2H673.701L673.322 555.711C673.316 555.741 673.302 555.764 673.279 555.78C673.259 555.796 673.235 555.804 673.208 555.804C673.196 555.804 673.176 555.796 673.149 555.78C673.133 555.766 673.13 555.743 673.138 555.711L673.514 554.2Z" fill="black"/>
<rect width="12" height="5" transform="translate(677.5 552.8)" fill="white"/>
<path d="M682.104 554.196C682.077 554.31 682.018 554.4 681.927 554.465C681.845 554.526 681.756 554.556 681.658 554.556C681.561 554.556 681.485 554.527 681.432 554.469C681.374 554.401 681.359 554.31 681.389 554.196L681.523 553.66C681.55 553.548 681.609 553.459 681.699 553.394C681.784 553.333 681.874 553.303 681.97 553.303C682.068 553.303 682.143 553.332 682.197 553.39C682.235 553.434 682.254 553.489 682.254 553.554C682.254 553.586 682.248 553.622 682.238 553.66L682.104 554.196ZM680.838 555.713C680.834 555.728 680.818 555.75 680.792 555.779C680.77 555.795 680.746 555.804 680.723 555.804L680.678 555.793L680.651 555.75L680.243 553.815L679.767 555.711C679.761 555.741 679.747 555.764 679.725 555.78C679.704 555.796 679.681 555.804 679.653 555.804C679.641 555.804 679.622 555.796 679.594 555.78C679.584 555.771 679.578 555.758 679.578 555.741C679.578 555.732 679.58 555.721 679.584 555.709L680.165 553.392C680.168 553.373 680.181 553.354 680.204 553.333C680.228 553.312 680.252 553.301 680.277 553.301C680.291 553.301 680.306 553.305 680.32 553.314C680.334 553.321 680.344 553.335 680.348 553.357L680.756 555.29L681.234 553.394C681.238 553.374 681.251 553.354 681.273 553.333C681.297 553.312 681.321 553.301 681.346 553.301C681.369 553.301 681.388 553.31 681.403 553.326C681.42 553.342 681.424 553.365 681.416 553.396L680.838 555.713ZM681.922 554.196L682.056 553.66C682.068 553.607 682.06 553.566 682.034 553.535C682.008 553.503 681.972 553.487 681.926 553.487C681.876 553.487 681.831 553.502 681.792 553.533C681.749 553.56 681.72 553.603 681.705 553.66L681.571 554.196C681.559 554.251 681.566 554.294 681.592 554.326C681.618 554.356 681.655 554.371 681.703 554.371C681.737 554.371 681.781 554.357 681.833 554.33C681.877 554.296 681.907 554.252 681.922 554.196ZM684.071 554.2H683.544C683.495 554.2 683.449 554.217 683.405 554.251C683.362 554.286 683.334 554.327 683.321 554.374L683.054 555.444C683.043 555.493 683.05 555.535 683.075 555.568C683.1 555.602 683.138 555.618 683.187 555.618H683.54C683.589 555.618 683.635 555.601 683.678 555.567C683.72 555.532 683.748 555.491 683.761 555.444L684.071 554.2ZM684.118 554.014L684.209 553.66C684.219 553.611 684.212 553.57 684.187 553.537C684.162 553.503 684.125 553.487 684.075 553.487H683.453C683.424 553.487 683.403 553.478 683.389 553.46C683.378 553.441 683.376 553.419 683.383 553.394C683.387 553.38 683.399 553.361 683.419 553.337C683.441 553.313 683.467 553.301 683.498 553.301H684.12C684.219 553.301 684.295 553.337 684.348 553.408C684.384 553.457 684.403 553.512 684.403 553.574C684.403 553.601 684.399 553.63 684.392 553.66L683.945 555.444C683.921 555.542 683.866 555.627 683.779 555.698C683.694 555.769 683.599 555.804 683.496 555.804H683.143C683.043 555.804 682.966 555.768 682.913 555.697C682.876 555.648 682.858 555.593 682.858 555.533C682.858 555.504 682.862 555.474 682.87 555.444L683.139 554.372C683.163 554.273 683.218 554.188 683.305 554.119C683.392 554.049 683.486 554.014 683.588 554.014H684.118ZM685.292 555.445C685.268 555.545 685.213 555.63 685.126 555.7C685.04 555.769 684.946 555.804 684.845 555.804H684.488C684.387 555.804 684.311 555.769 684.259 555.698C684.223 555.652 684.205 555.598 684.205 555.536C684.205 555.507 684.209 555.476 684.218 555.444L684.487 554.374C684.508 554.284 684.562 554.201 684.649 554.126C684.737 554.052 684.832 554.014 684.934 554.014H685.29C685.39 554.014 685.467 554.048 685.52 554.116C685.556 554.163 685.574 554.219 685.574 554.282C685.574 554.311 685.57 554.342 685.561 554.374L685.292 555.445ZM685.109 555.444L685.378 554.374C685.388 554.324 685.381 554.283 685.356 554.249C685.331 554.216 685.295 554.2 685.246 554.2H684.889C684.841 554.2 684.795 554.217 684.752 554.251C684.711 554.285 684.683 554.325 684.67 554.374L684.403 555.444C684.391 555.492 684.398 555.534 684.423 555.568C684.447 555.602 684.484 555.618 684.533 555.618H684.889C684.938 555.618 684.984 555.602 685.027 555.568C685.069 555.534 685.097 555.492 685.109 555.444ZM686.228 554.781L686.567 555.661L686.568 555.713C686.564 555.735 686.549 555.757 686.524 555.777C686.499 555.795 686.474 555.804 686.451 555.804C686.435 555.804 686.422 555.801 686.411 555.795C686.402 555.788 686.394 555.776 686.387 555.761L686.066 554.921L685.823 555.133L685.677 555.711C685.671 555.741 685.657 555.764 685.634 555.78C685.614 555.796 685.59 555.804 685.563 555.804C685.551 555.804 685.532 555.796 685.504 555.78C685.494 555.771 685.488 555.758 685.488 555.741C685.488 555.732 685.49 555.721 685.494 555.709L685.896 554.105C685.9 554.086 685.913 554.066 685.936 554.046C685.959 554.025 685.984 554.014 686.009 554.014C686.031 554.014 686.05 554.023 686.066 554.039C686.082 554.055 686.087 554.077 686.078 554.107L685.891 554.854L686.825 554.052C686.851 554.029 686.877 554.018 686.902 554.018C686.924 554.018 686.944 554.027 686.96 554.046C686.97 554.062 686.975 554.077 686.975 554.093C686.975 554.1 686.974 554.107 686.973 554.116C686.967 554.138 686.953 554.159 686.93 554.176L686.228 554.781ZM686.928 555.618C686.951 555.618 686.97 555.628 686.985 555.648C686.995 555.662 687 555.676 687 555.693C687 555.7 686.999 555.707 686.998 555.713C686.993 555.734 686.98 555.755 686.959 555.775C686.938 555.794 686.913 555.804 686.884 555.804C686.855 555.804 686.834 555.795 686.82 555.779C686.812 555.766 686.809 555.751 686.809 555.736C686.809 555.728 686.81 555.719 686.812 555.709C686.816 555.696 686.829 555.678 686.85 555.654C686.871 555.63 686.897 555.618 686.928 555.618Z" fill="black"/>
<rect width="15" height="5" transform="translate(690 552.8)" fill="white"/>
<path d="M693.821 555.713C693.815 555.741 693.8 555.764 693.778 555.78C693.758 555.796 693.734 555.804 693.707 555.804C693.695 555.804 693.675 555.796 693.648 555.78C693.632 555.766 693.629 555.743 693.637 555.711L694.191 553.487H693.307L692.75 555.711C692.744 555.741 692.729 555.764 692.707 555.78C692.687 555.796 692.663 555.804 692.635 555.804C692.624 555.804 692.604 555.796 692.577 555.78C692.566 555.771 692.561 555.758 692.561 555.741C692.561 555.732 692.562 555.721 692.566 555.709L693.147 553.394C693.161 553.332 693.199 553.301 693.259 553.301H694.33C694.38 553.301 694.405 553.322 694.405 553.364C694.405 553.373 694.404 553.384 694.402 553.396L693.821 555.713ZM695.209 555.445C695.185 555.545 695.13 555.63 695.043 555.7C694.957 555.769 694.863 555.804 694.762 555.804H694.405C694.304 555.804 694.228 555.769 694.175 555.698C694.14 555.652 694.122 555.598 694.122 555.536C694.122 555.507 694.126 555.476 694.134 555.444L694.403 554.374C694.425 554.284 694.479 554.201 694.566 554.126C694.654 554.052 694.749 554.014 694.851 554.014H695.207C695.307 554.014 695.384 554.048 695.437 554.116C695.473 554.163 695.491 554.219 695.491 554.282C695.491 554.311 695.486 554.342 695.478 554.374L695.209 555.445ZM695.025 555.444L695.295 554.374C695.305 554.324 695.298 554.283 695.273 554.249C695.248 554.216 695.211 554.2 695.163 554.2H694.806C694.757 554.2 694.712 554.217 694.669 554.251C694.627 554.285 694.6 554.325 694.587 554.374L694.32 555.444C694.308 555.492 694.314 555.534 694.339 555.568C694.364 555.602 694.401 555.618 694.45 555.618H694.806C694.855 555.618 694.901 555.602 694.943 555.568C694.986 555.534 695.014 555.492 695.025 555.444ZM696.619 554.2H696.091C696.042 554.2 695.996 554.217 695.952 554.251C695.909 554.286 695.881 554.327 695.868 554.374L695.601 555.444C695.59 555.493 695.598 555.535 695.622 555.568C695.647 555.602 695.685 555.618 695.735 555.618H696.088C696.136 555.618 696.182 555.601 696.225 555.567C696.268 555.532 696.296 555.491 696.309 555.444L696.619 554.2ZM696.665 554.014L696.756 553.66C696.767 553.611 696.76 553.57 696.735 553.537C696.71 553.503 696.672 553.487 696.622 553.487H696C695.972 553.487 695.95 553.478 695.936 553.46C695.925 553.441 695.924 553.419 695.931 553.394C695.934 553.38 695.946 553.361 695.966 553.337C695.988 553.313 696.014 553.301 696.045 553.301H696.667C696.767 553.301 696.843 553.337 696.895 553.408C696.932 553.457 696.95 553.512 696.95 553.574C696.95 553.601 696.947 553.63 696.94 553.66L696.492 555.444C696.468 555.542 696.413 555.627 696.326 555.698C696.241 555.769 696.146 555.804 696.043 555.804H695.69C695.59 555.804 695.514 555.768 695.46 555.697C695.423 555.648 695.405 555.593 695.405 555.533C695.405 555.504 695.409 555.474 695.418 555.444L695.687 554.372C695.71 554.273 695.766 554.188 695.852 554.119C695.939 554.049 696.034 554.014 696.136 554.014H696.665ZM697.779 555.711C697.773 555.741 697.759 555.764 697.736 555.78C697.716 555.796 697.692 555.804 697.665 555.804C697.653 555.804 697.633 555.796 697.606 555.78C697.591 555.766 697.587 555.743 697.595 555.711L697.93 554.374C697.941 554.324 697.934 554.283 697.909 554.249C697.884 554.216 697.847 554.2 697.799 554.2H697.267L696.888 555.711C696.882 555.741 696.868 555.764 696.845 555.78C696.825 555.796 696.801 555.804 696.774 555.804C696.762 555.804 696.742 555.796 696.715 555.78C696.705 555.771 696.701 555.758 696.701 555.741C696.701 555.733 696.702 555.723 696.706 555.713L697.107 554.107C697.121 554.045 697.159 554.014 697.219 554.014H697.843C697.943 554.014 698.02 554.048 698.073 554.116C698.109 554.163 698.126 554.219 698.126 554.282C698.126 554.311 698.122 554.342 698.114 554.374L697.779 555.711ZM699.114 555.711C699.1 555.773 699.062 555.804 699 555.804H698.376C698.275 555.804 698.198 555.769 698.146 555.698C698.11 555.652 698.093 555.598 698.093 555.536C698.093 555.507 698.097 555.476 698.105 555.444L698.442 554.107C698.446 554.087 698.459 554.066 698.481 554.046C698.505 554.025 698.529 554.014 698.554 554.014C698.577 554.014 698.596 554.023 698.611 554.039C698.628 554.055 698.632 554.077 698.624 554.107L698.29 555.444C698.279 555.492 698.285 555.534 698.31 555.568C698.335 555.602 698.372 555.618 698.421 555.618H698.952L699.333 554.107C699.337 554.087 699.35 554.066 699.372 554.046C699.396 554.025 699.42 554.014 699.445 554.014C699.468 554.014 699.487 554.022 699.502 554.037C699.514 554.049 699.52 554.064 699.52 554.082C699.52 554.089 699.519 554.098 699.517 554.109L699.114 555.711ZM700.319 555.804H699.695C699.594 555.804 699.517 555.769 699.465 555.698C699.429 555.652 699.411 555.598 699.411 555.536C699.411 555.507 699.416 555.476 699.424 555.444L699.693 554.374C699.714 554.284 699.769 554.201 699.855 554.126C699.943 554.052 700.038 554.014 700.14 554.014H700.764C700.787 554.014 700.805 554.023 700.819 554.041C700.831 554.058 700.837 554.074 700.837 554.091C700.837 554.097 700.837 554.103 700.835 554.109C700.83 554.13 700.816 554.151 700.794 554.171C700.774 554.19 700.749 554.2 700.72 554.2H700.096C700.047 554.2 700.001 554.217 699.959 554.251C699.917 554.285 699.89 554.325 699.877 554.374L699.609 555.444C699.597 555.492 699.604 555.534 699.629 555.568C699.654 555.602 699.691 555.618 699.739 555.618H700.363C700.386 555.618 700.404 555.628 700.418 555.648C700.434 555.669 700.439 555.689 700.433 555.711C700.428 555.733 700.415 555.755 700.393 555.775C700.373 555.794 700.348 555.804 700.319 555.804ZM701.039 555.002L700.882 555.618H701.413C701.462 555.618 701.507 555.602 701.55 555.568C701.593 555.534 701.621 555.492 701.634 555.444L701.702 555.176C701.712 555.126 701.705 555.085 701.68 555.051C701.655 555.018 701.618 555.002 701.57 555.002H701.039ZM701.085 554.816H701.614C701.714 554.816 701.791 554.85 701.844 554.918C701.88 554.965 701.898 555.021 701.898 555.084C701.898 555.113 701.894 555.144 701.885 555.176L701.816 555.444C701.792 555.545 701.737 555.63 701.65 555.7C701.563 555.769 701.469 555.804 701.368 555.804H700.745C700.695 555.804 700.67 555.784 700.67 555.745C700.67 555.733 700.672 555.721 700.675 555.709L701.078 554.105C701.081 554.086 701.094 554.066 701.117 554.046C701.141 554.025 701.165 554.014 701.19 554.014C701.213 554.014 701.232 554.023 701.247 554.039C701.264 554.055 701.268 554.078 701.26 554.109L701.085 554.816Z" fill="black"/>
<rect width="10" height="5" transform="translate(705.5 552.8)" fill="white"/>
<path d="M708.328 555.618C708.391 555.618 708.414 555.649 708.397 555.711L708.354 555.886C708.35 555.908 708.335 555.929 708.31 555.95C708.286 555.97 708.263 555.98 708.24 555.98C708.218 555.98 708.198 555.972 708.182 555.955C708.166 555.938 708.163 555.915 708.171 555.884L708.189 555.804H707.127L707.107 555.886C707.102 555.908 707.087 555.929 707.062 555.95C707.039 555.97 707.015 555.98 706.993 555.98C706.971 555.98 706.952 555.972 706.936 555.955C706.925 555.942 706.92 555.928 706.92 555.912C706.92 555.903 706.921 555.894 706.923 555.886L706.968 555.711C706.982 555.649 707.02 555.618 707.08 555.618H707.171L707.904 553.383C707.91 553.358 707.923 553.338 707.945 553.323L707.97 553.308L708.018 553.3H708.732C708.782 553.3 708.807 553.319 708.807 553.358C708.807 553.37 708.805 553.382 708.802 553.394L708.248 555.618H708.328ZM707.36 555.618H708.059L708.593 553.485H708.059L707.36 555.618ZM709.572 555.444L709.882 554.2H709.353C709.304 554.2 709.258 554.217 709.215 554.251C709.174 554.285 709.146 554.325 709.133 554.374L708.866 555.444C708.854 555.492 708.861 555.534 708.886 555.568C708.911 555.602 708.947 555.618 708.996 555.618H709.353C709.401 555.618 709.447 555.602 709.49 555.568C709.533 555.534 709.56 555.492 709.572 555.444ZM709.828 555.625C709.871 555.641 709.887 555.669 709.877 555.711C709.869 555.739 709.855 555.763 709.834 555.78C709.814 555.799 709.79 555.809 709.762 555.809L709.732 555.802C709.707 555.795 709.682 555.779 709.657 555.754C709.648 555.747 709.63 555.725 709.604 555.688C709.516 555.765 709.417 555.804 709.308 555.804H708.952C708.851 555.804 708.774 555.769 708.722 555.698C708.686 555.652 708.668 555.598 708.668 555.536C708.668 555.507 708.672 555.476 708.681 555.444L708.95 554.374C708.971 554.284 709.025 554.201 709.112 554.126C709.2 554.052 709.295 554.014 709.397 554.014H710.021C710.071 554.014 710.096 554.035 710.096 554.077C710.096 554.086 710.095 554.097 710.092 554.109L709.757 555.444C709.75 555.479 709.751 555.516 709.761 555.554C709.773 555.58 709.795 555.604 709.828 555.625ZM711.081 554.2H710.556L710.176 555.711C710.17 555.741 710.156 555.764 710.133 555.78C710.113 555.796 710.089 555.804 710.062 555.804C710.05 555.804 710.03 555.796 710.003 555.78C709.992 555.771 709.987 555.758 709.987 555.741C709.987 555.732 709.989 555.721 709.992 555.709L710.395 554.107C710.409 554.045 710.447 554.014 710.507 554.014H711.666C711.766 554.014 711.842 554.048 711.896 554.116C711.931 554.163 711.949 554.219 711.949 554.282C711.949 554.311 711.945 554.342 711.937 554.374L711.602 555.711C711.596 555.741 711.582 555.764 711.559 555.78C711.539 555.796 711.515 555.804 711.488 555.804C711.476 555.804 711.456 555.796 711.429 555.78C711.413 555.766 711.41 555.743 711.418 555.711L711.753 554.374C711.764 554.324 711.757 554.283 711.732 554.249C711.707 554.216 711.67 554.2 711.621 554.2H711.268L710.889 555.711C710.883 555.741 710.869 555.764 710.846 555.78C710.826 555.796 710.802 555.804 710.775 555.804C710.763 555.804 710.743 555.796 710.716 555.78C710.7 555.766 710.697 555.743 710.705 555.711L711.081 554.2ZM712.79 555.444L713.101 554.2H712.571C712.523 554.2 712.477 554.217 712.434 554.251C712.392 554.285 712.365 554.325 712.352 554.374L712.085 555.444C712.073 555.492 712.079 555.534 712.104 555.568C712.129 555.602 712.166 555.618 712.215 555.618H712.571C712.62 555.618 712.666 555.602 712.708 555.568C712.751 555.534 712.779 555.492 712.79 555.444ZM713.047 555.625C713.09 555.641 713.106 555.669 713.095 555.711C713.088 555.739 713.074 555.763 713.052 555.78C713.032 555.799 713.008 555.809 712.981 555.809L712.951 555.802C712.926 555.795 712.901 555.779 712.876 555.754C712.866 555.747 712.849 555.725 712.823 555.688C712.735 555.765 712.636 555.804 712.527 555.804H712.17C712.069 555.804 711.993 555.769 711.94 555.698C711.905 555.652 711.887 555.598 711.887 555.536C711.887 555.507 711.891 555.476 711.899 555.444L712.168 554.374C712.19 554.284 712.244 554.201 712.331 554.126C712.419 554.052 712.514 554.014 712.616 554.014H713.24C713.289 554.014 713.314 554.035 713.314 554.077C713.314 554.086 713.313 554.097 713.311 554.109L712.976 555.444C712.969 555.479 712.97 555.516 712.979 555.554C712.991 555.58 713.014 555.604 713.047 555.625Z" fill="black"/>
<rect width="17.5" height="5" transform="translate(648 558)" fill="white"/>
<rect width="23.5" height="5" transform="translate(666 558)" fill="white"/>
<rect width="15" height="5" transform="translate(690 558)" fill="white"/>
<rect width="10" height="5" transform="translate(705.5 558)" fill="white"/>
<path d="" fill="black"/>
<rect width="17.5" height="5" transform="translate(648 563.2)" fill="white"/>
<path d="M650.292 564.947H650.821C650.917 564.947 651.009 564.914 651.096 564.847C651.184 564.78 651.241 564.696 651.267 564.596L651.356 564.24C651.378 564.142 651.364 564.059 651.311 563.99C651.26 563.921 651.186 563.887 651.088 563.887H650.557L650.292 564.947ZM650.245 565.132L650 566.111C649.994 566.141 649.979 566.164 649.957 566.18C649.937 566.196 649.913 566.204 649.885 566.204C649.874 566.204 649.854 566.196 649.827 566.18C649.816 566.171 649.811 566.158 649.811 566.141C649.811 566.132 649.812 566.121 649.816 566.109L650.397 563.794C650.411 563.732 650.449 563.701 650.509 563.701H651.133C651.28 563.701 651.394 563.754 651.475 563.858C651.53 563.929 651.557 564.012 651.557 564.106C651.557 564.147 651.551 564.193 651.538 564.241L651.448 564.596C651.413 564.743 651.329 564.87 651.197 564.976C651.066 565.08 650.926 565.132 650.777 565.132H650.245ZM652.229 565.844L652.539 564.6H652.01C651.961 564.6 651.915 564.617 651.873 564.651C651.831 564.685 651.804 564.726 651.791 564.774L651.523 565.844C651.511 565.892 651.518 565.934 651.543 565.968C651.568 566.002 651.605 566.018 651.653 566.018H652.01C652.059 566.018 652.104 566.002 652.147 565.968C652.19 565.934 652.217 565.892 652.229 565.844ZM652.486 566.025C652.528 566.041 652.545 566.069 652.534 566.111C652.527 566.139 652.512 566.163 652.491 566.18C652.471 566.199 652.447 566.209 652.42 566.209L652.389 566.202C652.365 566.195 652.34 566.179 652.315 566.154C652.305 566.147 652.287 566.125 652.261 566.088C652.173 566.165 652.075 566.204 651.965 566.204H651.609C651.508 566.204 651.431 566.169 651.379 566.098C651.343 566.052 651.325 565.998 651.325 565.936C651.325 565.907 651.33 565.876 651.338 565.844L651.607 564.774C651.628 564.684 651.683 564.601 651.769 564.527C651.857 564.452 651.952 564.414 652.054 564.414H652.678C652.728 564.414 652.753 564.435 652.753 564.477C652.753 564.486 652.752 564.497 652.749 564.509L652.414 565.844C652.407 565.879 652.408 565.916 652.418 565.954C652.43 565.98 652.452 566.004 652.486 566.025ZM653.669 565.311C653.731 565.38 653.748 565.468 653.721 565.576L653.655 565.844C653.63 565.941 653.57 566.026 653.477 566.098C653.445 566.122 653.398 566.148 653.338 566.175C653.276 566.194 653.225 566.204 653.186 566.204H652.919C652.846 566.204 652.785 566.182 652.733 566.139C652.684 566.097 652.651 566.035 652.637 565.954L652.643 565.922C652.648 565.899 652.662 565.879 652.684 565.861C652.706 565.842 652.731 565.833 652.758 565.833C652.8 565.833 652.823 565.853 652.826 565.893C652.828 565.923 652.842 565.954 652.867 565.986C652.892 566.008 652.924 566.018 652.963 566.018H653.231C653.279 566.018 653.329 566.001 653.379 565.967C653.427 565.931 653.458 565.89 653.47 565.844L653.535 565.576C653.546 565.531 653.536 565.491 653.505 565.455C653.475 565.419 653.436 565.402 653.386 565.402H653.208C653.179 565.402 653.158 565.393 653.145 565.375C653.134 565.356 653.133 565.333 653.14 565.307C653.141 565.294 653.152 565.276 653.174 565.252C653.195 565.228 653.221 565.216 653.252 565.216H653.43C653.479 565.216 653.528 565.199 653.578 565.165C653.627 565.129 653.657 565.088 653.669 565.042L653.737 564.774C653.748 564.729 653.737 564.689 653.707 564.653C653.677 564.617 653.637 564.6 653.587 564.6H653.409C653.373 564.6 653.336 564.611 653.298 564.633C653.262 564.655 653.232 564.684 653.211 564.721C653.206 564.729 653.191 564.745 653.165 564.769L653.152 564.774L653.113 564.783C653.087 564.783 653.066 564.775 653.051 564.758C653.035 564.742 653.031 564.72 653.038 564.694L653.051 564.66C653.096 564.587 653.155 564.527 653.227 564.482C653.3 564.437 653.375 564.414 653.453 564.414H653.632C653.733 564.414 653.813 564.45 653.872 564.521C653.913 564.572 653.933 564.63 653.933 564.694C653.933 564.719 653.929 564.746 653.922 564.774L653.854 565.042C653.84 565.102 653.818 565.153 653.787 565.195C653.763 565.235 653.724 565.274 653.669 565.311ZM654.043 566.02H654.574C654.62 566.02 654.664 566.003 654.708 565.968C654.752 565.933 654.781 565.891 654.794 565.844L655.063 564.772C655.074 564.724 655.066 564.683 655.041 564.649C655.016 564.616 654.98 564.6 654.933 564.6H654.4L654.043 566.02ZM653.997 566.205L653.842 566.822C653.837 566.845 653.823 566.866 653.799 566.886C653.774 566.906 653.751 566.916 653.728 566.916C653.707 566.916 653.688 566.908 653.671 566.892C653.66 566.878 653.655 566.864 653.655 566.849C653.655 566.839 653.656 566.83 653.658 566.822L654.236 564.509C654.251 564.446 654.29 564.414 654.352 564.414H654.977C655.075 564.414 655.151 564.448 655.205 564.516C655.241 564.565 655.259 564.62 655.259 564.682C655.259 564.71 655.255 564.74 655.246 564.772L654.977 565.844C654.954 565.943 654.898 566.029 654.812 566.1C654.725 566.17 654.631 566.205 654.53 566.205H653.997ZM656.064 565.844L656.375 564.6H655.845C655.797 564.6 655.751 564.617 655.708 564.651C655.666 564.685 655.639 564.726 655.626 564.774L655.359 565.844C655.347 565.892 655.353 565.934 655.378 565.968C655.403 566.002 655.44 566.018 655.489 566.018H655.845C655.894 566.018 655.94 566.002 655.982 565.968C656.025 565.934 656.053 565.892 656.064 565.844ZM656.321 566.025C656.364 566.041 656.38 566.069 656.369 566.111C656.362 566.139 656.348 566.163 656.326 566.18C656.306 566.199 656.282 566.209 656.255 566.209L656.225 566.202C656.2 566.195 656.175 566.179 656.15 566.154C656.14 566.147 656.123 566.125 656.097 566.088C656.009 566.165 655.91 566.204 655.801 566.204H655.444C655.343 566.204 655.267 566.169 655.214 566.098C655.179 566.052 655.161 565.998 655.161 565.936C655.161 565.907 655.165 565.876 655.173 565.844L655.442 564.774C655.464 564.684 655.518 564.601 655.605 564.527C655.693 564.452 655.788 564.414 655.89 564.414H656.514C656.563 564.414 656.588 564.435 656.588 564.477C656.588 564.486 656.587 564.497 656.585 564.509L656.25 565.844C656.243 565.879 656.244 565.916 656.253 565.954C656.265 565.98 656.288 566.004 656.321 566.025ZM657.472 565.844L657.74 564.774C657.752 564.726 657.745 564.685 657.72 564.651C657.695 564.617 657.658 564.6 657.608 564.6H657.255C657.206 564.6 657.16 564.617 657.116 564.651C657.073 564.686 657.045 564.727 657.032 564.774L656.765 565.844C656.754 565.893 656.761 565.935 656.786 565.968C656.811 566.002 656.849 566.018 656.899 566.018H657.251C657.3 566.018 657.346 566.001 657.389 565.967C657.431 565.932 657.459 565.891 657.472 565.844ZM657.879 564.514L657.882 564.521L657.886 564.525C657.936 564.594 657.948 564.677 657.923 564.774L657.656 565.844C657.632 565.942 657.577 566.027 657.49 566.098C657.405 566.169 657.31 566.204 657.207 566.204H656.854C656.754 566.204 656.678 566.168 656.624 566.097C656.587 566.048 656.569 565.993 656.569 565.933C656.569 565.904 656.573 565.874 656.581 565.844L656.85 564.772C656.874 564.673 656.929 564.588 657.016 564.519C657.103 564.449 657.197 564.414 657.3 564.414H657.535L657.103 563.86L657.084 563.823C657.08 563.808 657.08 563.794 657.084 563.78C657.091 563.757 657.105 563.739 657.127 563.724C657.149 563.709 657.177 563.701 657.209 563.701H658.1C658.122 563.701 658.141 563.711 658.157 563.732C658.166 563.745 658.171 563.76 658.171 563.776C658.171 563.783 658.17 563.79 658.169 563.796C658.164 563.817 658.151 563.838 658.13 563.858C658.11 563.877 658.085 563.887 658.055 563.887H657.39L657.879 564.514ZM658.985 565.845C658.962 565.945 658.906 566.03 658.82 566.1C658.733 566.169 658.639 566.204 658.538 566.204H658.182C658.081 566.204 658.004 566.169 657.952 566.098C657.916 566.052 657.898 565.998 657.898 565.936C657.898 565.907 657.902 565.876 657.911 565.844L658.18 564.774C658.201 564.684 658.255 564.601 658.342 564.527C658.43 564.452 658.525 564.414 658.627 564.414H658.984C659.084 564.414 659.16 564.448 659.214 564.516C659.249 564.563 659.267 564.619 659.267 564.682C659.267 564.711 659.263 564.742 659.255 564.774L658.985 565.845ZM658.802 565.844L659.071 564.774C659.082 564.724 659.075 564.683 659.05 564.649C659.025 564.616 658.988 564.6 658.939 564.6H658.583C658.534 564.6 658.488 564.617 658.445 564.651C658.404 564.685 658.377 564.726 658.364 564.774L658.096 565.844C658.084 565.892 658.091 565.934 658.116 565.968C658.141 566.002 658.178 566.018 658.226 566.018H658.583C658.631 566.018 658.677 566.002 658.72 565.968C658.763 565.934 658.79 565.892 658.802 565.844ZM660.276 564.6H659.75L659.37 566.111C659.365 566.141 659.35 566.164 659.328 566.18C659.307 566.196 659.284 566.204 659.256 566.204C659.245 566.204 659.225 566.196 659.198 566.18C659.187 566.171 659.182 566.158 659.182 566.141C659.182 566.132 659.183 566.121 659.187 566.109L659.59 564.507C659.604 564.445 659.641 564.414 659.702 564.414H660.86C660.96 564.414 661.037 564.448 661.09 564.516C661.126 564.563 661.144 564.619 661.144 564.682C661.144 564.711 661.14 564.742 661.131 564.774L660.796 566.111C660.79 566.141 660.776 566.164 660.753 566.18C660.733 566.196 660.71 566.204 660.682 566.204C660.67 566.204 660.651 566.196 660.623 566.18C660.608 566.166 660.604 566.143 660.613 566.111L660.948 564.774C660.958 564.724 660.951 564.683 660.926 564.649C660.901 564.616 660.865 564.6 660.816 564.6H660.463L660.083 566.111C660.077 566.141 660.063 566.164 660.041 566.18C660.02 566.196 659.997 566.204 659.969 566.204C659.957 566.204 659.938 566.196 659.91 566.18C659.895 566.166 659.891 566.143 659.9 566.111L660.276 564.6ZM661.985 565.844L662.295 564.6H661.766C661.717 564.6 661.671 564.617 661.629 564.651C661.587 564.685 661.56 564.726 661.547 564.774L661.279 565.844C661.267 565.892 661.274 565.934 661.299 565.968C661.324 566.002 661.361 566.018 661.409 566.018H661.766C661.814 566.018 661.86 566.002 661.903 565.968C661.946 565.934 661.973 565.892 661.985 565.844ZM662.242 566.025C662.284 566.041 662.3 566.069 662.29 566.111C662.283 566.139 662.268 566.163 662.247 566.18C662.227 566.199 662.203 566.209 662.176 566.209L662.145 566.202C662.12 566.195 662.095 566.179 662.071 566.154C662.061 566.147 662.043 566.125 662.017 566.088C661.929 566.165 661.831 566.204 661.721 566.204H661.365C661.264 566.204 661.187 566.169 661.135 566.098C661.099 566.052 661.081 565.998 661.081 565.936C661.081 565.907 661.086 565.876 661.094 565.844L661.363 564.774C661.384 564.684 661.438 564.601 661.525 564.527C661.613 564.452 661.708 564.414 661.81 564.414H662.434C662.484 564.414 662.509 564.435 662.509 564.477C662.509 564.486 662.508 564.497 662.505 564.509L662.17 565.844C662.163 565.879 662.164 565.916 662.174 565.954C662.186 565.98 662.208 566.004 662.242 566.025ZM663.461 566.113C663.455 566.141 663.44 566.164 663.418 566.18C663.398 566.196 663.374 566.204 663.347 566.204C663.335 566.204 663.315 566.196 663.288 566.18C663.272 566.166 663.269 566.143 663.277 566.111L663.653 564.6H663.286L662.564 566.132C662.54 566.18 662.505 566.204 662.459 566.204C662.434 566.204 662.415 566.195 662.4 566.177C662.388 566.166 662.382 566.153 662.382 566.138C662.382 566.129 662.384 566.121 662.388 566.113L662.395 566.09L663.151 564.486C663.172 564.438 663.208 564.414 663.257 564.414H663.792C663.842 564.414 663.867 564.435 663.867 564.477C663.867 564.486 663.866 564.497 663.863 564.509L663.461 566.113Z" fill="black"/>
<rect width="23.5" height="5" transform="translate(666 563.2)" fill="white"/>
<path d="" fill="black"/>
<rect width="15" height="5" transform="translate(690 563.2)" fill="white"/>
<rect width="10" height="5" transform="translate(705.5 563.2)" fill="white"/>
<path d="" fill="black"/>
<rect width="17.5" height="5" transform="translate(648 568.4)" fill="white"/>
<path d="M652.11 570.332H651.579C651.443 570.332 651.329 570.281 651.237 570.177C651.2 570.124 651.175 570.066 651.162 570.003L651.158 569.908L651.163 569.851L651.174 569.794L651.376 568.994C651.379 568.974 651.393 568.954 651.417 568.933C651.44 568.912 651.465 568.901 651.49 568.901C651.512 568.901 651.531 568.91 651.547 568.926C651.562 568.943 651.566 568.966 651.559 568.994L651.358 569.796C651.335 569.895 651.349 569.978 651.399 570.046C651.45 570.113 651.525 570.147 651.623 570.147H652.156L652.447 568.994C652.45 568.974 652.464 568.954 652.488 568.933C652.511 568.912 652.536 568.901 652.561 568.901C652.583 568.901 652.602 568.91 652.618 568.926C652.628 568.937 652.634 568.951 652.634 568.969C652.634 568.976 652.633 568.985 652.63 568.994L652.162 570.865C652.126 571.013 652.042 571.139 651.91 571.245C651.78 571.351 651.639 571.404 651.49 571.404H651.044C651.016 571.404 650.994 571.395 650.98 571.379C650.973 571.366 650.969 571.351 650.969 571.336C650.969 571.328 650.97 571.319 650.973 571.309C650.976 571.296 650.989 571.278 651.01 571.254C651.032 571.23 651.058 571.218 651.089 571.218H651.534C651.629 571.218 651.72 571.185 651.807 571.118C651.895 571.051 651.952 570.966 651.98 570.865L652.11 570.332ZM653.448 569.8H652.923L652.543 571.311C652.537 571.341 652.523 571.364 652.5 571.38C652.48 571.396 652.456 571.404 652.429 571.404C652.417 571.404 652.397 571.396 652.37 571.38C652.359 571.371 652.354 571.358 652.354 571.341C652.354 571.332 652.356 571.321 652.359 571.309L652.762 569.707C652.776 569.645 652.814 569.614 652.874 569.614H654.033C654.133 569.614 654.209 569.648 654.263 569.716C654.298 569.763 654.316 569.819 654.316 569.882C654.316 569.911 654.312 569.942 654.304 569.974L653.969 571.311C653.963 571.341 653.949 571.364 653.926 571.38C653.906 571.396 653.882 571.404 653.855 571.404C653.843 571.404 653.823 571.396 653.796 571.38C653.78 571.366 653.777 571.343 653.785 571.311L654.12 569.974C654.131 569.924 654.124 569.883 654.099 569.849C654.074 569.816 654.037 569.8 653.988 569.8H653.635L653.256 571.311C653.25 571.341 653.236 571.364 653.213 571.38C653.193 571.396 653.169 571.404 653.142 571.404C653.13 571.404 653.11 571.396 653.083 571.38C653.067 571.366 653.064 571.343 653.072 571.311L653.448 569.8ZM654.863 569.609L655.017 569.52C655.059 569.494 655.121 569.45 655.202 569.39L655.227 569.368L655.268 569.32C655.285 569.304 655.295 569.283 655.3 569.258C655.312 569.207 655.305 569.166 655.279 569.135C655.254 569.103 655.217 569.087 655.17 569.087C655.121 569.087 655.075 569.102 655.033 569.133C654.992 569.162 654.964 569.204 654.949 569.26L654.863 569.609ZM655.211 571.044L655.478 569.974C655.49 569.926 655.484 569.885 655.459 569.851C655.434 569.817 655.396 569.8 655.346 569.8H654.993C654.945 569.8 654.898 569.817 654.854 569.851C654.812 569.886 654.784 569.927 654.771 569.974L654.503 571.044C654.493 571.093 654.5 571.135 654.525 571.168C654.55 571.202 654.587 571.218 654.637 571.218H654.99C655.039 571.218 655.084 571.201 655.127 571.167C655.17 571.132 655.198 571.091 655.211 571.044ZM655.191 569.614H655.391C655.492 569.614 655.569 569.648 655.623 569.716C655.658 569.763 655.676 569.819 655.676 569.882C655.676 569.911 655.672 569.942 655.664 569.974L655.394 571.044C655.371 571.142 655.315 571.227 655.229 571.298C655.143 571.369 655.049 571.404 654.945 571.404H654.592C654.493 571.404 654.416 571.368 654.363 571.297C654.326 571.248 654.307 571.193 654.307 571.133C654.307 571.104 654.311 571.074 654.32 571.044L654.589 569.974L654.767 569.26C654.793 569.148 654.852 569.059 654.944 568.994C655.027 568.933 655.116 568.903 655.213 568.903C655.31 568.903 655.386 568.933 655.439 568.992C655.497 569.056 655.512 569.146 655.484 569.26L655.466 569.326L655.444 569.37C655.424 569.407 655.392 569.445 655.346 569.484L655.191 569.614ZM655.951 570.416H656.655L656.767 569.974C656.777 569.924 656.77 569.883 656.745 569.849C656.72 569.816 656.684 569.8 656.635 569.8H656.278C656.23 569.8 656.184 569.817 656.141 569.851C656.1 569.885 656.072 569.926 656.059 569.974L655.951 570.416ZM655.904 570.602L655.79 571.044C655.779 571.093 655.787 571.135 655.812 571.168C655.836 571.202 655.873 571.218 655.922 571.218H656.546C656.568 571.218 656.587 571.228 656.601 571.249C656.616 571.269 656.621 571.29 656.615 571.311C656.611 571.333 656.597 571.355 656.576 571.375C656.556 571.394 656.531 571.404 656.501 571.404H655.877C655.776 571.404 655.7 571.369 655.648 571.298C655.612 571.252 655.594 571.198 655.594 571.136C655.594 571.107 655.598 571.076 655.607 571.044L655.876 569.974C655.897 569.884 655.951 569.801 656.038 569.727C656.126 569.652 656.221 569.614 656.323 569.614H656.679C656.779 569.614 656.856 569.648 656.909 569.716C656.945 569.763 656.963 569.819 656.963 569.882C656.963 569.911 656.959 569.942 656.95 569.974L656.815 570.509C656.801 570.571 656.763 570.602 656.703 570.602H655.904ZM657.082 571.22H657.613C657.659 571.22 657.703 571.203 657.747 571.168C657.791 571.133 657.819 571.091 657.833 571.044L658.102 569.972C658.112 569.924 658.105 569.883 658.08 569.849C658.055 569.816 658.019 569.8 657.972 569.8H657.439L657.082 571.22ZM657.036 571.405L656.881 572.022C656.876 572.045 656.862 572.066 656.838 572.086C656.813 572.106 656.789 572.116 656.767 572.116C656.745 572.116 656.726 572.108 656.71 572.092C656.699 572.078 656.694 572.064 656.694 572.049C656.694 572.039 656.695 572.03 656.697 572.022L657.275 569.709C657.29 569.646 657.329 569.614 657.391 569.614H658.016C658.114 569.614 658.19 569.648 658.244 569.716C658.28 569.765 658.298 569.82 658.298 569.882C658.298 569.91 658.294 569.94 658.285 569.972L658.016 571.044C657.992 571.143 657.937 571.229 657.85 571.3C657.764 571.37 657.67 571.405 657.569 571.405H657.036ZM659.449 569.8H658.922C658.873 569.8 658.826 569.817 658.782 569.851C658.74 569.886 658.712 569.927 658.699 569.974L658.431 571.044C658.421 571.093 658.428 571.135 658.453 571.168C658.478 571.202 658.515 571.218 658.565 571.218H658.918C658.967 571.218 659.012 571.201 659.055 571.167C659.098 571.132 659.126 571.091 659.139 571.044L659.449 569.8ZM659.495 569.614L659.586 569.26C659.597 569.211 659.59 569.17 659.565 569.137C659.54 569.103 659.503 569.087 659.453 569.087H658.831C658.802 569.087 658.781 569.078 658.766 569.06C658.756 569.041 658.754 569.019 658.761 568.994C658.765 568.98 658.777 568.961 658.797 568.937C658.818 568.913 658.844 568.901 658.875 568.901H659.497C659.597 568.901 659.673 568.937 659.725 569.008C659.762 569.057 659.781 569.112 659.781 569.174C659.781 569.201 659.777 569.23 659.77 569.26L659.323 571.044C659.299 571.142 659.243 571.227 659.157 571.298C659.071 571.369 658.977 571.404 658.873 571.404H658.521C658.421 571.404 658.344 571.368 658.291 571.297C658.254 571.248 658.235 571.193 658.235 571.133C658.235 571.104 658.24 571.074 658.248 571.044L658.517 569.972C658.541 569.873 658.596 569.788 658.683 569.719C658.769 569.649 658.864 569.614 658.966 569.614H659.495ZM660.64 571.311C660.625 571.373 660.587 571.404 660.526 571.404H659.902C659.801 571.404 659.724 571.369 659.672 571.298C659.636 571.252 659.618 571.198 659.618 571.136C659.618 571.107 659.623 571.076 659.631 571.044L659.968 569.707C659.971 569.687 659.984 569.667 660.007 569.646C660.031 569.625 660.055 569.614 660.08 569.614C660.103 569.614 660.122 569.623 660.137 569.639C660.154 569.655 660.158 569.677 660.149 569.707L659.816 571.044C659.804 571.092 659.811 571.134 659.836 571.168C659.861 571.202 659.898 571.218 659.946 571.218H660.477L660.859 569.707C660.862 569.687 660.875 569.667 660.898 569.646C660.922 569.625 660.946 569.614 660.971 569.614C660.994 569.614 661.013 569.622 661.028 569.637C661.04 569.649 661.046 569.664 661.046 569.682C661.046 569.689 661.045 569.698 661.042 569.709L660.64 571.311ZM661.891 571.313C661.885 571.341 661.871 571.364 661.848 571.38C661.828 571.396 661.804 571.404 661.777 571.404C661.765 571.404 661.745 571.396 661.718 571.38C661.702 571.366 661.699 571.343 661.707 571.311L662.083 569.8H661.716L660.994 571.332C660.97 571.38 660.935 571.404 660.889 571.404C660.864 571.404 660.845 571.395 660.83 571.377C660.818 571.366 660.812 571.353 660.812 571.338C660.812 571.329 660.814 571.321 660.818 571.313L660.825 571.29L661.581 569.686C661.602 569.638 661.638 569.614 661.688 569.614H662.222C662.272 569.614 662.297 569.635 662.297 569.677C662.297 569.686 662.296 569.697 662.293 569.709L661.891 571.313Z" fill="black"/>
<rect width="23.5" height="5" transform="translate(666 568.4)" fill="white"/>
<rect width="15" height="5" transform="translate(690 568.4)" fill="white"/>
<rect width="10" height="5" transform="translate(705.5 568.4)" fill="white"/>
<rect width="17.5" height="5" transform="translate(648 573.6)" fill="white"/>
<rect width="23.5" height="5" transform="translate(666 573.6)" fill="white"/>
<rect width="15" height="5" transform="translate(690 573.6)" fill="white"/>
<rect width="10" height="5" transform="translate(705.5 573.6)" fill="white"/>
<rect width="7" height="5" transform="translate(648 578.8)" fill="white"/>
<rect width="17.5" height="5" transform="translate(642.75 578.8)" fill="white"/>
<rect width="10" height="5" transform="translate(655.5 578.8)" fill="white"/>
<rect width="23.5" height="5" transform="translate(666 578.8)" fill="white"/>
<rect width="15" height="5" transform="translate(690 578.8)" fill="white"/>
<rect width="10" height="5" transform="translate(705.5 578.8)" fill="white"/>
<rect width="7" height="5" transform="translate(648 584)" fill="white"/>
<rect width="17.5" height="5" transform="translate(642.75 584)" fill="white"/>
<rect width="10" height="5" transform="translate(655.5 584)" fill="white"/>
<rect width="23.5" height="5" transform="translate(666 584)" fill="white"/>
<rect width="15" height="5" transform="translate(690 584)" fill="white"/>
<rect width="10" height="5" transform="translate(705.5 584)" fill="white"/>
</g>
<rect x="648.25" y="532.25" width="67" height="56.5" stroke="black" stroke-width="0.5"/>
<g clip-path="url(#clip2_4607_205366)">
<mask id="path-15-inside-1_4607_205366" fill="white">
<path d="M715.5 532H835.5V589H715.5V532Z"/>
</mask>
<path d="M715.5 532H835.5V589H715.5V532Z" fill="black"/>
<rect width="120" height="10.5" transform="translate(715.5 532)" fill="white"/>
<path d="" fill="black"/>
<rect width="120" height="10.5" transform="translate(715.5 543)" fill="white"/>
<path d="" fill="black"/>
<rect width="69.5" height="16" transform="translate(715.5 554)" fill="white"/>
<path d="" fill="black"/>
<rect width="16.3333" height="9" transform="translate(785.5 554)" fill="white"/>
<path d="M790.179 559.004H789.735C789.595 559.004 789.483 558.951 789.398 558.845C789.34 558.772 789.311 558.689 789.311 558.595C789.311 558.554 789.317 558.51 789.329 558.465L789.687 557.038C789.721 556.895 789.804 556.77 789.935 556.664C790.065 556.555 790.207 556.501 790.359 556.501H790.803C790.825 556.501 790.844 556.51 790.858 556.528C790.87 556.545 790.876 556.561 790.876 556.578C790.876 556.584 790.875 556.59 790.874 556.596C790.868 556.617 790.854 556.638 790.833 556.658C790.813 556.677 790.788 556.687 790.758 556.687H790.314C790.217 556.687 790.125 556.721 790.038 556.788C789.952 556.856 789.896 556.94 789.869 557.04L789.512 558.465C789.49 558.563 789.504 558.646 789.555 558.715C789.607 558.784 789.682 558.818 789.78 558.818H790.223C790.246 558.818 790.264 558.828 790.279 558.849C790.294 558.869 790.299 558.89 790.293 558.911C790.288 558.933 790.275 558.955 790.254 558.975C790.233 558.994 790.209 559.004 790.179 559.004ZM791.587 557.4H791.061L790.681 558.911C790.675 558.941 790.661 558.964 790.639 558.98C790.618 558.996 790.595 559.004 790.567 559.004C790.555 559.004 790.536 558.996 790.509 558.98C790.498 558.971 790.492 558.958 790.492 558.941C790.492 558.932 790.494 558.921 790.498 558.909L790.901 557.307C790.915 557.245 790.952 557.214 791.013 557.214H792.171C792.271 557.214 792.348 557.248 792.401 557.316C792.437 557.363 792.455 557.419 792.455 557.482C792.455 557.511 792.451 557.542 792.442 557.574L792.107 558.911C792.101 558.941 792.087 558.964 792.064 558.98C792.044 558.996 792.02 559.004 791.993 559.004C791.981 559.004 791.962 558.996 791.934 558.98C791.919 558.966 791.915 558.943 791.924 558.911L792.259 557.574C792.269 557.524 792.262 557.483 792.237 557.449C792.212 557.416 792.175 557.4 792.127 557.4H791.774L791.394 558.911C791.388 558.941 791.374 558.964 791.352 558.98C791.331 558.996 791.308 559.004 791.28 559.004C791.268 559.004 791.249 558.996 791.221 558.98C791.206 558.966 791.202 558.943 791.211 558.911L791.587 557.4ZM793.296 558.644L793.606 557.4H793.077C793.028 557.4 792.982 557.417 792.939 557.451C792.898 557.485 792.871 557.526 792.857 557.574L792.59 558.644C792.578 558.692 792.585 558.734 792.61 558.768C792.635 558.802 792.672 558.818 792.72 558.818H793.077C793.125 558.818 793.171 558.802 793.214 558.768C793.257 558.734 793.284 558.692 793.296 558.644ZM793.553 558.825C793.595 558.841 793.611 558.869 793.601 558.911C793.594 558.939 793.579 558.963 793.558 558.98C793.538 558.999 793.514 559.009 793.487 559.009L793.456 559.002C793.431 558.995 793.406 558.979 793.381 558.954C793.372 558.947 793.354 558.925 793.328 558.888C793.24 558.965 793.141 559.004 793.032 559.004H792.676C792.575 559.004 792.498 558.969 792.446 558.898C792.41 558.852 792.392 558.798 792.392 558.736C792.392 558.707 792.396 558.676 792.405 558.644L792.674 557.574C792.695 557.484 792.749 557.401 792.836 557.326C792.924 557.252 793.019 557.214 793.121 557.214H793.745C793.795 557.214 793.82 557.235 793.82 557.277C793.82 557.286 793.819 557.297 793.816 557.309L793.481 558.644C793.474 558.679 793.475 558.716 793.485 558.754C793.497 558.78 793.519 558.804 793.553 558.825ZM795.014 557.4H794.486C794.438 557.4 794.391 557.417 794.347 557.451C794.305 557.486 794.277 557.527 794.264 557.574L793.996 558.644C793.986 558.693 793.993 558.735 794.018 558.768C794.043 558.802 794.08 558.818 794.13 558.818H794.483C794.532 558.818 794.577 558.801 794.62 558.767C794.663 558.732 794.691 558.691 794.704 558.644L795.014 557.4ZM795.06 557.214L795.151 556.86C795.162 556.811 795.155 556.77 795.13 556.737C795.105 556.703 795.067 556.687 795.018 556.687H794.396C794.367 556.687 794.346 556.678 794.331 556.66C794.321 556.641 794.319 556.619 794.326 556.594C794.33 556.58 794.341 556.561 794.362 556.537C794.383 556.513 794.409 556.501 794.44 556.501H795.062C795.162 556.501 795.238 556.537 795.29 556.608C795.327 556.657 795.345 556.712 795.345 556.774C795.345 556.801 795.342 556.83 795.335 556.86L794.887 558.644C794.864 558.742 794.808 558.827 794.722 558.898C794.636 558.969 794.542 559.004 794.438 559.004H794.085C793.986 559.004 793.909 558.968 793.856 558.897C793.819 558.848 793.8 558.793 793.8 558.733C793.8 558.704 793.804 558.674 793.813 558.644L794.082 557.572C794.106 557.473 794.161 557.388 794.248 557.319C794.334 557.249 794.429 557.214 794.531 557.214H795.06ZM796.205 558.911C796.19 558.973 796.152 559.004 796.09 559.004H795.467C795.366 559.004 795.289 558.969 795.237 558.898C795.201 558.852 795.183 558.798 795.183 558.736C795.183 558.707 795.187 558.676 795.196 558.644L795.533 557.307C795.536 557.287 795.549 557.266 795.572 557.246C795.596 557.225 795.62 557.214 795.645 557.214C795.667 557.214 795.686 557.223 795.702 557.239C795.719 557.255 795.723 557.277 795.714 557.307L795.381 558.644C795.369 558.692 795.376 558.734 795.401 558.768C795.426 558.802 795.463 558.818 795.511 558.818H796.042L796.424 557.307C796.427 557.287 796.44 557.266 796.463 557.246C796.487 557.225 796.511 557.214 796.536 557.214C796.559 557.214 796.578 557.222 796.593 557.237C796.605 557.249 796.611 557.264 796.611 557.282C796.611 557.289 796.61 557.298 796.607 557.309L796.205 558.911ZM797.493 558.913C797.487 558.941 797.473 558.964 797.45 558.98C797.43 558.996 797.406 559.004 797.379 559.004C797.367 559.004 797.348 558.996 797.32 558.98C797.305 558.966 797.301 558.943 797.309 558.911L797.486 558.202H797.188L796.581 558.955L796.54 558.991L796.49 559.004C796.462 559.004 796.443 558.995 796.431 558.979C796.419 558.964 796.413 558.95 796.413 558.934C796.413 558.928 796.414 558.92 796.417 558.911C796.42 558.897 796.428 558.882 796.442 558.866L796.917 558.273C796.843 558.225 796.778 558.167 796.725 558.098C796.673 558.028 796.66 557.943 796.688 557.842L796.753 557.574C796.775 557.484 796.829 557.401 796.916 557.326C797.004 557.252 797.099 557.214 797.201 557.214H797.825C797.874 557.214 797.899 557.235 797.899 557.277C797.899 557.286 797.898 557.297 797.896 557.309L797.493 558.913ZM797.532 558.016L797.686 557.4H797.156C797.108 557.4 797.062 557.417 797.019 557.451C796.977 557.485 796.95 557.526 796.937 557.574L796.869 557.842C796.859 557.891 796.866 557.933 796.891 557.966C796.916 558 796.952 558.016 797.001 558.016H797.532Z" fill="black"/>
<rect width="16.3333" height="9" transform="translate(802.333 554)" fill="white"/>
<path d="M808.461 558.913C808.455 558.941 808.442 558.964 808.42 558.98C808.4 558.996 808.376 559.004 808.349 559.004C808.337 559.004 808.318 558.996 808.29 558.98C808.275 558.965 808.271 558.942 808.278 558.911L808.834 556.687H808.463L807.205 558.939C807.179 558.983 807.144 559.005 807.102 559.005C807.075 559.005 807.055 558.997 807.041 558.98C807.03 558.969 807.025 558.955 807.025 558.939C807.025 558.931 807.026 558.922 807.029 558.913L807.041 558.882L808.335 556.565C808.36 556.523 808.395 556.501 808.44 556.501H808.973C809.023 556.501 809.048 556.521 809.048 556.56C809.048 556.572 809.046 556.584 809.042 556.596L808.461 558.913ZM809.875 558.911C809.86 558.973 809.822 559.004 809.761 559.004H809.137C809.036 559.004 808.959 558.969 808.907 558.898C808.871 558.852 808.854 558.798 808.854 558.736C808.854 558.707 808.858 558.676 808.866 558.644L809.203 557.307C809.206 557.287 809.219 557.266 809.242 557.246C809.266 557.225 809.29 557.214 809.315 557.214C809.338 557.214 809.357 557.223 809.372 557.239C809.389 557.255 809.393 557.277 809.385 557.307L809.051 558.644C809.039 558.692 809.046 558.734 809.071 558.768C809.096 558.802 809.133 558.818 809.181 558.818H809.713L810.094 557.307C810.098 557.287 810.111 557.266 810.133 557.246C810.157 557.225 810.181 557.214 810.206 557.214C810.229 557.214 810.248 557.222 810.263 557.237C810.275 557.249 810.281 557.264 810.281 557.282C810.281 557.289 810.28 557.298 810.278 557.309L809.875 558.911ZM811.08 559.004H810.456C810.355 559.004 810.278 558.969 810.226 558.898C810.19 558.852 810.172 558.798 810.172 558.736C810.172 558.707 810.177 558.676 810.185 558.644L810.454 557.574C810.475 557.484 810.529 557.401 810.616 557.326C810.704 557.252 810.799 557.214 810.901 557.214H811.525C811.548 557.214 811.566 557.223 811.58 557.241C811.592 557.258 811.598 557.274 811.598 557.291C811.598 557.297 811.598 557.303 811.596 557.309C811.59 557.33 811.577 557.351 811.555 557.371C811.535 557.39 811.51 557.4 811.481 557.4H810.857C810.808 557.4 810.762 557.417 810.72 557.451C810.678 557.485 810.651 557.526 810.638 557.574L810.37 558.644C810.358 558.692 810.365 558.734 810.39 558.768C810.415 558.802 810.452 558.818 810.5 558.818H811.124C811.147 558.818 811.165 558.828 811.179 558.849C811.195 558.869 811.2 558.89 811.194 558.911C811.189 558.933 811.176 558.955 811.154 558.975C811.134 558.994 811.109 559.004 811.08 559.004ZM812.514 557.4H811.988L811.609 558.911C811.603 558.941 811.589 558.964 811.566 558.98C811.546 558.996 811.522 559.004 811.495 559.004C811.483 559.004 811.463 558.996 811.436 558.98C811.425 558.971 811.42 558.958 811.42 558.941C811.42 558.932 811.422 558.921 811.425 558.909L811.828 557.307C811.842 557.245 811.88 557.214 811.94 557.214H813.099C813.199 557.214 813.275 557.248 813.329 557.316C813.364 557.363 813.382 557.419 813.382 557.482C813.382 557.511 813.378 557.542 813.37 557.574L813.035 558.911C813.029 558.941 813.014 558.964 812.992 558.98C812.972 558.996 812.948 559.004 812.921 559.004C812.909 559.004 812.889 558.996 812.862 558.98C812.846 558.966 812.843 558.943 812.851 558.911L813.186 557.574C813.197 557.524 813.19 557.483 813.165 557.449C813.14 557.416 813.103 557.4 813.054 557.4H812.701L812.322 558.911C812.316 558.941 812.302 558.964 812.279 558.98C812.259 558.996 812.235 559.004 812.208 559.004C812.196 559.004 812.176 558.996 812.149 558.98C812.133 558.966 812.13 558.943 812.138 558.911L812.514 557.4Z" fill="black"/>
<rect width="16.3333" height="9" transform="translate(819.167 554)" fill="white"/>
<path d="M824.294 558.913C824.288 558.941 824.275 558.964 824.253 558.98C824.233 558.996 824.209 559.004 824.182 559.004C824.17 559.004 824.151 558.996 824.123 558.98C824.108 558.965 824.104 558.942 824.111 558.911L824.667 556.687H824.296L823.038 558.939C823.012 558.983 822.977 559.005 822.935 559.005C822.908 559.005 822.888 558.997 822.874 558.98C822.863 558.969 822.858 558.955 822.858 558.939C822.858 558.931 822.859 558.922 822.862 558.913L822.874 558.882L824.168 556.565C824.193 556.523 824.228 556.501 824.273 556.501H824.806C824.856 556.501 824.881 556.521 824.881 556.56C824.881 556.572 824.879 556.584 824.875 556.596L824.294 558.913ZM825.708 558.911C825.693 558.973 825.655 559.004 825.594 559.004H824.97C824.869 559.004 824.792 558.969 824.74 558.898C824.704 558.852 824.687 558.798 824.687 558.736C824.687 558.707 824.691 558.676 824.699 558.644L825.036 557.307C825.039 557.287 825.052 557.266 825.075 557.246C825.099 557.225 825.123 557.214 825.148 557.214C825.171 557.214 825.19 557.223 825.205 557.239C825.222 557.255 825.226 557.277 825.218 557.307L824.884 558.644C824.872 558.692 824.879 558.734 824.904 558.768C824.929 558.802 824.966 558.818 825.014 558.818H825.546L825.927 557.307C825.931 557.287 825.944 557.266 825.966 557.246C825.99 557.225 826.014 557.214 826.039 557.214C826.062 557.214 826.081 557.222 826.096 557.237C826.108 557.249 826.114 557.264 826.114 557.282C826.114 557.289 826.113 557.298 826.111 557.309L825.708 558.911ZM826.913 559.004H826.289C826.188 559.004 826.111 558.969 826.059 558.898C826.023 558.852 826.005 558.798 826.005 558.736C826.005 558.707 826.01 558.676 826.018 558.644L826.287 557.574C826.308 557.484 826.362 557.401 826.449 557.326C826.537 557.252 826.632 557.214 826.734 557.214H827.358C827.381 557.214 827.399 557.223 827.413 557.241C827.425 557.258 827.431 557.274 827.431 557.291C827.431 557.297 827.431 557.303 827.429 557.309C827.423 557.33 827.41 557.351 827.388 557.371C827.368 557.39 827.343 557.4 827.314 557.4H826.69C826.641 557.4 826.595 557.417 826.553 557.451C826.511 557.485 826.484 557.526 826.471 557.574L826.203 558.644C826.191 558.692 826.198 558.734 826.223 558.768C826.248 558.802 826.285 558.818 826.333 558.818H826.957C826.98 558.818 826.998 558.828 827.012 558.849C827.028 558.869 827.033 558.89 827.027 558.911C827.022 558.933 827.009 558.955 826.987 558.975C826.967 558.994 826.942 559.004 826.913 559.004ZM828.347 557.4H827.821L827.442 558.911C827.436 558.941 827.422 558.964 827.399 558.98C827.379 558.996 827.355 559.004 827.328 559.004C827.316 559.004 827.296 558.996 827.269 558.98C827.258 558.971 827.253 558.958 827.253 558.941C827.253 558.932 827.255 558.921 827.258 558.909L827.661 557.307C827.675 557.245 827.713 557.214 827.773 557.214H828.932C829.032 557.214 829.108 557.248 829.162 557.316C829.197 557.363 829.215 557.419 829.215 557.482C829.215 557.511 829.211 557.542 829.203 557.574L828.868 558.911C828.862 558.941 828.847 558.964 828.825 558.98C828.805 558.996 828.781 559.004 828.754 559.004C828.742 559.004 828.722 558.996 828.695 558.98C828.679 558.966 828.676 558.943 828.684 558.911L829.019 557.574C829.03 557.524 829.023 557.483 828.998 557.449C828.973 557.416 828.936 557.4 828.887 557.4H828.534L828.155 558.911C828.149 558.941 828.135 558.964 828.112 558.98C828.092 558.996 828.068 559.004 828.041 559.004C828.029 559.004 828.009 558.996 827.982 558.98C827.966 558.966 827.963 558.943 827.971 558.911L828.347 557.4ZM830.24 558.645C830.216 558.745 830.161 558.83 830.074 558.9C829.987 558.969 829.894 559.004 829.793 559.004H829.436C829.335 559.004 829.259 558.969 829.206 558.898C829.171 558.852 829.153 558.798 829.153 558.736C829.153 558.707 829.157 558.676 829.165 558.644L829.434 557.574C829.456 557.484 829.51 557.401 829.597 557.326C829.684 557.252 829.78 557.214 829.882 557.214H830.238C830.338 557.214 830.415 557.248 830.468 557.316C830.504 557.363 830.522 557.419 830.522 557.482C830.522 557.511 830.517 557.542 830.509 557.574L830.24 558.645ZM830.056 558.644L830.325 557.574C830.336 557.524 830.329 557.483 830.304 557.449C830.279 557.416 830.242 557.4 830.194 557.4H829.837C829.788 557.4 829.743 557.417 829.7 557.451C829.658 557.485 829.631 557.526 829.618 557.574L829.351 558.644C829.339 558.692 829.345 558.734 829.37 558.768C829.395 558.802 829.432 558.818 829.481 558.818H829.837C829.886 558.818 829.932 558.802 829.974 558.768C830.017 558.734 830.044 558.692 830.056 558.644ZM831.01 557.209L831.163 557.12C831.206 557.094 831.268 557.05 831.348 556.99L831.373 556.968L831.414 556.92C831.431 556.904 831.442 556.883 831.447 556.858C831.458 556.807 831.451 556.766 831.425 556.735C831.4 556.703 831.364 556.687 831.316 556.687C831.268 556.687 831.222 556.702 831.179 556.733C831.139 556.762 831.111 556.804 831.095 556.86L831.01 557.209ZM831.357 558.644L831.625 557.574C831.637 557.526 831.63 557.485 831.605 557.451C831.58 557.417 831.543 557.4 831.493 557.4H831.14C831.091 557.4 831.045 557.417 831.001 557.451C830.958 557.486 830.93 557.527 830.917 557.574L830.65 558.644C830.639 558.693 830.646 558.735 830.671 558.768C830.696 558.802 830.734 558.818 830.784 558.818H831.136C831.185 558.818 831.231 558.801 831.274 558.767C831.316 558.732 831.344 558.691 831.357 558.644ZM831.338 557.214H831.537C831.638 557.214 831.716 557.248 831.769 557.316C831.805 557.363 831.823 557.419 831.823 557.482C831.823 557.511 831.818 557.542 831.81 557.574L831.541 558.644C831.517 558.742 831.462 558.827 831.375 558.898C831.29 558.969 831.195 559.004 831.092 559.004H830.739C830.639 559.004 830.563 558.968 830.509 558.897C830.472 558.848 830.454 558.793 830.454 558.733C830.454 558.704 830.458 558.674 830.466 558.644L830.735 557.574L830.914 556.86C830.94 556.748 830.999 556.659 831.09 556.594C831.173 556.533 831.263 556.503 831.359 556.503C831.457 556.503 831.532 556.533 831.586 556.592C831.644 556.656 831.659 556.745 831.63 556.86L831.612 556.925L831.591 556.97C831.571 557.007 831.538 557.045 831.493 557.084L831.338 557.214Z" fill="black"/>
<rect width="16.3333" height="6.5" transform="translate(785.5 563.5)" fill="white"/>
<path d="M794.084 568.255H793.462C793.266 568.255 793.109 568.181 792.991 568.033C792.909 567.931 792.869 567.815 792.869 567.684C792.869 567.625 792.877 567.565 792.894 567.501L793.395 565.503C793.443 565.303 793.559 565.129 793.742 564.979C793.925 564.828 794.123 564.752 794.336 564.752H794.957C794.989 564.752 795.014 564.764 795.034 564.789C795.051 564.813 795.059 564.836 795.059 564.859C795.059 564.867 795.058 564.876 795.057 564.884C795.049 564.914 795.029 564.943 794.999 564.971C794.971 564.998 794.936 565.011 794.895 565.011H794.273C794.137 565.011 794.008 565.059 793.887 565.154C793.767 565.248 793.688 565.366 793.65 565.505L793.151 567.501C793.119 567.638 793.139 567.754 793.21 567.851C793.284 567.947 793.388 567.995 793.525 567.995H794.146C794.178 567.995 794.203 568.01 794.223 568.038C794.245 568.066 794.252 568.095 794.243 568.125C794.237 568.157 794.218 568.187 794.189 568.215C794.16 568.242 794.125 568.255 794.084 568.255Z" fill="black"/>
<rect width="16.3333" height="6.5" transform="translate(802.333 563.5)" fill="white"/>
<path d="M810.406 568.128C810.397 568.168 810.378 568.199 810.348 568.223C810.32 568.244 810.287 568.255 810.249 568.255C810.232 568.255 810.204 568.244 810.166 568.223C810.145 568.201 810.139 568.168 810.149 568.125L810.882 565.193L810.224 565.72C810.192 565.747 810.16 565.76 810.129 565.76C810.092 565.76 810.064 565.747 810.044 565.72C810.029 565.703 810.021 565.683 810.021 565.658C810.021 565.648 810.023 565.638 810.026 565.628C810.031 565.613 810.051 565.584 810.086 565.54L811.022 564.789C811.05 564.766 811.082 564.754 811.117 564.754C811.152 564.754 811.181 564.765 811.204 564.787C811.217 564.805 811.224 564.826 811.224 564.849C811.224 564.859 811.222 564.87 811.219 564.882L810.406 568.128Z" fill="black"/>
<rect width="16.3333" height="6.5" transform="translate(819.167 563.5)" fill="white"/>
<path d="M827.239 568.128C827.23 568.168 827.211 568.199 827.181 568.223C827.153 568.244 827.12 568.255 827.082 568.255C827.065 568.255 827.037 568.244 826.999 568.223C826.978 568.201 826.972 568.168 826.982 568.125L827.715 565.193L827.057 565.72C827.025 565.747 826.993 565.76 826.962 565.76C826.925 565.76 826.897 565.747 826.877 565.72C826.862 565.703 826.854 565.683 826.854 565.658C826.854 565.648 826.856 565.638 826.859 565.628C826.864 565.613 826.884 565.584 826.919 565.54L827.855 564.789C827.883 564.766 827.915 564.754 827.95 564.754C827.985 564.754 828.014 564.765 828.037 564.787C828.05 564.805 828.057 564.826 828.057 564.849C828.057 564.859 828.055 564.87 828.052 564.882L827.239 568.128Z" fill="black"/>
<rect width="69.5" height="18.5" transform="translate(715.5 570.5)" fill="white"/>
<path d="" fill="black"/>
<rect width="50" height="18.5" transform="translate(785.5 570.5)" fill="white"/>
<path d="M806.461 580.163C806.455 580.191 806.442 580.214 806.42 580.23C806.4 580.246 806.376 580.254 806.349 580.254C806.337 580.254 806.318 580.246 806.29 580.23C806.275 580.215 806.271 580.192 806.278 580.161L806.834 577.937H806.463L805.205 580.189C805.179 580.233 805.144 580.255 805.102 580.255C805.075 580.255 805.055 580.247 805.041 580.23C805.03 580.219 805.025 580.205 805.025 580.189C805.025 580.181 805.026 580.172 805.029 580.163L805.041 580.132L806.335 577.815C806.36 577.773 806.395 577.751 806.44 577.751H806.973C807.023 577.751 807.048 577.771 807.048 577.81C807.048 577.822 807.046 577.834 807.042 577.846L806.461 580.163ZM807.852 579.895C807.828 579.995 807.773 580.08 807.686 580.15C807.599 580.219 807.505 580.254 807.404 580.254H807.048C806.947 580.254 806.87 580.219 806.818 580.148C806.782 580.102 806.764 580.048 806.764 579.986C806.764 579.957 806.769 579.926 806.777 579.894L807.046 578.824C807.067 578.734 807.121 578.651 807.208 578.576C807.296 578.502 807.391 578.464 807.493 578.464H807.85C807.95 578.464 808.026 578.498 808.08 578.566C808.115 578.613 808.133 578.669 808.133 578.732C808.133 578.761 808.129 578.792 808.121 578.824L807.852 579.895ZM807.668 579.894L807.937 578.824C807.948 578.774 807.941 578.733 807.916 578.699C807.891 578.666 807.854 578.65 807.805 578.65H807.449C807.4 578.65 807.354 578.667 807.312 578.701C807.27 578.735 807.243 578.776 807.23 578.824L806.962 579.894C806.95 579.942 806.957 579.984 806.982 580.018C807.007 580.052 807.044 580.068 807.092 580.068H807.449C807.497 580.068 807.543 580.052 807.586 580.018C807.629 579.984 807.656 579.942 807.668 579.894ZM809.142 580.015C809.098 580.086 809.036 580.144 808.957 580.188C808.92 580.205 808.88 580.221 808.837 580.234L808.775 580.246L808.721 580.254H808.365C808.26 580.254 808.184 580.217 808.135 580.143C808.099 580.096 808.081 580.041 808.081 579.981C808.081 579.952 808.086 579.923 808.094 579.892C808.119 579.791 808.178 579.704 808.272 579.632L809.167 578.951C809.212 578.915 809.242 578.874 809.256 578.826C809.265 578.78 809.258 578.739 809.235 578.703C809.212 578.667 809.175 578.65 809.122 578.65H808.766C808.731 578.65 808.693 578.661 808.65 578.683C808.607 578.705 808.573 578.734 808.548 578.771C808.523 578.809 808.491 578.828 808.45 578.828C808.425 578.828 808.405 578.819 808.39 578.803C808.376 578.786 808.371 578.765 808.377 578.739L808.392 578.703C808.433 578.639 808.494 578.583 808.573 578.535C808.654 578.488 808.733 578.464 808.81 578.464H809.167C809.273 578.464 809.35 578.5 809.4 578.571C809.434 578.621 809.45 578.676 809.45 578.737C809.45 578.765 809.447 578.796 809.44 578.828C809.415 578.928 809.355 579.014 809.261 579.086L808.365 579.767C808.32 579.804 808.291 579.845 808.279 579.892C808.271 579.927 808.276 579.97 808.295 580.018C808.318 580.052 808.356 580.068 808.409 580.068H808.766C808.793 580.068 808.834 580.058 808.887 580.038C808.927 580.017 808.96 579.987 808.983 579.949C809.008 579.91 809.041 579.89 809.083 579.89C809.108 579.89 809.128 579.898 809.142 579.915C809.157 579.932 809.162 579.953 809.156 579.979L809.142 580.015ZM810.446 579.895C810.423 579.995 810.367 580.08 810.281 580.15C810.194 580.219 810.1 580.254 809.999 580.254H809.643C809.542 580.254 809.465 580.219 809.413 580.148C809.377 580.102 809.359 580.048 809.359 579.986C809.359 579.957 809.363 579.926 809.372 579.894L809.641 578.824C809.662 578.734 809.716 578.651 809.803 578.576C809.891 578.502 809.986 578.464 810.088 578.464H810.445C810.545 578.464 810.621 578.498 810.675 578.566C810.71 578.613 810.728 578.669 810.728 578.732C810.728 578.761 810.724 578.792 810.716 578.824L810.446 579.895ZM810.263 579.894L810.532 578.824C810.543 578.774 810.536 578.733 810.511 578.699C810.486 578.666 810.449 578.65 810.4 578.65H810.044C809.995 578.65 809.949 578.667 809.906 578.701C809.865 578.735 809.838 578.776 809.824 578.824L809.557 579.894C809.545 579.942 809.552 579.984 809.577 580.018C809.602 580.052 809.639 580.068 809.687 580.068H810.044C810.092 580.068 810.138 580.052 810.181 580.018C810.224 579.984 810.251 579.942 810.263 579.894ZM811.737 578.65H811.211L810.831 580.161C810.826 580.191 810.811 580.214 810.789 580.23C810.768 580.246 810.745 580.254 810.717 580.254C810.706 580.254 810.686 580.246 810.659 580.23C810.648 580.221 810.643 580.208 810.643 580.191C810.643 580.182 810.644 580.171 810.648 580.159L811.051 578.557C811.065 578.495 811.102 578.464 811.163 578.464H812.321C812.421 578.464 812.498 578.498 812.551 578.566C812.587 578.613 812.605 578.669 812.605 578.732C812.605 578.761 812.601 578.792 812.592 578.824L812.257 580.161C812.251 580.191 812.237 580.214 812.214 580.23C812.194 580.246 812.17 580.254 812.143 580.254C812.131 580.254 812.112 580.246 812.084 580.23C812.069 580.216 812.065 580.193 812.074 580.161L812.409 578.824C812.419 578.774 812.412 578.733 812.387 578.699C812.362 578.666 812.326 578.65 812.277 578.65H811.924L811.544 580.161C811.538 580.191 811.524 580.214 811.502 580.23C811.481 580.246 811.458 580.254 811.43 580.254C811.418 580.254 811.399 580.246 811.371 580.23C811.356 580.216 811.352 580.193 811.361 580.161L811.737 578.65ZM813.599 580.161C813.585 580.223 813.547 580.254 813.485 580.254H812.861C812.76 580.254 812.684 580.219 812.631 580.148C812.596 580.102 812.578 580.048 812.578 579.986C812.578 579.957 812.582 579.926 812.591 579.894L812.927 578.557C812.931 578.537 812.944 578.516 812.967 578.496C812.99 578.475 813.015 578.464 813.04 578.464C813.062 578.464 813.081 578.473 813.097 578.489C813.113 578.505 813.117 578.527 813.109 578.557L812.776 579.894C812.764 579.942 812.771 579.984 812.795 580.018C812.82 580.052 812.857 580.068 812.906 580.068H813.437L813.818 578.557C813.822 578.537 813.835 578.516 813.858 578.496C813.881 578.475 813.906 578.464 813.931 578.464C813.953 578.464 813.972 578.472 813.988 578.487C814 578.499 814.006 578.514 814.006 578.532C814.006 578.539 814.004 578.548 814.002 578.559L813.599 580.161ZM814.906 580.161C814.9 580.191 814.885 580.214 814.863 580.23C814.843 580.246 814.819 580.254 814.792 580.254C814.78 580.254 814.76 580.246 814.733 580.23C814.717 580.216 814.714 580.193 814.722 580.161L815.057 578.824C815.068 578.774 815.061 578.733 815.036 578.699C815.011 578.666 814.974 578.65 814.925 578.65H814.394L814.015 580.161C814.009 580.191 813.994 580.214 813.972 580.23C813.952 580.246 813.928 580.254 813.9 580.254C813.889 580.254 813.869 580.246 813.842 580.23C813.832 580.221 813.827 580.208 813.827 580.191C813.827 580.183 813.829 580.173 813.833 580.163L814.234 578.557C814.248 578.495 814.285 578.464 814.346 578.464H814.97C815.07 578.464 815.146 578.498 815.2 578.566C815.235 578.613 815.253 578.669 815.253 578.732C815.253 578.761 815.249 578.792 815.241 578.824L814.906 580.161Z" fill="black"/>
</g>
<path d="M715.5 532.5H835.5V531.5H715.5V532.5ZM835.5 588.5H715.5V589.5H835.5V588.5Z" fill="black" mask="url(#path-15-inside-1_4607_205366)"/>
</g>
<defs>
<clipPath id="clip0_4607_205366">
<rect width="841" height="594" fill="white"/>
</clipPath>
<clipPath id="clip1_4607_205366">
<rect x="648" y="532" width="67.5" height="57" fill="white"/>
</clipPath>
<clipPath id="clip2_4607_205366">
<path d="M715.5 532H835.5V589H715.5V532Z" fill="white"/>
</clipPath>
</defs>
</svg>
