<svg width="594" height="420" viewBox="0 0 594 420" fill="" xmlns="http://www.w3.org/2000/svg">
<g clip-path="url(#clip0_4639_115592)">
<rect width="594" height="420" fill="none"/>
<rect x="20.25" y="5.25" width="568.5" height="409.5" stroke="black" stroke-width="0.5"/>
<g clip-path="url(#clip1_4639_115592)" nameid="svgGLp">
<rect x="401" y="358" width="67.5" height="57" fill="black"/>
<rect width="7" height="5" transform="translate(401 358)" fill="white"/>
<rect width="10" height="5" transform="translate(408.5 358)" fill="white"/>
<rect width="11" height="5" transform="translate(419 358)" fill="white"/>
<rect width="12" height="5" transform="translate(430.5 358)" fill="white"/>
<rect width="15" height="5" transform="translate(443 358)" fill="white"/>
<rect width="10" height="5" transform="translate(458.5 358)" fill="white"/>
<rect width="7" height="5" transform="translate(401 363.2)" fill="white"/>
<rect width="10" height="5" transform="translate(408.5 363.2)" fill="white"/>
<rect width="11" height="5" transform="translate(419 363.2)" fill="white"/>
<rect width="12" height="5" transform="translate(430.5 363.2)" fill="white"/>
<rect width="15" height="5" transform="translate(443 363.2)" fill="white"/>
<rect width="10" height="5" transform="translate(458.5 363.2)" fill="white"/>
<rect width="7" height="5" transform="translate(401 368.4)" fill="white"/>
<rect width="10" height="5" transform="translate(408.5 368.4)" fill="white"/>
<rect width="11" height="5" transform="translate(419 368.4)" fill="white"/>
<rect width="12" height="5" transform="translate(430.5 368.4)" fill="white"/>
<rect width="15" height="5" transform="translate(443 368.4)" fill="white"/>
<rect width="10" height="5" transform="translate(458.5 368.4)" fill="white"/>
<rect width="7" height="5" transform="translate(401 373.6)" fill="white"/>
<rect width="10" height="5" transform="translate(408.5 373.6)" fill="white"/>
<rect width="11" height="5" transform="translate(419 373.6)" fill="white"/>
<rect width="12" height="5" transform="translate(430.5 373.6)" fill="white"/>
<rect width="15" height="5" transform="translate(443 373.6)" fill="white"/>
<rect width="10" height="5" transform="translate(458.5 373.6)" fill="white"/>
<rect width="7" height="5" transform="translate(401 378.8)" fill="white"/>
<path d="M403.374 381.695C403.368 381.723 403.354 381.746 403.331 381.763C403.311 381.778 403.287 381.786 403.26 381.786C403.248 381.786 403.229 381.779 403.201 381.764C403.186 381.749 403.182 381.725 403.191 381.693L403.665 379.799L402.283 381.732C402.251 381.776 402.216 381.798 402.178 381.798C402.156 381.798 402.137 381.789 402.123 381.77C402.117 381.759 402.114 381.746 402.114 381.73C402.114 381.719 402.116 381.706 402.119 381.693L402.7 379.374C402.704 379.355 402.717 379.336 402.74 379.316C402.763 379.294 402.788 379.283 402.813 379.283C402.835 379.283 402.854 379.292 402.87 379.308C402.886 379.324 402.891 379.346 402.882 379.376L402.408 381.271L403.789 379.337C403.821 379.293 403.856 379.271 403.895 379.271C403.914 379.271 403.931 379.281 403.946 379.3C403.955 379.314 403.959 379.33 403.959 379.348C403.959 379.357 403.957 379.367 403.955 379.378L403.374 381.695ZM404.689 380.911C404.751 380.98 404.768 381.068 404.741 381.176L404.675 381.444C404.65 381.541 404.591 381.626 404.497 381.698C404.465 381.722 404.418 381.748 404.358 381.775C404.296 381.794 404.246 381.804 404.206 381.804H403.939C403.867 381.804 403.805 381.782 403.754 381.739C403.704 381.697 403.672 381.635 403.657 381.554L403.663 381.522C403.669 381.499 403.682 381.479 403.704 381.461C403.726 381.442 403.751 381.433 403.779 381.433C403.82 381.433 403.843 381.453 403.846 381.493C403.849 381.523 403.862 381.554 403.887 381.586C403.912 381.608 403.944 381.618 403.984 381.618H404.251C404.3 381.618 404.349 381.601 404.399 381.567C404.448 381.531 404.478 381.49 404.49 381.444L404.556 381.176C404.566 381.131 404.556 381.091 404.525 381.055C404.496 381.019 404.456 381.002 404.406 381.002H404.228C404.199 381.002 404.178 380.993 404.165 380.975C404.155 380.956 404.153 380.933 404.16 380.907C404.161 380.894 404.173 380.876 404.194 380.852C404.215 380.828 404.241 380.816 404.272 380.816H404.451C404.499 380.816 404.549 380.799 404.598 380.765C404.647 380.729 404.677 380.688 404.689 380.642L404.757 380.374C404.768 380.329 404.758 380.289 404.727 380.253C404.697 380.217 404.657 380.2 404.607 380.2H404.429C404.394 380.2 404.357 380.211 404.319 380.233C404.282 380.255 404.253 380.284 404.231 380.321C404.227 380.329 404.211 380.345 404.185 380.369L404.173 380.374L404.133 380.383C404.107 380.383 404.086 380.375 404.071 380.358C404.056 380.342 404.051 380.32 404.058 380.294L404.071 380.26C404.116 380.186 404.175 380.127 404.247 380.082C404.32 380.037 404.395 380.014 404.474 380.014H404.652C404.753 380.014 404.833 380.05 404.893 380.121C404.933 380.172 404.953 380.23 404.953 380.294C404.953 380.319 404.95 380.346 404.942 380.374L404.875 380.642C404.86 380.702 404.838 380.753 404.807 380.795C404.783 380.835 404.744 380.874 404.689 380.911ZM406.074 381.713C406.068 381.741 406.054 381.764 406.031 381.78C406.011 381.796 405.987 381.804 405.96 381.804C405.948 381.804 405.929 381.796 405.901 381.78C405.886 381.766 405.882 381.743 405.891 381.711L406.213 380.413L405.714 380.962C405.683 380.997 405.653 381.014 405.623 381.014C405.595 381.014 405.573 380.996 405.557 380.961L405.331 380.413L405.005 381.711C404.999 381.741 404.985 381.764 404.962 381.78C404.942 381.796 404.918 381.804 404.891 381.804C404.879 381.804 404.859 381.796 404.832 381.78C404.822 381.771 404.818 381.758 404.818 381.741C404.818 381.733 404.819 381.723 404.823 381.711L405.222 380.107C405.228 380.081 405.242 380.059 405.265 380.041C405.288 380.022 405.312 380.012 405.338 380.012C405.35 380.012 405.362 380.016 405.376 380.023C405.39 380.027 405.4 380.038 405.406 380.057L405.691 380.741L406.32 380.055C406.347 380.025 406.377 380.011 406.409 380.011C406.422 380.011 406.438 380.02 406.457 380.037C406.472 380.05 406.479 380.067 406.479 380.087C406.479 380.093 406.478 380.1 406.477 380.109L406.074 381.713ZM406.448 381.618C406.471 381.618 406.49 381.628 406.505 381.648C406.515 381.662 406.52 381.676 406.52 381.693C406.52 381.7 406.519 381.707 406.518 381.713C406.513 381.734 406.5 381.755 406.479 381.775C406.459 381.794 406.434 381.804 406.404 381.804C406.375 381.804 406.354 381.795 406.34 381.779C406.333 381.766 406.329 381.751 406.329 381.736C406.329 381.728 406.33 381.719 406.333 381.709C406.336 381.696 406.349 381.678 406.37 381.654C406.391 381.63 406.418 381.618 406.448 381.618Z" fill="black"/>
<rect width="10" height="5" transform="translate(408.5 378.8)" fill="white"/>
<rect width="11" height="5" transform="translate(419 378.8)" fill="white"/>
<path d="M422.461 381.713C422.455 381.741 422.442 381.764 422.42 381.78C422.4 381.796 422.376 381.804 422.349 381.804C422.337 381.804 422.318 381.796 422.29 381.78C422.275 381.765 422.271 381.742 422.278 381.711L422.834 379.487H422.463L421.205 381.739C421.179 381.783 421.144 381.805 421.102 381.805C421.075 381.805 421.055 381.797 421.041 381.78C421.03 381.769 421.025 381.755 421.025 381.739C421.025 381.731 421.026 381.722 421.029 381.713L421.041 381.682L422.335 379.365C422.36 379.323 422.395 379.301 422.44 379.301H422.973C423.023 379.301 423.048 379.321 423.048 379.36C423.048 379.372 423.046 379.384 423.042 379.396L422.461 381.713ZM423.875 381.711C423.86 381.773 423.822 381.804 423.761 381.804H423.137C423.036 381.804 422.959 381.769 422.907 381.698C422.871 381.652 422.854 381.598 422.854 381.536C422.854 381.507 422.858 381.476 422.866 381.444L423.203 380.107C423.206 380.087 423.219 380.066 423.242 380.046C423.266 380.025 423.29 380.014 423.315 380.014C423.338 380.014 423.357 380.023 423.372 380.039C423.389 380.055 423.393 380.077 423.385 380.107L423.051 381.444C423.039 381.492 423.046 381.534 423.071 381.568C423.096 381.602 423.133 381.618 423.181 381.618H423.713L424.094 380.107C424.098 380.087 424.111 380.066 424.133 380.046C424.157 380.025 424.181 380.014 424.206 380.014C424.229 380.014 424.248 380.022 424.263 380.037C424.275 380.049 424.281 380.064 424.281 380.082C424.281 380.089 424.28 380.098 424.278 380.109L423.875 381.711ZM425.08 381.804H424.456C424.355 381.804 424.278 381.769 424.226 381.698C424.19 381.652 424.172 381.598 424.172 381.536C424.172 381.507 424.177 381.476 424.185 381.444L424.454 380.374C424.475 380.284 424.529 380.201 424.616 380.126C424.704 380.052 424.799 380.014 424.901 380.014H425.525C425.548 380.014 425.566 380.023 425.58 380.041C425.592 380.058 425.598 380.074 425.598 380.091C425.598 380.097 425.598 380.103 425.596 380.109C425.59 380.13 425.577 380.151 425.555 380.171C425.535 380.19 425.51 380.2 425.481 380.2H424.857C424.808 380.2 424.762 380.217 424.72 380.251C424.678 380.285 424.651 380.325 424.638 380.374L424.37 381.444C424.358 381.492 424.365 381.534 424.39 381.568C424.415 381.602 424.452 381.618 424.5 381.618H425.124C425.147 381.618 425.165 381.628 425.179 381.648C425.195 381.669 425.2 381.689 425.194 381.711C425.189 381.733 425.176 381.755 425.154 381.775C425.134 381.794 425.109 381.804 425.08 381.804ZM426.514 380.2H425.988L425.609 381.711C425.603 381.741 425.589 381.764 425.566 381.78C425.546 381.796 425.522 381.804 425.495 381.804C425.483 381.804 425.463 381.796 425.436 381.78C425.425 381.771 425.42 381.758 425.42 381.741C425.42 381.732 425.422 381.721 425.425 381.709L425.828 380.107C425.842 380.045 425.88 380.014 425.94 380.014H427.099C427.199 380.014 427.275 380.048 427.329 380.116C427.364 380.163 427.382 380.219 427.382 380.282C427.382 380.311 427.378 380.342 427.37 380.374L427.035 381.711C427.029 381.741 427.014 381.764 426.992 381.78C426.972 381.796 426.948 381.804 426.921 381.804C426.909 381.804 426.889 381.796 426.862 381.78C426.846 381.766 426.843 381.743 426.851 381.711L427.186 380.374C427.197 380.324 427.19 380.283 427.165 380.249C427.14 380.216 427.103 380.2 427.054 380.2H426.701L426.322 381.711C426.316 381.741 426.302 381.764 426.279 381.78C426.259 381.796 426.235 381.804 426.208 381.804C426.196 381.804 426.176 381.796 426.149 381.78C426.133 381.766 426.13 381.743 426.138 381.711L426.514 380.2Z" fill="black"/>
<rect width="12" height="5" transform="translate(430.5 378.8)" fill="white"/>
<path d="M435.104 380.196C435.077 380.31 435.018 380.4 434.927 380.465C434.845 380.526 434.756 380.556 434.658 380.556C434.561 380.556 434.485 380.527 434.432 380.469C434.374 380.401 434.359 380.31 434.389 380.196L434.523 379.66C434.55 379.548 434.609 379.459 434.699 379.394C434.784 379.333 434.874 379.303 434.97 379.303C435.068 379.303 435.143 379.332 435.197 379.39C435.235 379.434 435.254 379.489 435.254 379.554C435.254 379.586 435.248 379.622 435.238 379.66L435.104 380.196ZM433.838 381.713C433.834 381.728 433.818 381.75 433.792 381.779C433.77 381.795 433.746 381.804 433.723 381.804L433.678 381.793L433.651 381.75L433.243 379.815L432.767 381.711C432.761 381.741 432.747 381.764 432.725 381.78C432.704 381.796 432.681 381.804 432.653 381.804C432.641 381.804 432.622 381.796 432.594 381.78C432.584 381.771 432.578 381.758 432.578 381.741C432.578 381.732 432.58 381.721 432.584 381.709L433.165 379.392C433.168 379.373 433.181 379.354 433.204 379.333C433.228 379.312 433.252 379.301 433.277 379.301C433.291 379.301 433.306 379.305 433.32 379.314C433.334 379.321 433.344 379.335 433.348 379.357L433.756 381.29L434.234 379.394C434.238 379.374 434.251 379.354 434.273 379.333C434.297 379.312 434.321 379.301 434.346 379.301C434.369 379.301 434.388 379.31 434.403 379.326C434.42 379.342 434.424 379.365 434.416 379.396L433.838 381.713ZM434.922 380.196L435.056 379.66C435.068 379.607 435.06 379.566 435.034 379.535C435.008 379.503 434.972 379.487 434.926 379.487C434.876 379.487 434.831 379.502 434.792 379.533C434.749 379.56 434.72 379.603 434.705 379.66L434.571 380.196C434.559 380.251 434.566 380.294 434.592 380.326C434.618 380.356 434.655 380.371 434.703 380.371C434.737 380.371 434.781 380.357 434.833 380.33C434.877 380.296 434.907 380.252 434.922 380.196ZM437.071 380.2H436.544C436.495 380.2 436.449 380.217 436.405 380.251C436.362 380.286 436.334 380.327 436.321 380.374L436.054 381.444C436.043 381.493 436.05 381.535 436.075 381.568C436.1 381.602 436.138 381.618 436.187 381.618H436.54C436.589 381.618 436.635 381.601 436.678 381.567C436.72 381.532 436.748 381.491 436.761 381.444L437.071 380.2ZM437.118 380.014L437.209 379.66C437.219 379.611 437.212 379.57 437.187 379.537C437.162 379.503 437.125 379.487 437.075 379.487H436.453C436.424 379.487 436.403 379.478 436.389 379.46C436.378 379.441 436.376 379.419 436.383 379.394C436.387 379.38 436.399 379.361 436.419 379.337C436.441 379.313 436.467 379.301 436.498 379.301H437.12C437.219 379.301 437.295 379.337 437.348 379.408C437.384 379.457 437.403 379.512 437.403 379.574C437.403 379.601 437.399 379.63 437.392 379.66L436.945 381.444C436.921 381.542 436.866 381.627 436.779 381.698C436.694 381.769 436.599 381.804 436.496 381.804H436.143C436.043 381.804 435.966 381.768 435.913 381.697C435.876 381.648 435.858 381.593 435.858 381.533C435.858 381.504 435.862 381.474 435.87 381.444L436.139 380.372C436.163 380.273 436.218 380.188 436.305 380.119C436.392 380.049 436.486 380.014 436.588 380.014H437.118ZM438.292 381.445C438.268 381.545 438.213 381.63 438.126 381.7C438.04 381.769 437.946 381.804 437.845 381.804H437.488C437.387 381.804 437.311 381.769 437.259 381.698C437.223 381.652 437.205 381.598 437.205 381.536C437.205 381.507 437.209 381.476 437.218 381.444L437.487 380.374C437.508 380.284 437.562 380.201 437.649 380.126C437.737 380.052 437.832 380.014 437.934 380.014H438.29C438.39 380.014 438.467 380.048 438.52 380.116C438.556 380.163 438.574 380.219 438.574 380.282C438.574 380.311 438.57 380.342 438.561 380.374L438.292 381.445ZM438.109 381.444L438.378 380.374C438.388 380.324 438.381 380.283 438.356 380.249C438.331 380.216 438.295 380.2 438.246 380.2H437.889C437.841 380.2 437.795 380.217 437.752 380.251C437.711 380.285 437.683 380.325 437.67 380.374L437.403 381.444C437.391 381.492 437.398 381.534 437.423 381.568C437.447 381.602 437.484 381.618 437.533 381.618H437.889C437.938 381.618 437.984 381.602 438.027 381.568C438.069 381.534 438.097 381.492 438.109 381.444ZM439.228 380.781L439.567 381.661L439.568 381.713C439.564 381.735 439.549 381.757 439.524 381.777C439.499 381.795 439.474 381.804 439.451 381.804C439.435 381.804 439.422 381.801 439.411 381.795C439.402 381.788 439.394 381.776 439.387 381.761L439.066 380.921L438.823 381.133L438.677 381.711C438.671 381.741 438.657 381.764 438.634 381.78C438.614 381.796 438.59 381.804 438.563 381.804C438.551 381.804 438.532 381.796 438.504 381.78C438.494 381.771 438.488 381.758 438.488 381.741C438.488 381.732 438.49 381.721 438.494 381.709L438.896 380.105C438.9 380.086 438.913 380.066 438.936 380.046C438.959 380.025 438.984 380.014 439.009 380.014C439.031 380.014 439.05 380.023 439.066 380.039C439.082 380.055 439.087 380.077 439.078 380.107L438.891 380.854L439.825 380.052C439.851 380.029 439.877 380.018 439.902 380.018C439.924 380.018 439.944 380.027 439.96 380.046C439.97 380.062 439.975 380.077 439.975 380.093C439.975 380.1 439.974 380.107 439.973 380.116C439.967 380.138 439.953 380.159 439.93 380.176L439.228 380.781ZM439.928 381.618C439.951 381.618 439.97 381.628 439.985 381.648C439.995 381.662 440 381.676 440 381.693C440 381.7 439.999 381.707 439.998 381.713C439.993 381.734 439.98 381.755 439.959 381.775C439.938 381.794 439.913 381.804 439.884 381.804C439.855 381.804 439.834 381.795 439.82 381.779C439.812 381.766 439.809 381.751 439.809 381.736C439.809 381.728 439.81 381.719 439.812 381.709C439.816 381.696 439.829 381.678 439.85 381.654C439.871 381.63 439.897 381.618 439.928 381.618Z" fill="black"/>
<rect width="15" height="5" transform="translate(443 378.8)" fill="white"/>
<path d="M446.821 381.713C446.815 381.741 446.8 381.764 446.778 381.78C446.758 381.796 446.734 381.804 446.707 381.804C446.695 381.804 446.675 381.796 446.648 381.78C446.632 381.766 446.629 381.743 446.637 381.711L447.191 379.487H446.307L445.75 381.711C445.744 381.741 445.729 381.764 445.707 381.78C445.687 381.796 445.663 381.804 445.635 381.804C445.624 381.804 445.604 381.796 445.577 381.78C445.566 381.771 445.561 381.758 445.561 381.741C445.561 381.732 445.562 381.721 445.566 381.709L446.147 379.394C446.161 379.332 446.199 379.301 446.259 379.301H447.33C447.38 379.301 447.405 379.322 447.405 379.364C447.405 379.373 447.404 379.384 447.402 379.396L446.821 381.713ZM448.209 381.445C448.185 381.545 448.13 381.63 448.043 381.7C447.957 381.769 447.863 381.804 447.762 381.804H447.405C447.304 381.804 447.228 381.769 447.175 381.698C447.14 381.652 447.122 381.598 447.122 381.536C447.122 381.507 447.126 381.476 447.134 381.444L447.403 380.374C447.425 380.284 447.479 380.201 447.566 380.126C447.654 380.052 447.749 380.014 447.851 380.014H448.207C448.307 380.014 448.384 380.048 448.437 380.116C448.473 380.163 448.491 380.219 448.491 380.282C448.491 380.311 448.486 380.342 448.478 380.374L448.209 381.445ZM448.025 381.444L448.295 380.374C448.305 380.324 448.298 380.283 448.273 380.249C448.248 380.216 448.211 380.2 448.163 380.2H447.806C447.757 380.2 447.712 380.217 447.669 380.251C447.627 380.285 447.6 380.325 447.587 380.374L447.32 381.444C447.308 381.492 447.314 381.534 447.339 381.568C447.364 381.602 447.401 381.618 447.45 381.618H447.806C447.855 381.618 447.901 381.602 447.943 381.568C447.986 381.534 448.014 381.492 448.025 381.444ZM449.619 380.2H449.091C449.042 380.2 448.996 380.217 448.952 380.251C448.909 380.286 448.881 380.327 448.868 380.374L448.601 381.444C448.59 381.493 448.598 381.535 448.622 381.568C448.647 381.602 448.685 381.618 448.735 381.618H449.088C449.136 381.618 449.182 381.601 449.225 381.567C449.268 381.532 449.296 381.491 449.309 381.444L449.619 380.2ZM449.665 380.014L449.756 379.66C449.767 379.611 449.76 379.57 449.735 379.537C449.71 379.503 449.672 379.487 449.622 379.487H449C448.972 379.487 448.95 379.478 448.936 379.46C448.925 379.441 448.924 379.419 448.931 379.394C448.934 379.38 448.946 379.361 448.966 379.337C448.988 379.313 449.014 379.301 449.045 379.301H449.667C449.767 379.301 449.843 379.337 449.895 379.408C449.932 379.457 449.95 379.512 449.95 379.574C449.95 379.601 449.947 379.63 449.94 379.66L449.492 381.444C449.468 381.542 449.413 381.627 449.326 381.698C449.241 381.769 449.146 381.804 449.043 381.804H448.69C448.59 381.804 448.514 381.768 448.46 381.697C448.423 381.648 448.405 381.593 448.405 381.533C448.405 381.504 448.409 381.474 448.418 381.444L448.687 380.372C448.71 380.273 448.766 380.188 448.852 380.119C448.939 380.049 449.034 380.014 449.136 380.014H449.665ZM450.779 381.711C450.773 381.741 450.759 381.764 450.736 381.78C450.716 381.796 450.692 381.804 450.665 381.804C450.653 381.804 450.633 381.796 450.606 381.78C450.591 381.766 450.587 381.743 450.595 381.711L450.93 380.374C450.941 380.324 450.934 380.283 450.909 380.249C450.884 380.216 450.847 380.2 450.799 380.2H450.267L449.888 381.711C449.882 381.741 449.868 381.764 449.845 381.78C449.825 381.796 449.801 381.804 449.774 381.804C449.762 381.804 449.742 381.796 449.715 381.78C449.705 381.771 449.701 381.758 449.701 381.741C449.701 381.733 449.702 381.723 449.706 381.713L450.107 380.107C450.121 380.045 450.159 380.014 450.219 380.014H450.843C450.943 380.014 451.02 380.048 451.073 380.116C451.109 380.163 451.126 380.219 451.126 380.282C451.126 380.311 451.122 380.342 451.114 380.374L450.779 381.711ZM452.114 381.711C452.1 381.773 452.062 381.804 452 381.804H451.376C451.275 381.804 451.198 381.769 451.146 381.698C451.11 381.652 451.093 381.598 451.093 381.536C451.093 381.507 451.097 381.476 451.105 381.444L451.442 380.107C451.446 380.087 451.459 380.066 451.481 380.046C451.505 380.025 451.529 380.014 451.554 380.014C451.577 380.014 451.596 380.023 451.611 380.039C451.628 380.055 451.632 380.077 451.624 380.107L451.29 381.444C451.279 381.492 451.285 381.534 451.31 381.568C451.335 381.602 451.372 381.618 451.421 381.618H451.952L452.333 380.107C452.337 380.087 452.35 380.066 452.372 380.046C452.396 380.025 452.42 380.014 452.445 380.014C452.468 380.014 452.487 380.022 452.502 380.037C452.514 380.049 452.52 380.064 452.52 380.082C452.52 380.089 452.519 380.098 452.517 380.109L452.114 381.711ZM453.319 381.804H452.695C452.594 381.804 452.517 381.769 452.465 381.698C452.429 381.652 452.411 381.598 452.411 381.536C452.411 381.507 452.416 381.476 452.424 381.444L452.693 380.374C452.714 380.284 452.769 380.201 452.855 380.126C452.943 380.052 453.038 380.014 453.14 380.014H453.764C453.787 380.014 453.805 380.023 453.819 380.041C453.831 380.058 453.837 380.074 453.837 380.091C453.837 380.097 453.837 380.103 453.835 380.109C453.83 380.13 453.816 380.151 453.794 380.171C453.774 380.19 453.749 380.2 453.72 380.2H453.096C453.047 380.2 453.001 380.217 452.959 380.251C452.917 380.285 452.89 380.325 452.877 380.374L452.609 381.444C452.597 381.492 452.604 381.534 452.629 381.568C452.654 381.602 452.691 381.618 452.739 381.618H453.363C453.386 381.618 453.404 381.628 453.418 381.648C453.434 381.669 453.439 381.689 453.433 381.711C453.428 381.733 453.415 381.755 453.393 381.775C453.373 381.794 453.348 381.804 453.319 381.804ZM454.039 381.002L453.882 381.618H454.413C454.462 381.618 454.507 381.602 454.55 381.568C454.593 381.534 454.621 381.492 454.634 381.444L454.702 381.176C454.712 381.126 454.705 381.085 454.68 381.051C454.655 381.018 454.618 381.002 454.57 381.002H454.039ZM454.085 380.816H454.614C454.714 380.816 454.791 380.85 454.844 380.918C454.88 380.965 454.898 381.021 454.898 381.084C454.898 381.113 454.894 381.144 454.885 381.176L454.816 381.444C454.792 381.545 454.737 381.63 454.65 381.7C454.563 381.769 454.469 381.804 454.368 381.804H453.745C453.695 381.804 453.67 381.784 453.67 381.745C453.67 381.733 453.672 381.721 453.675 381.709L454.078 380.105C454.081 380.086 454.094 380.066 454.117 380.046C454.141 380.025 454.165 380.014 454.19 380.014C454.213 380.014 454.232 380.023 454.247 380.039C454.264 380.055 454.268 380.078 454.26 380.109L454.085 380.816Z" fill="black"/>
<rect width="10" height="5" transform="translate(458.5 378.8)" fill="white"/>
<path d="M461.328 381.618C461.391 381.618 461.414 381.649 461.397 381.711L461.354 381.886C461.35 381.908 461.335 381.929 461.31 381.95C461.286 381.97 461.263 381.98 461.24 381.98C461.218 381.98 461.198 381.972 461.182 381.955C461.166 381.938 461.163 381.915 461.171 381.884L461.189 381.804H460.127L460.107 381.886C460.102 381.908 460.087 381.929 460.062 381.95C460.039 381.97 460.015 381.98 459.993 381.98C459.971 381.98 459.952 381.972 459.936 381.955C459.925 381.942 459.92 381.928 459.92 381.912C459.92 381.903 459.921 381.894 459.923 381.886L459.968 381.711C459.982 381.649 460.02 381.618 460.08 381.618H460.171L460.904 379.383C460.91 379.358 460.923 379.338 460.945 379.323L460.97 379.308L461.018 379.3H461.732C461.782 379.3 461.807 379.319 461.807 379.358C461.807 379.37 461.805 379.382 461.802 379.394L461.248 381.618H461.328ZM460.36 381.618H461.059L461.593 379.485H461.059L460.36 381.618ZM462.572 381.444L462.882 380.2H462.353C462.304 380.2 462.258 380.217 462.215 380.251C462.174 380.285 462.146 380.325 462.133 380.374L461.866 381.444C461.854 381.492 461.861 381.534 461.886 381.568C461.911 381.602 461.947 381.618 461.996 381.618H462.353C462.401 381.618 462.447 381.602 462.49 381.568C462.533 381.534 462.56 381.492 462.572 381.444ZM462.828 381.625C462.871 381.641 462.887 381.669 462.877 381.711C462.869 381.739 462.855 381.763 462.834 381.78C462.814 381.799 462.79 381.809 462.762 381.809L462.732 381.802C462.707 381.795 462.682 381.779 462.657 381.754C462.648 381.747 462.63 381.725 462.604 381.688C462.516 381.765 462.417 381.804 462.308 381.804H461.952C461.851 381.804 461.774 381.769 461.722 381.698C461.686 381.652 461.668 381.598 461.668 381.536C461.668 381.507 461.672 381.476 461.681 381.444L461.95 380.374C461.971 380.284 462.025 380.201 462.112 380.126C462.2 380.052 462.295 380.014 462.397 380.014H463.021C463.071 380.014 463.096 380.035 463.096 380.077C463.096 380.086 463.095 380.097 463.092 380.109L462.757 381.444C462.75 381.479 462.751 381.516 462.761 381.554C462.773 381.58 462.795 381.604 462.828 381.625ZM464.081 380.2H463.556L463.176 381.711C463.17 381.741 463.156 381.764 463.133 381.78C463.113 381.796 463.089 381.804 463.062 381.804C463.05 381.804 463.03 381.796 463.003 381.78C462.992 381.771 462.987 381.758 462.987 381.741C462.987 381.732 462.989 381.721 462.992 381.709L463.395 380.107C463.409 380.045 463.447 380.014 463.507 380.014H464.666C464.766 380.014 464.842 380.048 464.896 380.116C464.931 380.163 464.949 380.219 464.949 380.282C464.949 380.311 464.945 380.342 464.937 380.374L464.602 381.711C464.596 381.741 464.582 381.764 464.559 381.78C464.539 381.796 464.515 381.804 464.488 381.804C464.476 381.804 464.456 381.796 464.429 381.78C464.413 381.766 464.41 381.743 464.418 381.711L464.753 380.374C464.764 380.324 464.757 380.283 464.732 380.249C464.707 380.216 464.67 380.2 464.621 380.2H464.268L463.889 381.711C463.883 381.741 463.869 381.764 463.846 381.78C463.826 381.796 463.802 381.804 463.775 381.804C463.763 381.804 463.743 381.796 463.716 381.78C463.7 381.766 463.697 381.743 463.705 381.711L464.081 380.2ZM465.79 381.444L466.101 380.2H465.571C465.523 380.2 465.477 380.217 465.434 380.251C465.392 380.285 465.365 380.325 465.352 380.374L465.085 381.444C465.073 381.492 465.079 381.534 465.104 381.568C465.129 381.602 465.166 381.618 465.215 381.618H465.571C465.62 381.618 465.666 381.602 465.708 381.568C465.751 381.534 465.779 381.492 465.79 381.444ZM466.047 381.625C466.09 381.641 466.106 381.669 466.095 381.711C466.088 381.739 466.074 381.763 466.052 381.78C466.032 381.799 466.008 381.809 465.981 381.809L465.951 381.802C465.926 381.795 465.901 381.779 465.876 381.754C465.866 381.747 465.849 381.725 465.823 381.688C465.735 381.765 465.636 381.804 465.527 381.804H465.17C465.069 381.804 464.993 381.769 464.94 381.698C464.905 381.652 464.887 381.598 464.887 381.536C464.887 381.507 464.891 381.476 464.899 381.444L465.168 380.374C465.19 380.284 465.244 380.201 465.331 380.126C465.419 380.052 465.514 380.014 465.616 380.014H466.24C466.289 380.014 466.314 380.035 466.314 380.077C466.314 380.086 466.313 380.097 466.311 380.109L465.976 381.444C465.969 381.479 465.97 381.516 465.979 381.554C465.991 381.58 466.014 381.604 466.047 381.625Z" fill="black"/>
<rect width="17.5" height="5" transform="translate(401 384)" fill="white"/>
<rect width="23.5" height="5" transform="translate(419 384)" fill="white"/>
<rect width="15" height="5" transform="translate(443 384)" fill="white"/>
<rect width="10" height="5" transform="translate(458.5 384)" fill="white"/>
<path d="" fill="black"/>
<rect width="17.5" height="5" transform="translate(401 389.2)" fill="white"/>
<path d="M403.292 390.947H403.821C403.917 390.947 404.009 390.914 404.096 390.847C404.184 390.78 404.241 390.696 404.267 390.596L404.356 390.24C404.378 390.142 404.364 390.059 404.311 389.99C404.26 389.921 404.186 389.887 404.088 389.887H403.557L403.292 390.947ZM403.245 391.132L403 392.111C402.994 392.141 402.979 392.164 402.957 392.18C402.937 392.196 402.913 392.204 402.885 392.204C402.874 392.204 402.854 392.196 402.827 392.18C402.816 392.171 402.811 392.158 402.811 392.141C402.811 392.132 402.812 392.121 402.816 392.109L403.397 389.794C403.411 389.732 403.449 389.701 403.509 389.701H404.133C404.28 389.701 404.394 389.754 404.475 389.858C404.53 389.929 404.557 390.012 404.557 390.106C404.557 390.147 404.551 390.193 404.538 390.241L404.448 390.596C404.413 390.743 404.329 390.87 404.197 390.976C404.066 391.08 403.926 391.132 403.777 391.132H403.245ZM405.229 391.844L405.539 390.6H405.01C404.961 390.6 404.915 390.617 404.873 390.651C404.831 390.685 404.804 390.726 404.791 390.774L404.523 391.844C404.511 391.892 404.518 391.934 404.543 391.968C404.568 392.002 404.605 392.018 404.653 392.018H405.01C405.059 392.018 405.104 392.002 405.147 391.968C405.19 391.934 405.217 391.892 405.229 391.844ZM405.486 392.025C405.528 392.041 405.545 392.069 405.534 392.111C405.527 392.139 405.512 392.163 405.491 392.18C405.471 392.199 405.447 392.209 405.42 392.209L405.389 392.202C405.365 392.195 405.34 392.179 405.315 392.154C405.305 392.147 405.287 392.125 405.261 392.088C405.173 392.165 405.075 392.204 404.965 392.204H404.609C404.508 392.204 404.431 392.169 404.379 392.098C404.343 392.052 404.325 391.998 404.325 391.936C404.325 391.907 404.33 391.876 404.338 391.844L404.607 390.774C404.628 390.684 404.683 390.601 404.769 390.527C404.857 390.452 404.952 390.414 405.054 390.414H405.678C405.728 390.414 405.753 390.435 405.753 390.477C405.753 390.486 405.752 390.497 405.749 390.509L405.414 391.844C405.407 391.879 405.408 391.916 405.418 391.954C405.43 391.98 405.452 392.004 405.486 392.025ZM406.669 391.311C406.731 391.38 406.748 391.468 406.721 391.576L406.655 391.844C406.63 391.941 406.57 392.026 406.477 392.098C406.445 392.122 406.398 392.148 406.338 392.175C406.276 392.194 406.225 392.204 406.186 392.204H405.919C405.846 392.204 405.785 392.182 405.733 392.139C405.684 392.097 405.651 392.035 405.637 391.954L405.643 391.922C405.648 391.899 405.662 391.879 405.684 391.861C405.706 391.842 405.731 391.833 405.758 391.833C405.8 391.833 405.823 391.853 405.826 391.893C405.828 391.923 405.842 391.954 405.867 391.986C405.892 392.008 405.924 392.018 405.963 392.018H406.231C406.279 392.018 406.329 392.001 406.379 391.967C406.427 391.931 406.458 391.89 406.47 391.844L406.535 391.576C406.546 391.531 406.536 391.491 406.505 391.455C406.475 391.419 406.436 391.402 406.386 391.402H406.208C406.179 391.402 406.158 391.393 406.145 391.375C406.134 391.356 406.133 391.333 406.14 391.307C406.141 391.294 406.152 391.276 406.174 391.252C406.195 391.228 406.221 391.216 406.252 391.216H406.43C406.479 391.216 406.528 391.199 406.578 391.165C406.627 391.129 406.657 391.088 406.669 391.042L406.737 390.774C406.748 390.729 406.737 390.689 406.707 390.653C406.677 390.617 406.637 390.6 406.587 390.6H406.409C406.373 390.6 406.336 390.611 406.298 390.633C406.262 390.655 406.232 390.684 406.211 390.721C406.206 390.729 406.191 390.745 406.165 390.769L406.152 390.774L406.113 390.783C406.087 390.783 406.066 390.775 406.051 390.758C406.035 390.742 406.031 390.72 406.038 390.694L406.051 390.66C406.096 390.587 406.155 390.527 406.227 390.482C406.3 390.437 406.375 390.414 406.453 390.414H406.632C406.733 390.414 406.813 390.45 406.872 390.521C406.913 390.572 406.933 390.63 406.933 390.694C406.933 390.719 406.929 390.746 406.922 390.774L406.854 391.042C406.84 391.102 406.818 391.153 406.787 391.195C406.763 391.235 406.724 391.274 406.669 391.311ZM407.043 392.02H407.574C407.62 392.02 407.664 392.003 407.708 391.968C407.752 391.933 407.781 391.891 407.794 391.844L408.063 390.772C408.074 390.724 408.066 390.683 408.041 390.649C408.016 390.616 407.98 390.6 407.933 390.6H407.4L407.043 392.02ZM406.997 392.205L406.842 392.822C406.837 392.845 406.823 392.866 406.799 392.886C406.774 392.906 406.751 392.916 406.728 392.916C406.707 392.916 406.688 392.908 406.671 392.892C406.66 392.878 406.655 392.864 406.655 392.849C406.655 392.839 406.656 392.83 406.658 392.822L407.236 390.509C407.251 390.446 407.29 390.414 407.352 390.414H407.977C408.075 390.414 408.151 390.448 408.205 390.516C408.241 390.565 408.259 390.62 408.259 390.682C408.259 390.71 408.255 390.74 408.246 390.772L407.977 391.844C407.954 391.943 407.898 392.029 407.812 392.1C407.725 392.17 407.631 392.205 407.53 392.205H406.997ZM409.064 391.844L409.375 390.6H408.845C408.797 390.6 408.751 390.617 408.708 390.651C408.666 390.685 408.639 390.726 408.626 390.774L408.359 391.844C408.347 391.892 408.353 391.934 408.378 391.968C408.403 392.002 408.44 392.018 408.489 392.018H408.845C408.894 392.018 408.94 392.002 408.982 391.968C409.025 391.934 409.053 391.892 409.064 391.844ZM409.321 392.025C409.364 392.041 409.38 392.069 409.369 392.111C409.362 392.139 409.348 392.163 409.326 392.18C409.306 392.199 409.282 392.209 409.255 392.209L409.225 392.202C409.2 392.195 409.175 392.179 409.15 392.154C409.14 392.147 409.123 392.125 409.097 392.088C409.009 392.165 408.91 392.204 408.801 392.204H408.444C408.343 392.204 408.267 392.169 408.214 392.098C408.179 392.052 408.161 391.998 408.161 391.936C408.161 391.907 408.165 391.876 408.173 391.844L408.442 390.774C408.464 390.684 408.518 390.601 408.605 390.527C408.693 390.452 408.788 390.414 408.89 390.414H409.514C409.563 390.414 409.588 390.435 409.588 390.477C409.588 390.486 409.587 390.497 409.585 390.509L409.25 391.844C409.243 391.879 409.244 391.916 409.253 391.954C409.265 391.98 409.288 392.004 409.321 392.025ZM410.472 391.844L410.74 390.774C410.752 390.726 410.745 390.685 410.72 390.651C410.695 390.617 410.658 390.6 410.608 390.6H410.255C410.206 390.6 410.16 390.617 410.116 390.651C410.073 390.686 410.045 390.727 410.032 390.774L409.765 391.844C409.754 391.893 409.761 391.935 409.786 391.968C409.811 392.002 409.849 392.018 409.899 392.018H410.251C410.3 392.018 410.346 392.001 410.389 391.967C410.431 391.932 410.459 391.891 410.472 391.844ZM410.879 390.514L410.882 390.521L410.886 390.525C410.936 390.594 410.948 390.677 410.923 390.774L410.656 391.844C410.632 391.942 410.577 392.027 410.49 392.098C410.405 392.169 410.31 392.204 410.207 392.204H409.854C409.754 392.204 409.678 392.168 409.624 392.097C409.587 392.048 409.569 391.993 409.569 391.933C409.569 391.904 409.573 391.874 409.581 391.844L409.85 390.772C409.874 390.673 409.929 390.588 410.016 390.519C410.103 390.449 410.197 390.414 410.3 390.414H410.535L410.103 389.86L410.084 389.823C410.08 389.808 410.08 389.794 410.084 389.78C410.091 389.757 410.105 389.739 410.127 389.724C410.149 389.709 410.177 389.701 410.209 389.701H411.1C411.122 389.701 411.141 389.711 411.157 389.732C411.166 389.745 411.171 389.76 411.171 389.776C411.171 389.783 411.17 389.79 411.169 389.796C411.164 389.817 411.151 389.838 411.13 389.858C411.11 389.877 411.085 389.887 411.055 389.887H410.39L410.879 390.514ZM411.985 391.845C411.962 391.945 411.906 392.03 411.82 392.1C411.733 392.169 411.639 392.204 411.538 392.204H411.182C411.081 392.204 411.004 392.169 410.952 392.098C410.916 392.052 410.898 391.998 410.898 391.936C410.898 391.907 410.902 391.876 410.911 391.844L411.18 390.774C411.201 390.684 411.255 390.601 411.342 390.527C411.43 390.452 411.525 390.414 411.627 390.414H411.984C412.084 390.414 412.16 390.448 412.214 390.516C412.249 390.563 412.267 390.619 412.267 390.682C412.267 390.711 412.263 390.742 412.255 390.774L411.985 391.845ZM411.802 391.844L412.071 390.774C412.082 390.724 412.075 390.683 412.05 390.649C412.025 390.616 411.988 390.6 411.939 390.6H411.583C411.534 390.6 411.488 390.617 411.445 390.651C411.404 390.685 411.377 390.726 411.364 390.774L411.096 391.844C411.084 391.892 411.091 391.934 411.116 391.968C411.141 392.002 411.178 392.018 411.226 392.018H411.583C411.631 392.018 411.677 392.002 411.72 391.968C411.763 391.934 411.79 391.892 411.802 391.844ZM413.276 390.6H412.75L412.37 392.111C412.365 392.141 412.35 392.164 412.328 392.18C412.307 392.196 412.284 392.204 412.256 392.204C412.245 392.204 412.225 392.196 412.198 392.18C412.187 392.171 412.182 392.158 412.182 392.141C412.182 392.132 412.183 392.121 412.187 392.109L412.59 390.507C412.604 390.445 412.641 390.414 412.702 390.414H413.86C413.96 390.414 414.037 390.448 414.09 390.516C414.126 390.563 414.144 390.619 414.144 390.682C414.144 390.711 414.14 390.742 414.131 390.774L413.796 392.111C413.79 392.141 413.776 392.164 413.753 392.18C413.733 392.196 413.71 392.204 413.682 392.204C413.67 392.204 413.651 392.196 413.623 392.18C413.608 392.166 413.604 392.143 413.613 392.111L413.948 390.774C413.958 390.724 413.951 390.683 413.926 390.649C413.901 390.616 413.865 390.6 413.816 390.6H413.463L413.083 392.111C413.077 392.141 413.063 392.164 413.041 392.18C413.02 392.196 412.997 392.204 412.969 392.204C412.957 392.204 412.938 392.196 412.91 392.18C412.895 392.166 412.891 392.143 412.9 392.111L413.276 390.6ZM414.985 391.844L415.295 390.6H414.766C414.717 390.6 414.671 390.617 414.629 390.651C414.587 390.685 414.56 390.726 414.547 390.774L414.279 391.844C414.267 391.892 414.274 391.934 414.299 391.968C414.324 392.002 414.361 392.018 414.409 392.018H414.766C414.814 392.018 414.86 392.002 414.903 391.968C414.946 391.934 414.973 391.892 414.985 391.844ZM415.242 392.025C415.284 392.041 415.3 392.069 415.29 392.111C415.283 392.139 415.268 392.163 415.247 392.18C415.227 392.199 415.203 392.209 415.176 392.209L415.145 392.202C415.12 392.195 415.095 392.179 415.071 392.154C415.061 392.147 415.043 392.125 415.017 392.088C414.929 392.165 414.831 392.204 414.721 392.204H414.365C414.264 392.204 414.187 392.169 414.135 392.098C414.099 392.052 414.081 391.998 414.081 391.936C414.081 391.907 414.086 391.876 414.094 391.844L414.363 390.774C414.384 390.684 414.438 390.601 414.525 390.527C414.613 390.452 414.708 390.414 414.81 390.414H415.434C415.484 390.414 415.509 390.435 415.509 390.477C415.509 390.486 415.508 390.497 415.505 390.509L415.17 391.844C415.163 391.879 415.164 391.916 415.174 391.954C415.186 391.98 415.208 392.004 415.242 392.025ZM416.461 392.113C416.455 392.141 416.44 392.164 416.418 392.18C416.398 392.196 416.374 392.204 416.347 392.204C416.335 392.204 416.315 392.196 416.288 392.18C416.272 392.166 416.269 392.143 416.277 392.111L416.653 390.6H416.286L415.564 392.132C415.54 392.18 415.505 392.204 415.459 392.204C415.434 392.204 415.415 392.195 415.4 392.177C415.388 392.166 415.382 392.153 415.382 392.138C415.382 392.129 415.384 392.121 415.388 392.113L415.395 392.09L416.151 390.486C416.172 390.438 416.208 390.414 416.257 390.414H416.792C416.842 390.414 416.867 390.435 416.867 390.477C416.867 390.486 416.866 390.497 416.863 390.509L416.461 392.113Z" fill="black"/>
<rect width="23.5" height="5" transform="translate(419 389.2)" fill="white"/>
<path d="" fill="black"/>
<rect width="15" height="5" transform="translate(443 389.2)" fill="white"/>
<rect width="10" height="5" transform="translate(458.5 389.2)" fill="white"/>
<path d="" fill="black"/>
<rect width="17.5" height="5" transform="translate(401 394.4)" fill="white"/>
<path d="M405.11 396.332H404.579C404.443 396.332 404.329 396.281 404.237 396.177C404.2 396.124 404.175 396.066 404.162 396.003L404.158 395.908L404.163 395.851L404.174 395.794L404.376 394.994C404.379 394.974 404.393 394.954 404.417 394.933C404.44 394.912 404.465 394.901 404.49 394.901C404.512 394.901 404.531 394.91 404.547 394.926C404.562 394.943 404.566 394.966 404.559 394.994L404.358 395.796C404.335 395.895 404.349 395.978 404.399 396.046C404.45 396.113 404.525 396.147 404.623 396.147H405.156L405.447 394.994C405.45 394.974 405.464 394.954 405.488 394.933C405.511 394.912 405.536 394.901 405.561 394.901C405.583 394.901 405.602 394.91 405.618 394.926C405.628 394.937 405.634 394.951 405.634 394.969C405.634 394.976 405.633 394.985 405.63 394.994L405.162 396.865C405.126 397.013 405.042 397.139 404.91 397.245C404.78 397.351 404.639 397.404 404.49 397.404H404.044C404.016 397.404 403.994 397.395 403.98 397.379C403.973 397.366 403.969 397.351 403.969 397.336C403.969 397.328 403.97 397.319 403.973 397.309C403.976 397.296 403.989 397.278 404.01 397.254C404.032 397.23 404.058 397.218 404.089 397.218H404.534C404.629 397.218 404.72 397.185 404.807 397.118C404.895 397.051 404.952 396.966 404.98 396.865L405.11 396.332ZM406.448 395.8H405.923L405.543 397.311C405.537 397.341 405.523 397.364 405.5 397.38C405.48 397.396 405.456 397.404 405.429 397.404C405.417 397.404 405.397 397.396 405.37 397.38C405.359 397.371 405.354 397.358 405.354 397.341C405.354 397.332 405.356 397.321 405.359 397.309L405.762 395.707C405.776 395.645 405.814 395.614 405.874 395.614H407.033C407.133 395.614 407.209 395.648 407.263 395.716C407.298 395.763 407.316 395.819 407.316 395.882C407.316 395.911 407.312 395.942 407.304 395.974L406.969 397.311C406.963 397.341 406.949 397.364 406.926 397.38C406.906 397.396 406.882 397.404 406.855 397.404C406.843 397.404 406.823 397.396 406.796 397.38C406.78 397.366 406.777 397.343 406.785 397.311L407.12 395.974C407.131 395.924 407.124 395.883 407.099 395.849C407.074 395.816 407.037 395.8 406.988 395.8H406.635L406.256 397.311C406.25 397.341 406.236 397.364 406.213 397.38C406.193 397.396 406.169 397.404 406.142 397.404C406.13 397.404 406.11 397.396 406.083 397.38C406.067 397.366 406.064 397.343 406.072 397.311L406.448 395.8ZM407.863 395.609L408.017 395.52C408.059 395.494 408.121 395.45 408.202 395.39L408.227 395.368L408.268 395.32C408.285 395.304 408.295 395.283 408.3 395.258C408.312 395.207 408.305 395.166 408.279 395.135C408.254 395.103 408.217 395.087 408.17 395.087C408.121 395.087 408.075 395.102 408.033 395.133C407.992 395.162 407.964 395.204 407.949 395.26L407.863 395.609ZM408.211 397.044L408.478 395.974C408.49 395.926 408.484 395.885 408.459 395.851C408.434 395.817 408.396 395.8 408.346 395.8H407.993C407.945 395.8 407.898 395.817 407.854 395.851C407.812 395.886 407.784 395.927 407.771 395.974L407.503 397.044C407.493 397.093 407.5 397.135 407.525 397.168C407.55 397.202 407.587 397.218 407.637 397.218H407.99C408.039 397.218 408.084 397.201 408.127 397.167C408.17 397.132 408.198 397.091 408.211 397.044ZM408.191 395.614H408.391C408.492 395.614 408.569 395.648 408.623 395.716C408.658 395.763 408.676 395.819 408.676 395.882C408.676 395.911 408.672 395.942 408.664 395.974L408.394 397.044C408.371 397.142 408.315 397.227 408.229 397.298C408.143 397.369 408.049 397.404 407.945 397.404H407.592C407.493 397.404 407.416 397.368 407.363 397.297C407.326 397.248 407.307 397.193 407.307 397.133C407.307 397.104 407.311 397.074 407.32 397.044L407.589 395.974L407.767 395.26C407.793 395.148 407.852 395.059 407.944 394.994C408.027 394.933 408.116 394.903 408.213 394.903C408.31 394.903 408.386 394.933 408.439 394.992C408.497 395.056 408.512 395.146 408.484 395.26L408.466 395.326L408.444 395.37C408.424 395.407 408.392 395.445 408.346 395.484L408.191 395.614ZM408.951 396.416H409.655L409.767 395.974C409.777 395.924 409.77 395.883 409.745 395.849C409.72 395.816 409.684 395.8 409.635 395.8H409.278C409.23 395.8 409.184 395.817 409.141 395.851C409.1 395.885 409.072 395.926 409.059 395.974L408.951 396.416ZM408.904 396.602L408.79 397.044C408.779 397.093 408.787 397.135 408.812 397.168C408.836 397.202 408.873 397.218 408.922 397.218H409.546C409.568 397.218 409.587 397.228 409.601 397.249C409.616 397.269 409.621 397.29 409.615 397.311C409.611 397.333 409.597 397.355 409.576 397.375C409.556 397.394 409.531 397.404 409.501 397.404H408.877C408.776 397.404 408.7 397.369 408.648 397.298C408.612 397.252 408.594 397.198 408.594 397.136C408.594 397.107 408.598 397.076 408.607 397.044L408.876 395.974C408.897 395.884 408.951 395.801 409.038 395.727C409.126 395.652 409.221 395.614 409.323 395.614H409.679C409.779 395.614 409.856 395.648 409.909 395.716C409.945 395.763 409.963 395.819 409.963 395.882C409.963 395.911 409.959 395.942 409.95 395.974L409.815 396.509C409.801 396.571 409.763 396.602 409.703 396.602H408.904ZM410.082 397.22H410.613C410.659 397.22 410.703 397.203 410.747 397.168C410.791 397.133 410.819 397.091 410.833 397.044L411.102 395.972C411.112 395.924 411.105 395.883 411.08 395.849C411.055 395.816 411.019 395.8 410.972 395.8H410.439L410.082 397.22ZM410.036 397.405L409.881 398.022C409.876 398.045 409.862 398.066 409.838 398.086C409.813 398.106 409.789 398.116 409.767 398.116C409.745 398.116 409.726 398.108 409.71 398.092C409.699 398.078 409.694 398.064 409.694 398.049C409.694 398.039 409.695 398.03 409.697 398.022L410.275 395.709C410.29 395.646 410.329 395.614 410.391 395.614H411.016C411.114 395.614 411.19 395.648 411.244 395.716C411.28 395.765 411.298 395.82 411.298 395.882C411.298 395.91 411.294 395.94 411.285 395.972L411.016 397.044C410.992 397.143 410.937 397.229 410.85 397.3C410.764 397.37 410.67 397.405 410.569 397.405H410.036ZM412.449 395.8H411.922C411.873 395.8 411.826 395.817 411.782 395.851C411.74 395.886 411.712 395.927 411.699 395.974L411.431 397.044C411.421 397.093 411.428 397.135 411.453 397.168C411.478 397.202 411.515 397.218 411.565 397.218H411.918C411.967 397.218 412.012 397.201 412.055 397.167C412.098 397.132 412.126 397.091 412.139 397.044L412.449 395.8ZM412.495 395.614L412.586 395.26C412.597 395.211 412.59 395.17 412.565 395.137C412.54 395.103 412.503 395.087 412.453 395.087H411.831C411.802 395.087 411.781 395.078 411.766 395.06C411.756 395.041 411.754 395.019 411.761 394.994C411.765 394.98 411.777 394.961 411.797 394.937C411.818 394.913 411.844 394.901 411.875 394.901H412.497C412.597 394.901 412.673 394.937 412.725 395.008C412.762 395.057 412.781 395.112 412.781 395.174C412.781 395.201 412.777 395.23 412.77 395.26L412.323 397.044C412.299 397.142 412.243 397.227 412.157 397.298C412.071 397.369 411.977 397.404 411.873 397.404H411.521C411.421 397.404 411.344 397.368 411.291 397.297C411.254 397.248 411.235 397.193 411.235 397.133C411.235 397.104 411.24 397.074 411.248 397.044L411.517 395.972C411.541 395.873 411.596 395.788 411.683 395.719C411.769 395.649 411.864 395.614 411.966 395.614H412.495ZM413.64 397.311C413.625 397.373 413.587 397.404 413.526 397.404H412.902C412.801 397.404 412.724 397.369 412.672 397.298C412.636 397.252 412.618 397.198 412.618 397.136C412.618 397.107 412.623 397.076 412.631 397.044L412.968 395.707C412.971 395.687 412.984 395.667 413.007 395.646C413.031 395.625 413.055 395.614 413.08 395.614C413.103 395.614 413.122 395.623 413.137 395.639C413.154 395.655 413.158 395.677 413.149 395.707L412.816 397.044C412.804 397.092 412.811 397.134 412.836 397.168C412.861 397.202 412.898 397.218 412.946 397.218H413.477L413.859 395.707C413.862 395.687 413.875 395.667 413.898 395.646C413.922 395.625 413.946 395.614 413.971 395.614C413.994 395.614 414.013 395.622 414.028 395.637C414.04 395.649 414.046 395.664 414.046 395.682C414.046 395.689 414.045 395.698 414.042 395.709L413.64 397.311ZM414.891 397.313C414.885 397.341 414.871 397.364 414.848 397.38C414.828 397.396 414.804 397.404 414.777 397.404C414.765 397.404 414.745 397.396 414.718 397.38C414.702 397.366 414.699 397.343 414.707 397.311L415.083 395.8H414.716L413.994 397.332C413.97 397.38 413.935 397.404 413.889 397.404C413.864 397.404 413.845 397.395 413.83 397.377C413.818 397.366 413.812 397.353 413.812 397.338C413.812 397.329 413.814 397.321 413.818 397.313L413.825 397.29L414.581 395.686C414.602 395.638 414.638 395.614 414.688 395.614H415.222C415.272 395.614 415.297 395.635 415.297 395.677C415.297 395.686 415.296 395.697 415.293 395.709L414.891 397.313Z" fill="black"/>
<rect width="23.5" height="5" transform="translate(419 394.4)" fill="white"/>
<rect width="15" height="5" transform="translate(443 394.4)" fill="white"/>
<rect width="10" height="5" transform="translate(458.5 394.4)" fill="white"/>
<rect width="17.5" height="5" transform="translate(401 399.6)" fill="white"/>
<rect width="23.5" height="5" transform="translate(419 399.6)" fill="white"/>
<rect width="15" height="5" transform="translate(443 399.6)" fill="white"/>
<rect width="10" height="5" transform="translate(458.5 399.6)" fill="white"/>
<rect width="7" height="5" transform="translate(401 404.8)" fill="white"/>
<rect width="17.5" height="5" transform="translate(395.75 404.8)" fill="white"/>
<rect width="10" height="5" transform="translate(408.5 404.8)" fill="white"/>
<rect width="23.5" height="5" transform="translate(419 404.8)" fill="white"/>
<rect width="15" height="5" transform="translate(443 404.8)" fill="white"/>
<rect width="10" height="5" transform="translate(458.5 404.8)" fill="white"/>
<rect width="7" height="5" transform="translate(401 410)" fill="white"/>
<rect width="17.5" height="5" transform="translate(395.75 410)" fill="white"/>
<rect width="10" height="5" transform="translate(408.5 410)" fill="white"/>
<rect width="23.5" height="5" transform="translate(419 410)" fill="white"/>
<rect width="15" height="5" transform="translate(443 410)" fill="white"/>
<rect width="10" height="5" transform="translate(458.5 410)" fill="white"/>
</g>
<rect x="401.25" y="358.25" width="67" height="56.5" stroke="black" stroke-width="0.5"/>
<g clip-path="url(#clip2_4639_115592)" nameid="svgGRp">
<mask id="path-14-inside-1_4639_115592" fill="white">
<path d="M468.5 358H588.5V415H468.5V358Z"/>
</mask>
<path d="M468.5 358H588.5V415H468.5V358Z" fill="black"/>
<rect width="120" height="10.5" transform="translate(468.5 358)" fill="white" nameid="sheetRp_1"/>
<path d="" fill="black"/>
<rect width="120" height="10.5" transform="translate(468.5 369)" fill="white" nameid="sheetRp_2"/>
<path d="" fill="black"/>
<rect width="69.5" height="16" transform="translate(468.5 380)" fill="white" nameid="sheetRp_3"/>
<path d="" fill="black"/>
<rect width="16.3333" height="9" transform="translate(538.5 380)" fill="white"/>
<path d="M543.179 385.004H542.735C542.595 385.004 542.483 384.951 542.398 384.845C542.34 384.772 542.311 384.689 542.311 384.595C542.311 384.554 542.317 384.51 542.329 384.465L542.687 383.038C542.721 382.895 542.804 382.77 542.935 382.664C543.065 382.555 543.207 382.501 543.359 382.501H543.803C543.825 382.501 543.844 382.51 543.858 382.528C543.87 382.545 543.876 382.561 543.876 382.578C543.876 382.584 543.875 382.59 543.874 382.596C543.868 382.617 543.854 382.638 543.833 382.658C543.813 382.677 543.788 382.687 543.758 382.687H543.314C543.217 382.687 543.125 382.721 543.038 382.788C542.952 382.856 542.896 382.94 542.869 383.04L542.512 384.465C542.49 384.563 542.504 384.646 542.555 384.715C542.607 384.784 542.682 384.818 542.78 384.818H543.223C543.246 384.818 543.264 384.828 543.279 384.849C543.294 384.869 543.299 384.89 543.293 384.911C543.288 384.933 543.275 384.955 543.254 384.975C543.233 384.994 543.209 385.004 543.179 385.004ZM544.587 383.4H544.061L543.681 384.911C543.675 384.941 543.661 384.964 543.639 384.98C543.618 384.996 543.595 385.004 543.567 385.004C543.555 385.004 543.536 384.996 543.509 384.98C543.498 384.971 543.492 384.958 543.492 384.941C543.492 384.932 543.494 384.921 543.498 384.909L543.901 383.307C543.915 383.245 543.952 383.214 544.013 383.214H545.171C545.271 383.214 545.348 383.248 545.401 383.316C545.437 383.363 545.455 383.419 545.455 383.482C545.455 383.511 545.451 383.542 545.442 383.574L545.107 384.911C545.101 384.941 545.087 384.964 545.064 384.98C545.044 384.996 545.02 385.004 544.993 385.004C544.981 385.004 544.962 384.996 544.934 384.98C544.919 384.966 544.915 384.943 544.924 384.911L545.259 383.574C545.269 383.524 545.262 383.483 545.237 383.449C545.212 383.416 545.175 383.4 545.127 383.4H544.774L544.394 384.911C544.388 384.941 544.374 384.964 544.352 384.98C544.331 384.996 544.308 385.004 544.28 385.004C544.268 385.004 544.249 384.996 544.221 384.98C544.206 384.966 544.202 384.943 544.211 384.911L544.587 383.4ZM546.296 384.644L546.606 383.4H546.077C546.028 383.4 545.982 383.417 545.939 383.451C545.898 383.485 545.871 383.526 545.857 383.574L545.59 384.644C545.578 384.692 545.585 384.734 545.61 384.768C545.635 384.802 545.672 384.818 545.72 384.818H546.077C546.125 384.818 546.171 384.802 546.214 384.768C546.257 384.734 546.284 384.692 546.296 384.644ZM546.553 384.825C546.595 384.841 546.611 384.869 546.601 384.911C546.594 384.939 546.579 384.963 546.558 384.98C546.538 384.999 546.514 385.009 546.487 385.009L546.456 385.002C546.431 384.995 546.406 384.979 546.381 384.954C546.372 384.947 546.354 384.925 546.328 384.888C546.24 384.965 546.141 385.004 546.032 385.004H545.676C545.575 385.004 545.498 384.969 545.446 384.898C545.41 384.852 545.392 384.798 545.392 384.736C545.392 384.707 545.396 384.676 545.405 384.644L545.674 383.574C545.695 383.484 545.749 383.401 545.836 383.326C545.924 383.252 546.019 383.214 546.121 383.214H546.745C546.795 383.214 546.82 383.235 546.82 383.277C546.82 383.286 546.819 383.297 546.816 383.309L546.481 384.644C546.474 384.679 546.475 384.716 546.485 384.754C546.497 384.78 546.519 384.804 546.553 384.825ZM548.014 383.4H547.486C547.438 383.4 547.391 383.417 547.347 383.451C547.305 383.486 547.277 383.527 547.264 383.574L546.996 384.644C546.986 384.693 546.993 384.735 547.018 384.768C547.043 384.802 547.08 384.818 547.13 384.818H547.483C547.532 384.818 547.577 384.801 547.62 384.767C547.663 384.732 547.691 384.691 547.704 384.644L548.014 383.4ZM548.06 383.214L548.151 382.86C548.162 382.811 548.155 382.77 548.13 382.737C548.105 382.703 548.067 382.687 548.018 382.687H547.396C547.367 382.687 547.346 382.678 547.331 382.66C547.321 382.641 547.319 382.619 547.326 382.594C547.33 382.58 547.341 382.561 547.362 382.537C547.383 382.513 547.409 382.501 547.44 382.501H548.062C548.162 382.501 548.238 382.537 548.29 382.608C548.327 382.657 548.345 382.712 548.345 382.774C548.345 382.801 548.342 382.83 548.335 382.86L547.887 384.644C547.864 384.742 547.808 384.827 547.722 384.898C547.636 384.969 547.542 385.004 547.438 385.004H547.085C546.986 385.004 546.909 384.968 546.856 384.897C546.819 384.848 546.8 384.793 546.8 384.733C546.8 384.704 546.804 384.674 546.813 384.644L547.082 383.572C547.106 383.473 547.161 383.388 547.248 383.319C547.334 383.249 547.429 383.214 547.531 383.214H548.06ZM549.205 384.911C549.19 384.973 549.152 385.004 549.09 385.004H548.467C548.366 385.004 548.289 384.969 548.237 384.898C548.201 384.852 548.183 384.798 548.183 384.736C548.183 384.707 548.187 384.676 548.196 384.644L548.533 383.307C548.536 383.287 548.549 383.266 548.572 383.246C548.596 383.225 548.62 383.214 548.645 383.214C548.667 383.214 548.686 383.223 548.702 383.239C548.719 383.255 548.723 383.277 548.714 383.307L548.381 384.644C548.369 384.692 548.376 384.734 548.401 384.768C548.426 384.802 548.463 384.818 548.511 384.818H549.042L549.424 383.307C549.427 383.287 549.44 383.266 549.463 383.246C549.487 383.225 549.511 383.214 549.536 383.214C549.559 383.214 549.578 383.222 549.593 383.237C549.605 383.249 549.611 383.264 549.611 383.282C549.611 383.289 549.61 383.298 549.607 383.309L549.205 384.911ZM550.493 384.913C550.487 384.941 550.473 384.964 550.45 384.98C550.43 384.996 550.406 385.004 550.379 385.004C550.367 385.004 550.348 384.996 550.32 384.98C550.305 384.966 550.301 384.943 550.309 384.911L550.486 384.202H550.188L549.581 384.955L549.54 384.991L549.49 385.004C549.462 385.004 549.443 384.995 549.431 384.979C549.419 384.964 549.413 384.95 549.413 384.934C549.413 384.928 549.414 384.92 549.417 384.911C549.42 384.897 549.428 384.882 549.442 384.866L549.917 384.273C549.843 384.225 549.778 384.167 549.725 384.098C549.673 384.028 549.66 383.943 549.688 383.842L549.753 383.574C549.775 383.484 549.829 383.401 549.916 383.326C550.004 383.252 550.099 383.214 550.201 383.214H550.825C550.874 383.214 550.899 383.235 550.899 383.277C550.899 383.286 550.898 383.297 550.896 383.309L550.493 384.913ZM550.532 384.016L550.686 383.4H550.156C550.108 383.4 550.062 383.417 550.019 383.451C549.977 383.485 549.95 383.526 549.937 383.574L549.869 383.842C549.859 383.891 549.866 383.933 549.891 383.966C549.916 384 549.952 384.016 550.001 384.016H550.532Z" fill="black"/>
<rect width="16.3333" height="9" transform="translate(555.333 380)" fill="white"/>
<path d="M561.461 384.913C561.455 384.941 561.442 384.964 561.42 384.98C561.4 384.996 561.376 385.004 561.349 385.004C561.337 385.004 561.318 384.996 561.29 384.98C561.275 384.965 561.271 384.942 561.278 384.911L561.834 382.687H561.463L560.205 384.939C560.179 384.983 560.144 385.005 560.102 385.005C560.075 385.005 560.055 384.997 560.041 384.98C560.03 384.969 560.025 384.955 560.025 384.939C560.025 384.931 560.026 384.922 560.029 384.913L560.041 384.882L561.335 382.565C561.36 382.523 561.395 382.501 561.44 382.501H561.973C562.023 382.501 562.048 382.521 562.048 382.56C562.048 382.572 562.046 382.584 562.042 382.596L561.461 384.913ZM562.875 384.911C562.86 384.973 562.822 385.004 562.761 385.004H562.137C562.036 385.004 561.959 384.969 561.907 384.898C561.871 384.852 561.854 384.798 561.854 384.736C561.854 384.707 561.858 384.676 561.866 384.644L562.203 383.307C562.206 383.287 562.219 383.266 562.242 383.246C562.266 383.225 562.29 383.214 562.315 383.214C562.338 383.214 562.357 383.223 562.372 383.239C562.389 383.255 562.393 383.277 562.385 383.307L562.051 384.644C562.039 384.692 562.046 384.734 562.071 384.768C562.096 384.802 562.133 384.818 562.181 384.818H562.713L563.094 383.307C563.098 383.287 563.111 383.266 563.133 383.246C563.157 383.225 563.181 383.214 563.206 383.214C563.229 383.214 563.248 383.222 563.263 383.237C563.275 383.249 563.281 383.264 563.281 383.282C563.281 383.289 563.28 383.298 563.278 383.309L562.875 384.911ZM564.08 385.004H563.456C563.355 385.004 563.278 384.969 563.226 384.898C563.19 384.852 563.172 384.798 563.172 384.736C563.172 384.707 563.177 384.676 563.185 384.644L563.454 383.574C563.475 383.484 563.529 383.401 563.616 383.326C563.704 383.252 563.799 383.214 563.901 383.214H564.525C564.548 383.214 564.566 383.223 564.58 383.241C564.592 383.258 564.598 383.274 564.598 383.291C564.598 383.297 564.598 383.303 564.596 383.309C564.59 383.33 564.577 383.351 564.555 383.371C564.535 383.39 564.51 383.4 564.481 383.4H563.857C563.808 383.4 563.762 383.417 563.72 383.451C563.678 383.485 563.651 383.526 563.638 383.574L563.37 384.644C563.358 384.692 563.365 384.734 563.39 384.768C563.415 384.802 563.452 384.818 563.5 384.818H564.124C564.147 384.818 564.165 384.828 564.179 384.849C564.195 384.869 564.2 384.89 564.194 384.911C564.189 384.933 564.176 384.955 564.154 384.975C564.134 384.994 564.109 385.004 564.08 385.004ZM565.514 383.4H564.988L564.609 384.911C564.603 384.941 564.589 384.964 564.566 384.98C564.546 384.996 564.522 385.004 564.495 385.004C564.483 385.004 564.463 384.996 564.436 384.98C564.425 384.971 564.42 384.958 564.42 384.941C564.42 384.932 564.422 384.921 564.425 384.909L564.828 383.307C564.842 383.245 564.88 383.214 564.94 383.214H566.099C566.199 383.214 566.275 383.248 566.329 383.316C566.364 383.363 566.382 383.419 566.382 383.482C566.382 383.511 566.378 383.542 566.37 383.574L566.035 384.911C566.029 384.941 566.014 384.964 565.992 384.98C565.972 384.996 565.948 385.004 565.921 385.004C565.909 385.004 565.889 384.996 565.862 384.98C565.846 384.966 565.843 384.943 565.851 384.911L566.186 383.574C566.197 383.524 566.19 383.483 566.165 383.449C566.14 383.416 566.103 383.4 566.054 383.4H565.701L565.322 384.911C565.316 384.941 565.302 384.964 565.279 384.98C565.259 384.996 565.235 385.004 565.208 385.004C565.196 385.004 565.176 384.996 565.149 384.98C565.133 384.966 565.13 384.943 565.138 384.911L565.514 383.4Z" fill="black"/>
<rect width="16.3333" height="9" transform="translate(572.167 380)" fill="white"/>
<path d="M577.294 384.913C577.288 384.941 577.275 384.964 577.253 384.98C577.233 384.996 577.209 385.004 577.182 385.004C577.17 385.004 577.151 384.996 577.123 384.98C577.108 384.965 577.104 384.942 577.111 384.911L577.667 382.687H577.296L576.038 384.939C576.012 384.983 575.977 385.005 575.935 385.005C575.908 385.005 575.888 384.997 575.874 384.98C575.863 384.969 575.858 384.955 575.858 384.939C575.858 384.931 575.859 384.922 575.862 384.913L575.874 384.882L577.168 382.565C577.193 382.523 577.228 382.501 577.273 382.501H577.806C577.856 382.501 577.881 382.521 577.881 382.56C577.881 382.572 577.879 382.584 577.875 382.596L577.294 384.913ZM578.708 384.911C578.693 384.973 578.655 385.004 578.594 385.004H577.97C577.869 385.004 577.792 384.969 577.74 384.898C577.704 384.852 577.687 384.798 577.687 384.736C577.687 384.707 577.691 384.676 577.699 384.644L578.036 383.307C578.039 383.287 578.052 383.266 578.075 383.246C578.099 383.225 578.123 383.214 578.148 383.214C578.171 383.214 578.19 383.223 578.205 383.239C578.222 383.255 578.226 383.277 578.218 383.307L577.884 384.644C577.872 384.692 577.879 384.734 577.904 384.768C577.929 384.802 577.966 384.818 578.014 384.818H578.546L578.927 383.307C578.931 383.287 578.944 383.266 578.966 383.246C578.99 383.225 579.014 383.214 579.039 383.214C579.062 383.214 579.081 383.222 579.096 383.237C579.108 383.249 579.114 383.264 579.114 383.282C579.114 383.289 579.113 383.298 579.111 383.309L578.708 384.911ZM579.913 385.004H579.289C579.188 385.004 579.111 384.969 579.059 384.898C579.023 384.852 579.005 384.798 579.005 384.736C579.005 384.707 579.01 384.676 579.018 384.644L579.287 383.574C579.308 383.484 579.362 383.401 579.449 383.326C579.537 383.252 579.632 383.214 579.734 383.214H580.358C580.381 383.214 580.399 383.223 580.413 383.241C580.425 383.258 580.431 383.274 580.431 383.291C580.431 383.297 580.431 383.303 580.429 383.309C580.423 383.33 580.41 383.351 580.388 383.371C580.368 383.39 580.343 383.4 580.314 383.4H579.69C579.641 383.4 579.595 383.417 579.553 383.451C579.511 383.485 579.484 383.526 579.471 383.574L579.203 384.644C579.191 384.692 579.198 384.734 579.223 384.768C579.248 384.802 579.285 384.818 579.333 384.818H579.957C579.98 384.818 579.998 384.828 580.012 384.849C580.028 384.869 580.033 384.89 580.027 384.911C580.022 384.933 580.009 384.955 579.987 384.975C579.967 384.994 579.942 385.004 579.913 385.004ZM581.347 383.4H580.821L580.442 384.911C580.436 384.941 580.422 384.964 580.399 384.98C580.379 384.996 580.355 385.004 580.328 385.004C580.316 385.004 580.296 384.996 580.269 384.98C580.258 384.971 580.253 384.958 580.253 384.941C580.253 384.932 580.255 384.921 580.258 384.909L580.661 383.307C580.675 383.245 580.713 383.214 580.773 383.214H581.932C582.032 383.214 582.108 383.248 582.162 383.316C582.197 383.363 582.215 383.419 582.215 383.482C582.215 383.511 582.211 383.542 582.203 383.574L581.868 384.911C581.862 384.941 581.847 384.964 581.825 384.98C581.805 384.996 581.781 385.004 581.754 385.004C581.742 385.004 581.722 384.996 581.695 384.98C581.679 384.966 581.676 384.943 581.684 384.911L582.019 383.574C582.03 383.524 582.023 383.483 581.998 383.449C581.973 383.416 581.936 383.4 581.887 383.4H581.534L581.155 384.911C581.149 384.941 581.135 384.964 581.112 384.98C581.092 384.996 581.068 385.004 581.041 385.004C581.029 385.004 581.009 384.996 580.982 384.98C580.966 384.966 580.963 384.943 580.971 384.911L581.347 383.4ZM583.24 384.645C583.216 384.745 583.161 384.83 583.074 384.9C582.987 384.969 582.894 385.004 582.793 385.004H582.436C582.335 385.004 582.259 384.969 582.206 384.898C582.171 384.852 582.153 384.798 582.153 384.736C582.153 384.707 582.157 384.676 582.165 384.644L582.434 383.574C582.456 383.484 582.51 383.401 582.597 383.326C582.684 383.252 582.78 383.214 582.882 383.214H583.238C583.338 383.214 583.415 383.248 583.468 383.316C583.504 383.363 583.522 383.419 583.522 383.482C583.522 383.511 583.517 383.542 583.509 383.574L583.24 384.645ZM583.056 384.644L583.325 383.574C583.336 383.524 583.329 383.483 583.304 383.449C583.279 383.416 583.242 383.4 583.194 383.4H582.837C582.788 383.4 582.743 383.417 582.7 383.451C582.658 383.485 582.631 383.526 582.618 383.574L582.351 384.644C582.339 384.692 582.345 384.734 582.37 384.768C582.395 384.802 582.432 384.818 582.481 384.818H582.837C582.886 384.818 582.932 384.802 582.974 384.768C583.017 384.734 583.044 384.692 583.056 384.644ZM584.01 383.209L584.163 383.12C584.206 383.094 584.268 383.05 584.348 382.99L584.373 382.968L584.414 382.92C584.431 382.904 584.442 382.883 584.447 382.858C584.458 382.807 584.451 382.766 584.425 382.735C584.4 382.703 584.364 382.687 584.316 382.687C584.268 382.687 584.222 382.702 584.179 382.733C584.139 382.762 584.111 382.804 584.095 382.86L584.01 383.209ZM584.357 384.644L584.625 383.574C584.637 383.526 584.63 383.485 584.605 383.451C584.58 383.417 584.543 383.4 584.493 383.4H584.14C584.091 383.4 584.045 383.417 584.001 383.451C583.958 383.486 583.93 383.527 583.917 383.574L583.65 384.644C583.639 384.693 583.646 384.735 583.671 384.768C583.696 384.802 583.734 384.818 583.784 384.818H584.136C584.185 384.818 584.231 384.801 584.274 384.767C584.316 384.732 584.344 384.691 584.357 384.644ZM584.338 383.214H584.537C584.638 383.214 584.716 383.248 584.769 383.316C584.805 383.363 584.823 383.419 584.823 383.482C584.823 383.511 584.818 383.542 584.81 383.574L584.541 384.644C584.517 384.742 584.462 384.827 584.375 384.898C584.29 384.969 584.195 385.004 584.092 385.004H583.739C583.639 385.004 583.563 384.968 583.509 384.897C583.472 384.848 583.454 384.793 583.454 384.733C583.454 384.704 583.458 384.674 583.466 384.644L583.735 383.574L583.914 382.86C583.94 382.748 583.999 382.659 584.09 382.594C584.173 382.533 584.263 382.503 584.359 382.503C584.457 382.503 584.532 382.533 584.586 382.592C584.644 382.656 584.659 382.745 584.63 382.86L584.612 382.925L584.591 382.97C584.571 383.007 584.538 383.045 584.493 383.084L584.338 383.214Z" fill="black"/>
<rect width="16.3333" height="6.5" transform="translate(538.5 389.5)" fill="white" nameid="sheetRp_5"/>

<rect width="16.3333" height="6.5" transform="translate(555.333 389.5)" fill="white" nameid="sheetRp_6"/>

<rect width="16.3333" height="6.5" transform="translate(572.167 389.5)" fill="white" nameid="sheetRp_7"/>

<rect width="69.5" height="18.5" transform="translate(468.5 396.5)" fill="white" nameid="sheetRp_4"/>
<path d="" fill="black"/>
<rect width="50" height="18.5" transform="translate(538.5 396.5)" fill="white" nameid="sheetRp_8"/>

</g>
<path d="M468.5 358.5H588.5V357.5H468.5V358.5ZM588.5 414.5H468.5V415.5H588.5V414.5Z" fill="black" mask="url(#path-14-inside-1_4639_115592)"/>
</g>
<defs>
<clipPath id="clip0_4639_115592">
<rect width="594" height="420" fill="white"/>
</clipPath>
<clipPath id="clip1_4639_115592">
<rect x="401" y="358" width="67.5" height="57" fill="white"/>
</clipPath>
<clipPath id="clip2_4639_115592">
<path d="M468.5 358H588.5V415H468.5V358Z" fill="white"/>
</clipPath>
</defs>
</svg>
