<svg width="420" height="297" viewBox="0 0 420 297" fill="" xmlns="http://www.w3.org/2000/svg">
<g clip-path="url(#clip0_4639_115950)">
<rect width="420" height="297" fill="none"/>
<rect x="20.25" y="5.25" width="394.5" height="286.5" stroke="black" stroke-width="0.5"/>
<g clip-path="url(#clip1_4639_115950)" nameid="svgGLp">
<rect x="227" y="235" width="67.5" height="57" fill="black"/>
<rect width="7" height="5" transform="translate(227 235)" fill="white"/>
<rect width="10" height="5" transform="translate(234.5 235)" fill="white"/>
<rect width="11" height="5" transform="translate(245 235)" fill="white"/>
<rect width="12" height="5" transform="translate(256.5 235)" fill="white"/>
<rect width="15" height="5" transform="translate(269 235)" fill="white"/>
<rect width="10" height="5" transform="translate(284.5 235)" fill="white"/>
<rect width="7" height="5" transform="translate(227 240.2)" fill="white"/>
<rect width="10" height="5" transform="translate(234.5 240.2)" fill="white"/>
<rect width="11" height="5" transform="translate(245 240.2)" fill="white"/>
<rect width="12" height="5" transform="translate(256.5 240.2)" fill="white"/>
<rect width="15" height="5" transform="translate(269 240.2)" fill="white"/>
<rect width="10" height="5" transform="translate(284.5 240.2)" fill="white"/>
<rect width="7" height="5" transform="translate(227 245.4)" fill="white"/>
<rect width="10" height="5" transform="translate(234.5 245.4)" fill="white"/>
<rect width="11" height="5" transform="translate(245 245.4)" fill="white"/>
<rect width="12" height="5" transform="translate(256.5 245.4)" fill="white"/>
<rect width="15" height="5" transform="translate(269 245.4)" fill="white"/>
<rect width="10" height="5" transform="translate(284.5 245.4)" fill="white"/>
<rect width="7" height="5" transform="translate(227 250.6)" fill="white"/>
<rect width="10" height="5" transform="translate(234.5 250.6)" fill="white"/>
<rect width="11" height="5" transform="translate(245 250.6)" fill="white"/>
<rect width="12" height="5" transform="translate(256.5 250.6)" fill="white"/>
<rect width="15" height="5" transform="translate(269 250.6)" fill="white"/>
<rect width="10" height="5" transform="translate(284.5 250.6)" fill="white"/>
<rect width="7" height="5" transform="translate(227 255.8)" fill="white"/>
<path d="M229.374 258.695C229.368 258.723 229.354 258.746 229.331 258.763C229.311 258.778 229.287 258.786 229.26 258.786C229.248 258.786 229.229 258.779 229.201 258.764C229.186 258.749 229.182 258.725 229.191 258.693L229.665 256.799L228.283 258.732C228.251 258.776 228.216 258.798 228.178 258.798C228.156 258.798 228.137 258.789 228.123 258.77C228.117 258.759 228.114 258.746 228.114 258.73C228.114 258.719 228.116 258.706 228.119 258.693L228.7 256.374C228.704 256.355 228.717 256.336 228.74 256.316C228.763 256.294 228.788 256.283 228.813 256.283C228.835 256.283 228.854 256.292 228.87 256.308C228.886 256.324 228.891 256.346 228.882 256.376L228.408 258.271L229.789 256.337C229.821 256.293 229.856 256.271 229.895 256.271C229.914 256.271 229.931 256.281 229.946 256.3C229.955 256.314 229.959 256.33 229.959 256.348C229.959 256.357 229.957 256.367 229.955 256.378L229.374 258.695ZM230.689 257.911C230.751 257.98 230.768 258.068 230.741 258.176L230.675 258.444C230.65 258.541 230.591 258.626 230.497 258.698C230.465 258.722 230.418 258.748 230.358 258.775C230.296 258.794 230.246 258.804 230.206 258.804H229.939C229.867 258.804 229.805 258.782 229.754 258.739C229.704 258.697 229.672 258.635 229.657 258.554L229.663 258.522C229.669 258.499 229.682 258.479 229.704 258.461C229.726 258.442 229.751 258.433 229.779 258.433C229.82 258.433 229.843 258.453 229.846 258.493C229.849 258.523 229.862 258.554 229.887 258.586C229.912 258.608 229.944 258.618 229.984 258.618H230.251C230.3 258.618 230.349 258.601 230.399 258.567C230.448 258.531 230.478 258.49 230.49 258.444L230.556 258.176C230.566 258.131 230.556 258.091 230.525 258.055C230.496 258.019 230.456 258.002 230.406 258.002H230.228C230.199 258.002 230.178 257.993 230.165 257.975C230.155 257.956 230.153 257.933 230.16 257.907C230.161 257.894 230.173 257.876 230.194 257.852C230.215 257.828 230.241 257.816 230.272 257.816H230.451C230.499 257.816 230.549 257.799 230.598 257.765C230.647 257.729 230.677 257.688 230.689 257.642L230.757 257.374C230.768 257.329 230.758 257.289 230.727 257.253C230.697 257.217 230.657 257.2 230.607 257.2H230.429C230.394 257.2 230.357 257.211 230.319 257.233C230.282 257.255 230.253 257.284 230.231 257.321C230.227 257.329 230.211 257.345 230.185 257.369L230.173 257.374L230.133 257.383C230.107 257.383 230.086 257.375 230.071 257.358C230.056 257.342 230.051 257.32 230.058 257.294L230.071 257.26C230.116 257.186 230.175 257.127 230.247 257.082C230.32 257.037 230.395 257.014 230.474 257.014H230.652C230.753 257.014 230.833 257.05 230.893 257.121C230.933 257.172 230.953 257.23 230.953 257.294C230.953 257.319 230.95 257.346 230.942 257.374L230.875 257.642C230.86 257.702 230.838 257.753 230.807 257.795C230.783 257.835 230.744 257.874 230.689 257.911ZM232.074 258.713C232.068 258.741 232.054 258.764 232.031 258.78C232.011 258.796 231.987 258.804 231.96 258.804C231.948 258.804 231.929 258.796 231.901 258.78C231.886 258.766 231.882 258.743 231.891 258.711L232.213 257.413L231.714 257.962C231.683 257.997 231.653 258.014 231.623 258.014C231.595 258.014 231.573 257.996 231.557 257.961L231.331 257.413L231.005 258.711C230.999 258.741 230.985 258.764 230.962 258.78C230.942 258.796 230.918 258.804 230.891 258.804C230.879 258.804 230.859 258.796 230.832 258.78C230.822 258.771 230.818 258.758 230.818 258.741C230.818 258.733 230.819 258.723 230.823 258.711L231.222 257.107C231.228 257.081 231.242 257.059 231.265 257.041C231.288 257.022 231.312 257.012 231.338 257.012C231.35 257.012 231.362 257.016 231.376 257.023C231.39 257.027 231.4 257.038 231.406 257.057L231.691 257.741L232.32 257.055C232.347 257.025 232.377 257.011 232.409 257.011C232.422 257.011 232.438 257.02 232.457 257.037C232.472 257.05 232.479 257.067 232.479 257.087C232.479 257.093 232.478 257.1 232.477 257.109L232.074 258.713ZM232.448 258.618C232.471 258.618 232.49 258.628 232.505 258.648C232.515 258.662 232.52 258.676 232.52 258.693C232.52 258.7 232.519 258.707 232.518 258.713C232.513 258.734 232.5 258.755 232.479 258.775C232.459 258.794 232.434 258.804 232.404 258.804C232.375 258.804 232.354 258.795 232.34 258.779C232.333 258.766 232.329 258.751 232.329 258.736C232.329 258.728 232.33 258.719 232.333 258.709C232.336 258.696 232.349 258.678 232.37 258.654C232.391 258.63 232.418 258.618 232.448 258.618Z" fill="black"/>
<rect width="10" height="5" transform="translate(234.5 255.8)" fill="white"/>
<rect width="11" height="5" transform="translate(245 255.8)" fill="white"/>
<path d="M248.461 258.713C248.455 258.741 248.442 258.764 248.42 258.78C248.4 258.796 248.376 258.804 248.349 258.804C248.337 258.804 248.318 258.796 248.29 258.78C248.275 258.765 248.271 258.742 248.278 258.711L248.834 256.487H248.463L247.205 258.739C247.179 258.783 247.144 258.805 247.102 258.805C247.075 258.805 247.055 258.797 247.041 258.78C247.03 258.769 247.025 258.755 247.025 258.739C247.025 258.731 247.026 258.722 247.029 258.713L247.041 258.682L248.335 256.365C248.36 256.323 248.395 256.301 248.44 256.301H248.973C249.023 256.301 249.048 256.321 249.048 256.36C249.048 256.372 249.046 256.384 249.042 256.396L248.461 258.713ZM249.875 258.711C249.86 258.773 249.822 258.804 249.761 258.804H249.137C249.036 258.804 248.959 258.769 248.907 258.698C248.871 258.652 248.854 258.598 248.854 258.536C248.854 258.507 248.858 258.476 248.866 258.444L249.203 257.107C249.206 257.087 249.219 257.066 249.242 257.046C249.266 257.025 249.29 257.014 249.315 257.014C249.338 257.014 249.357 257.023 249.372 257.039C249.389 257.055 249.393 257.077 249.385 257.107L249.051 258.444C249.039 258.492 249.046 258.534 249.071 258.568C249.096 258.602 249.133 258.618 249.181 258.618H249.713L250.094 257.107C250.098 257.087 250.111 257.066 250.133 257.046C250.157 257.025 250.181 257.014 250.206 257.014C250.229 257.014 250.248 257.022 250.263 257.037C250.275 257.049 250.281 257.064 250.281 257.082C250.281 257.089 250.28 257.098 250.278 257.109L249.875 258.711ZM251.08 258.804H250.456C250.355 258.804 250.278 258.769 250.226 258.698C250.19 258.652 250.172 258.598 250.172 258.536C250.172 258.507 250.177 258.476 250.185 258.444L250.454 257.374C250.475 257.284 250.529 257.201 250.616 257.126C250.704 257.052 250.799 257.014 250.901 257.014H251.525C251.548 257.014 251.566 257.023 251.58 257.041C251.592 257.058 251.598 257.074 251.598 257.091C251.598 257.097 251.598 257.103 251.596 257.109C251.59 257.13 251.577 257.151 251.555 257.171C251.535 257.19 251.51 257.2 251.481 257.2H250.857C250.808 257.2 250.762 257.217 250.72 257.251C250.678 257.285 250.651 257.325 250.638 257.374L250.37 258.444C250.358 258.492 250.365 258.534 250.39 258.568C250.415 258.602 250.452 258.618 250.5 258.618H251.124C251.147 258.618 251.165 258.628 251.179 258.648C251.195 258.669 251.2 258.689 251.194 258.711C251.189 258.733 251.176 258.755 251.154 258.775C251.134 258.794 251.109 258.804 251.08 258.804ZM252.514 257.2H251.988L251.609 258.711C251.603 258.741 251.589 258.764 251.566 258.78C251.546 258.796 251.522 258.804 251.495 258.804C251.483 258.804 251.463 258.796 251.436 258.78C251.425 258.771 251.42 258.758 251.42 258.741C251.42 258.732 251.422 258.721 251.425 258.709L251.828 257.107C251.842 257.045 251.88 257.014 251.94 257.014H253.099C253.199 257.014 253.275 257.048 253.329 257.116C253.364 257.163 253.382 257.219 253.382 257.282C253.382 257.311 253.378 257.342 253.37 257.374L253.035 258.711C253.029 258.741 253.014 258.764 252.992 258.78C252.972 258.796 252.948 258.804 252.921 258.804C252.909 258.804 252.889 258.796 252.862 258.78C252.846 258.766 252.843 258.743 252.851 258.711L253.186 257.374C253.197 257.324 253.19 257.283 253.165 257.249C253.14 257.216 253.103 257.2 253.054 257.2H252.701L252.322 258.711C252.316 258.741 252.302 258.764 252.279 258.78C252.259 258.796 252.235 258.804 252.208 258.804C252.196 258.804 252.176 258.796 252.149 258.78C252.133 258.766 252.13 258.743 252.138 258.711L252.514 257.2Z" fill="black"/>
<rect width="12" height="5" transform="translate(256.5 255.8)" fill="white"/>
<path d="M261.104 257.196C261.077 257.31 261.018 257.4 260.927 257.465C260.845 257.526 260.756 257.556 260.658 257.556C260.561 257.556 260.485 257.527 260.432 257.469C260.374 257.401 260.359 257.31 260.389 257.196L260.523 256.66C260.55 256.548 260.609 256.459 260.699 256.394C260.784 256.333 260.874 256.303 260.97 256.303C261.068 256.303 261.143 256.332 261.197 256.39C261.235 256.434 261.254 256.489 261.254 256.554C261.254 256.586 261.248 256.622 261.238 256.66L261.104 257.196ZM259.838 258.713C259.834 258.728 259.818 258.75 259.792 258.779C259.77 258.795 259.746 258.804 259.723 258.804L259.678 258.793L259.651 258.75L259.243 256.815L258.767 258.711C258.761 258.741 258.747 258.764 258.725 258.78C258.704 258.796 258.681 258.804 258.653 258.804C258.641 258.804 258.622 258.796 258.594 258.78C258.584 258.771 258.578 258.758 258.578 258.741C258.578 258.732 258.58 258.721 258.584 258.709L259.165 256.392C259.168 256.373 259.181 256.354 259.204 256.333C259.228 256.312 259.252 256.301 259.277 256.301C259.291 256.301 259.306 256.305 259.32 256.314C259.334 256.321 259.344 256.335 259.348 256.357L259.756 258.29L260.234 256.394C260.238 256.374 260.251 256.354 260.273 256.333C260.297 256.312 260.321 256.301 260.346 256.301C260.369 256.301 260.388 256.31 260.403 256.326C260.42 256.342 260.424 256.365 260.416 256.396L259.838 258.713ZM260.922 257.196L261.056 256.66C261.068 256.607 261.06 256.566 261.034 256.535C261.008 256.503 260.972 256.487 260.926 256.487C260.876 256.487 260.831 256.502 260.792 256.533C260.749 256.56 260.72 256.603 260.705 256.66L260.571 257.196C260.559 257.251 260.566 257.294 260.592 257.326C260.618 257.356 260.655 257.371 260.703 257.371C260.737 257.371 260.781 257.357 260.833 257.33C260.877 257.296 260.907 257.252 260.922 257.196ZM263.071 257.2H262.544C262.495 257.2 262.449 257.217 262.405 257.251C262.362 257.286 262.334 257.327 262.321 257.374L262.054 258.444C262.043 258.493 262.05 258.535 262.075 258.568C262.1 258.602 262.138 258.618 262.187 258.618H262.54C262.589 258.618 262.635 258.601 262.678 258.567C262.72 258.532 262.748 258.491 262.761 258.444L263.071 257.2ZM263.118 257.014L263.209 256.66C263.219 256.611 263.212 256.57 263.187 256.537C263.162 256.503 263.125 256.487 263.075 256.487H262.453C262.424 256.487 262.403 256.478 262.389 256.46C262.378 256.441 262.376 256.419 262.383 256.394C262.387 256.38 262.399 256.361 262.419 256.337C262.441 256.313 262.467 256.301 262.498 256.301H263.12C263.219 256.301 263.295 256.337 263.348 256.408C263.384 256.457 263.403 256.512 263.403 256.574C263.403 256.601 263.399 256.63 263.392 256.66L262.945 258.444C262.921 258.542 262.866 258.627 262.779 258.698C262.694 258.769 262.599 258.804 262.496 258.804H262.143C262.043 258.804 261.966 258.768 261.913 258.697C261.876 258.648 261.858 258.593 261.858 258.533C261.858 258.504 261.862 258.474 261.87 258.444L262.139 257.372C262.163 257.273 262.218 257.188 262.305 257.119C262.392 257.049 262.486 257.014 262.588 257.014H263.118ZM264.292 258.445C264.268 258.545 264.213 258.63 264.126 258.7C264.04 258.769 263.946 258.804 263.845 258.804H263.488C263.387 258.804 263.311 258.769 263.259 258.698C263.223 258.652 263.205 258.598 263.205 258.536C263.205 258.507 263.209 258.476 263.218 258.444L263.487 257.374C263.508 257.284 263.562 257.201 263.649 257.126C263.737 257.052 263.832 257.014 263.934 257.014H264.29C264.39 257.014 264.467 257.048 264.52 257.116C264.556 257.163 264.574 257.219 264.574 257.282C264.574 257.311 264.57 257.342 264.561 257.374L264.292 258.445ZM264.109 258.444L264.378 257.374C264.388 257.324 264.381 257.283 264.356 257.249C264.331 257.216 264.295 257.2 264.246 257.2H263.889C263.841 257.2 263.795 257.217 263.752 257.251C263.711 257.285 263.683 257.325 263.67 257.374L263.403 258.444C263.391 258.492 263.398 258.534 263.423 258.568C263.447 258.602 263.484 258.618 263.533 258.618H263.889C263.938 258.618 263.984 258.602 264.027 258.568C264.069 258.534 264.097 258.492 264.109 258.444ZM265.228 257.781L265.567 258.661L265.568 258.713C265.564 258.735 265.549 258.757 265.524 258.777C265.499 258.795 265.474 258.804 265.451 258.804C265.435 258.804 265.422 258.801 265.411 258.795C265.402 258.788 265.394 258.776 265.387 258.761L265.066 257.921L264.823 258.133L264.677 258.711C264.671 258.741 264.657 258.764 264.634 258.78C264.614 258.796 264.59 258.804 264.563 258.804C264.551 258.804 264.532 258.796 264.504 258.78C264.494 258.771 264.488 258.758 264.488 258.741C264.488 258.732 264.49 258.721 264.494 258.709L264.896 257.105C264.9 257.086 264.913 257.066 264.936 257.046C264.959 257.025 264.984 257.014 265.009 257.014C265.031 257.014 265.05 257.023 265.066 257.039C265.082 257.055 265.087 257.077 265.078 257.107L264.891 257.854L265.825 257.052C265.851 257.029 265.877 257.018 265.902 257.018C265.924 257.018 265.944 257.027 265.96 257.046C265.97 257.062 265.975 257.077 265.975 257.093C265.975 257.1 265.974 257.107 265.973 257.116C265.967 257.138 265.953 257.159 265.93 257.176L265.228 257.781ZM265.928 258.618C265.951 258.618 265.97 258.628 265.985 258.648C265.995 258.662 266 258.676 266 258.693C266 258.7 265.999 258.707 265.998 258.713C265.993 258.734 265.98 258.755 265.959 258.775C265.938 258.794 265.913 258.804 265.884 258.804C265.855 258.804 265.834 258.795 265.82 258.779C265.812 258.766 265.809 258.751 265.809 258.736C265.809 258.728 265.81 258.719 265.812 258.709C265.816 258.696 265.829 258.678 265.85 258.654C265.871 258.63 265.897 258.618 265.928 258.618Z" fill="black"/>
<rect width="15" height="5" transform="translate(269 255.8)" fill="white"/>
<path d="M272.821 258.713C272.815 258.741 272.8 258.764 272.778 258.78C272.758 258.796 272.734 258.804 272.707 258.804C272.695 258.804 272.675 258.796 272.648 258.78C272.632 258.766 272.629 258.743 272.637 258.711L273.191 256.487H272.307L271.75 258.711C271.744 258.741 271.729 258.764 271.707 258.78C271.687 258.796 271.663 258.804 271.635 258.804C271.624 258.804 271.604 258.796 271.577 258.78C271.566 258.771 271.561 258.758 271.561 258.741C271.561 258.732 271.562 258.721 271.566 258.709L272.147 256.394C272.161 256.332 272.199 256.301 272.259 256.301H273.33C273.38 256.301 273.405 256.322 273.405 256.364C273.405 256.373 273.404 256.384 273.402 256.396L272.821 258.713ZM274.209 258.445C274.185 258.545 274.13 258.63 274.043 258.7C273.957 258.769 273.863 258.804 273.762 258.804H273.405C273.304 258.804 273.228 258.769 273.175 258.698C273.14 258.652 273.122 258.598 273.122 258.536C273.122 258.507 273.126 258.476 273.134 258.444L273.403 257.374C273.425 257.284 273.479 257.201 273.566 257.126C273.654 257.052 273.749 257.014 273.851 257.014H274.207C274.307 257.014 274.384 257.048 274.437 257.116C274.473 257.163 274.491 257.219 274.491 257.282C274.491 257.311 274.486 257.342 274.478 257.374L274.209 258.445ZM274.025 258.444L274.295 257.374C274.305 257.324 274.298 257.283 274.273 257.249C274.248 257.216 274.211 257.2 274.163 257.2H273.806C273.757 257.2 273.712 257.217 273.669 257.251C273.627 257.285 273.6 257.325 273.587 257.374L273.32 258.444C273.308 258.492 273.314 258.534 273.339 258.568C273.364 258.602 273.401 258.618 273.45 258.618H273.806C273.855 258.618 273.901 258.602 273.943 258.568C273.986 258.534 274.014 258.492 274.025 258.444ZM275.619 257.2H275.091C275.042 257.2 274.996 257.217 274.952 257.251C274.909 257.286 274.881 257.327 274.868 257.374L274.601 258.444C274.59 258.493 274.598 258.535 274.622 258.568C274.647 258.602 274.685 258.618 274.735 258.618H275.088C275.136 258.618 275.182 258.601 275.225 258.567C275.268 258.532 275.296 258.491 275.309 258.444L275.619 257.2ZM275.665 257.014L275.756 256.66C275.767 256.611 275.76 256.57 275.735 256.537C275.71 256.503 275.672 256.487 275.622 256.487H275C274.972 256.487 274.95 256.478 274.936 256.46C274.925 256.441 274.924 256.419 274.931 256.394C274.934 256.38 274.946 256.361 274.966 256.337C274.988 256.313 275.014 256.301 275.045 256.301H275.667C275.767 256.301 275.843 256.337 275.895 256.408C275.932 256.457 275.95 256.512 275.95 256.574C275.95 256.601 275.947 256.63 275.94 256.66L275.492 258.444C275.468 258.542 275.413 258.627 275.326 258.698C275.241 258.769 275.146 258.804 275.043 258.804H274.69C274.59 258.804 274.514 258.768 274.46 258.697C274.423 258.648 274.405 258.593 274.405 258.533C274.405 258.504 274.409 258.474 274.418 258.444L274.687 257.372C274.71 257.273 274.766 257.188 274.852 257.119C274.939 257.049 275.034 257.014 275.136 257.014H275.665ZM276.779 258.711C276.773 258.741 276.759 258.764 276.736 258.78C276.716 258.796 276.692 258.804 276.665 258.804C276.653 258.804 276.633 258.796 276.606 258.78C276.591 258.766 276.587 258.743 276.595 258.711L276.93 257.374C276.941 257.324 276.934 257.283 276.909 257.249C276.884 257.216 276.847 257.2 276.799 257.2H276.267L275.888 258.711C275.882 258.741 275.868 258.764 275.845 258.78C275.825 258.796 275.801 258.804 275.774 258.804C275.762 258.804 275.742 258.796 275.715 258.78C275.705 258.771 275.701 258.758 275.701 258.741C275.701 258.733 275.702 258.723 275.706 258.713L276.107 257.107C276.121 257.045 276.159 257.014 276.219 257.014H276.843C276.943 257.014 277.02 257.048 277.073 257.116C277.109 257.163 277.126 257.219 277.126 257.282C277.126 257.311 277.122 257.342 277.114 257.374L276.779 258.711ZM278.114 258.711C278.1 258.773 278.062 258.804 278 258.804H277.376C277.275 258.804 277.198 258.769 277.146 258.698C277.11 258.652 277.093 258.598 277.093 258.536C277.093 258.507 277.097 258.476 277.105 258.444L277.442 257.107C277.446 257.087 277.459 257.066 277.481 257.046C277.505 257.025 277.529 257.014 277.554 257.014C277.577 257.014 277.596 257.023 277.611 257.039C277.628 257.055 277.632 257.077 277.624 257.107L277.29 258.444C277.279 258.492 277.285 258.534 277.31 258.568C277.335 258.602 277.372 258.618 277.421 258.618H277.952L278.333 257.107C278.337 257.087 278.35 257.066 278.372 257.046C278.396 257.025 278.42 257.014 278.445 257.014C278.468 257.014 278.487 257.022 278.502 257.037C278.514 257.049 278.52 257.064 278.52 257.082C278.52 257.089 278.519 257.098 278.517 257.109L278.114 258.711ZM279.319 258.804H278.695C278.594 258.804 278.517 258.769 278.465 258.698C278.429 258.652 278.411 258.598 278.411 258.536C278.411 258.507 278.416 258.476 278.424 258.444L278.693 257.374C278.714 257.284 278.769 257.201 278.855 257.126C278.943 257.052 279.038 257.014 279.14 257.014H279.764C279.787 257.014 279.805 257.023 279.819 257.041C279.831 257.058 279.837 257.074 279.837 257.091C279.837 257.097 279.837 257.103 279.835 257.109C279.83 257.13 279.816 257.151 279.794 257.171C279.774 257.19 279.749 257.2 279.72 257.2H279.096C279.047 257.2 279.001 257.217 278.959 257.251C278.917 257.285 278.89 257.325 278.877 257.374L278.609 258.444C278.597 258.492 278.604 258.534 278.629 258.568C278.654 258.602 278.691 258.618 278.739 258.618H279.363C279.386 258.618 279.404 258.628 279.418 258.648C279.434 258.669 279.439 258.689 279.433 258.711C279.428 258.733 279.415 258.755 279.393 258.775C279.373 258.794 279.348 258.804 279.319 258.804ZM280.039 258.002L279.882 258.618H280.413C280.462 258.618 280.507 258.602 280.55 258.568C280.593 258.534 280.621 258.492 280.634 258.444L280.702 258.176C280.712 258.126 280.705 258.085 280.68 258.051C280.655 258.018 280.618 258.002 280.57 258.002H280.039ZM280.085 257.816H280.614C280.714 257.816 280.791 257.85 280.844 257.918C280.88 257.965 280.898 258.021 280.898 258.084C280.898 258.113 280.894 258.144 280.885 258.176L280.816 258.444C280.792 258.545 280.737 258.63 280.65 258.7C280.563 258.769 280.469 258.804 280.368 258.804H279.745C279.695 258.804 279.67 258.784 279.67 258.745C279.67 258.733 279.672 258.721 279.675 258.709L280.078 257.105C280.081 257.086 280.094 257.066 280.117 257.046C280.141 257.025 280.165 257.014 280.19 257.014C280.213 257.014 280.232 257.023 280.247 257.039C280.264 257.055 280.268 257.078 280.26 257.109L280.085 257.816Z" fill="black"/>
<rect width="10" height="5" transform="translate(284.5 255.8)" fill="white"/>
<path d="M287.328 258.618C287.391 258.618 287.414 258.649 287.397 258.711L287.354 258.886C287.35 258.908 287.335 258.929 287.31 258.95C287.286 258.97 287.263 258.98 287.24 258.98C287.218 258.98 287.198 258.972 287.182 258.955C287.166 258.938 287.163 258.915 287.171 258.884L287.189 258.804H286.127L286.107 258.886C286.102 258.908 286.087 258.929 286.062 258.95C286.039 258.97 286.015 258.98 285.993 258.98C285.971 258.98 285.952 258.972 285.936 258.955C285.925 258.942 285.92 258.928 285.92 258.912C285.92 258.903 285.921 258.894 285.923 258.886L285.968 258.711C285.982 258.649 286.02 258.618 286.08 258.618H286.171L286.904 256.383C286.91 256.358 286.923 256.338 286.945 256.323L286.97 256.308L287.018 256.3H287.732C287.782 256.3 287.807 256.319 287.807 256.358C287.807 256.37 287.805 256.382 287.802 256.394L287.248 258.618H287.328ZM286.36 258.618H287.059L287.593 256.485H287.059L286.36 258.618ZM288.572 258.444L288.882 257.2H288.353C288.304 257.2 288.258 257.217 288.215 257.251C288.174 257.285 288.146 257.325 288.133 257.374L287.866 258.444C287.854 258.492 287.861 258.534 287.886 258.568C287.911 258.602 287.947 258.618 287.996 258.618H288.353C288.401 258.618 288.447 258.602 288.49 258.568C288.533 258.534 288.56 258.492 288.572 258.444ZM288.828 258.625C288.871 258.641 288.887 258.669 288.877 258.711C288.869 258.739 288.855 258.763 288.834 258.78C288.814 258.799 288.79 258.809 288.762 258.809L288.732 258.802C288.707 258.795 288.682 258.779 288.657 258.754C288.648 258.747 288.63 258.725 288.604 258.688C288.516 258.765 288.417 258.804 288.308 258.804H287.952C287.851 258.804 287.774 258.769 287.722 258.698C287.686 258.652 287.668 258.598 287.668 258.536C287.668 258.507 287.672 258.476 287.681 258.444L287.95 257.374C287.971 257.284 288.025 257.201 288.112 257.126C288.2 257.052 288.295 257.014 288.397 257.014H289.021C289.071 257.014 289.096 257.035 289.096 257.077C289.096 257.086 289.095 257.097 289.092 257.109L288.757 258.444C288.75 258.479 288.751 258.516 288.761 258.554C288.773 258.58 288.795 258.604 288.828 258.625ZM290.081 257.2H289.556L289.176 258.711C289.17 258.741 289.156 258.764 289.133 258.78C289.113 258.796 289.089 258.804 289.062 258.804C289.05 258.804 289.03 258.796 289.003 258.78C288.992 258.771 288.987 258.758 288.987 258.741C288.987 258.732 288.989 258.721 288.992 258.709L289.395 257.107C289.409 257.045 289.447 257.014 289.507 257.014H290.666C290.766 257.014 290.842 257.048 290.896 257.116C290.931 257.163 290.949 257.219 290.949 257.282C290.949 257.311 290.945 257.342 290.937 257.374L290.602 258.711C290.596 258.741 290.582 258.764 290.559 258.78C290.539 258.796 290.515 258.804 290.488 258.804C290.476 258.804 290.456 258.796 290.429 258.78C290.413 258.766 290.41 258.743 290.418 258.711L290.753 257.374C290.764 257.324 290.757 257.283 290.732 257.249C290.707 257.216 290.67 257.2 290.621 257.2H290.268L289.889 258.711C289.883 258.741 289.869 258.764 289.846 258.78C289.826 258.796 289.802 258.804 289.775 258.804C289.763 258.804 289.743 258.796 289.716 258.78C289.7 258.766 289.697 258.743 289.705 258.711L290.081 257.2ZM291.79 258.444L292.101 257.2H291.571C291.523 257.2 291.477 257.217 291.434 257.251C291.392 257.285 291.365 257.325 291.352 257.374L291.085 258.444C291.073 258.492 291.079 258.534 291.104 258.568C291.129 258.602 291.166 258.618 291.215 258.618H291.571C291.62 258.618 291.666 258.602 291.708 258.568C291.751 258.534 291.779 258.492 291.79 258.444ZM292.047 258.625C292.09 258.641 292.106 258.669 292.095 258.711C292.088 258.739 292.074 258.763 292.052 258.78C292.032 258.799 292.008 258.809 291.981 258.809L291.951 258.802C291.926 258.795 291.901 258.779 291.876 258.754C291.866 258.747 291.849 258.725 291.823 258.688C291.735 258.765 291.636 258.804 291.527 258.804H291.17C291.069 258.804 290.993 258.769 290.94 258.698C290.905 258.652 290.887 258.598 290.887 258.536C290.887 258.507 290.891 258.476 290.899 258.444L291.168 257.374C291.19 257.284 291.244 257.201 291.331 257.126C291.419 257.052 291.514 257.014 291.616 257.014H292.24C292.289 257.014 292.314 257.035 292.314 257.077C292.314 257.086 292.313 257.097 292.311 257.109L291.976 258.444C291.969 258.479 291.97 258.516 291.979 258.554C291.991 258.58 292.014 258.604 292.047 258.625Z" fill="black"/>
<rect width="17.5" height="5" transform="translate(227 261)" fill="white"/>
<rect width="23.5" height="5" transform="translate(245 261)" fill="white"/>
<rect width="15" height="5" transform="translate(269 261)" fill="white"/>
<rect width="10" height="5" transform="translate(284.5 261)" fill="white"/>
<path d="" fill="black"/>
<rect width="17.5" height="5" transform="translate(227 266.2)" fill="white"/>
<path d="M229.292 267.947H229.821C229.917 267.947 230.009 267.914 230.096 267.847C230.184 267.78 230.241 267.696 230.267 267.596L230.356 267.24C230.378 267.142 230.364 267.059 230.311 266.99C230.26 266.921 230.186 266.887 230.088 266.887H229.557L229.292 267.947ZM229.245 268.132L229 269.111C228.994 269.141 228.979 269.164 228.957 269.18C228.937 269.196 228.913 269.204 228.885 269.204C228.874 269.204 228.854 269.196 228.827 269.18C228.816 269.171 228.811 269.158 228.811 269.141C228.811 269.132 228.812 269.121 228.816 269.109L229.397 266.794C229.411 266.732 229.449 266.701 229.509 266.701H230.133C230.28 266.701 230.394 266.754 230.475 266.858C230.53 266.929 230.557 267.012 230.557 267.106C230.557 267.147 230.551 267.193 230.538 267.241L230.448 267.596C230.413 267.743 230.329 267.87 230.197 267.976C230.066 268.08 229.926 268.132 229.777 268.132H229.245ZM231.229 268.844L231.539 267.6H231.01C230.961 267.6 230.915 267.617 230.873 267.651C230.831 267.685 230.804 267.726 230.791 267.774L230.523 268.844C230.511 268.892 230.518 268.934 230.543 268.968C230.568 269.002 230.605 269.018 230.653 269.018H231.01C231.059 269.018 231.104 269.002 231.147 268.968C231.19 268.934 231.217 268.892 231.229 268.844ZM231.486 269.025C231.528 269.041 231.545 269.069 231.534 269.111C231.527 269.139 231.512 269.163 231.491 269.18C231.471 269.199 231.447 269.209 231.42 269.209L231.389 269.202C231.365 269.195 231.34 269.179 231.315 269.154C231.305 269.147 231.287 269.125 231.261 269.088C231.173 269.165 231.075 269.204 230.965 269.204H230.609C230.508 269.204 230.431 269.169 230.379 269.098C230.343 269.052 230.325 268.998 230.325 268.936C230.325 268.907 230.33 268.876 230.338 268.844L230.607 267.774C230.628 267.684 230.683 267.601 230.769 267.527C230.857 267.452 230.952 267.414 231.054 267.414H231.678C231.728 267.414 231.753 267.435 231.753 267.477C231.753 267.486 231.752 267.497 231.749 267.509L231.414 268.844C231.407 268.879 231.408 268.916 231.418 268.954C231.43 268.98 231.452 269.004 231.486 269.025ZM232.669 268.311C232.731 268.38 232.748 268.468 232.721 268.576L232.655 268.844C232.63 268.941 232.57 269.026 232.477 269.098C232.445 269.122 232.398 269.148 232.338 269.175C232.276 269.194 232.225 269.204 232.186 269.204H231.919C231.846 269.204 231.785 269.182 231.733 269.139C231.684 269.097 231.651 269.035 231.637 268.954L231.643 268.922C231.648 268.899 231.662 268.879 231.684 268.861C231.706 268.842 231.731 268.833 231.758 268.833C231.8 268.833 231.823 268.853 231.826 268.893C231.828 268.923 231.842 268.954 231.867 268.986C231.892 269.008 231.924 269.018 231.963 269.018H232.231C232.279 269.018 232.329 269.001 232.379 268.967C232.427 268.931 232.458 268.89 232.47 268.844L232.535 268.576C232.546 268.531 232.536 268.491 232.505 268.455C232.475 268.419 232.436 268.402 232.386 268.402H232.208C232.179 268.402 232.158 268.393 232.145 268.375C232.134 268.356 232.133 268.333 232.14 268.307C232.141 268.294 232.152 268.276 232.174 268.252C232.195 268.228 232.221 268.216 232.252 268.216H232.43C232.479 268.216 232.528 268.199 232.578 268.165C232.627 268.129 232.657 268.088 232.669 268.042L232.737 267.774C232.748 267.729 232.737 267.689 232.707 267.653C232.677 267.617 232.637 267.6 232.587 267.6H232.409C232.373 267.6 232.336 267.611 232.298 267.633C232.262 267.655 232.232 267.684 232.211 267.721C232.206 267.729 232.191 267.745 232.165 267.769L232.152 267.774L232.113 267.783C232.087 267.783 232.066 267.775 232.051 267.758C232.035 267.742 232.031 267.72 232.038 267.694L232.051 267.66C232.096 267.587 232.155 267.527 232.227 267.482C232.3 267.437 232.375 267.414 232.453 267.414H232.632C232.733 267.414 232.813 267.45 232.872 267.521C232.913 267.572 232.933 267.63 232.933 267.694C232.933 267.719 232.929 267.746 232.922 267.774L232.854 268.042C232.84 268.102 232.818 268.153 232.787 268.195C232.763 268.235 232.724 268.274 232.669 268.311ZM233.043 269.02H233.574C233.62 269.02 233.664 269.003 233.708 268.968C233.752 268.933 233.781 268.891 233.794 268.844L234.063 267.772C234.074 267.724 234.066 267.683 234.041 267.649C234.016 267.616 233.98 267.6 233.933 267.6H233.4L233.043 269.02ZM232.997 269.205L232.842 269.822C232.837 269.845 232.823 269.866 232.799 269.886C232.774 269.906 232.751 269.916 232.728 269.916C232.707 269.916 232.688 269.908 232.671 269.892C232.66 269.878 232.655 269.864 232.655 269.849C232.655 269.839 232.656 269.83 232.658 269.822L233.236 267.509C233.251 267.446 233.29 267.414 233.352 267.414H233.977C234.075 267.414 234.151 267.448 234.205 267.516C234.241 267.565 234.259 267.62 234.259 267.682C234.259 267.71 234.255 267.74 234.246 267.772L233.977 268.844C233.954 268.943 233.898 269.029 233.812 269.1C233.725 269.17 233.631 269.205 233.53 269.205H232.997ZM235.064 268.844L235.375 267.6H234.845C234.797 267.6 234.751 267.617 234.708 267.651C234.666 267.685 234.639 267.726 234.626 267.774L234.359 268.844C234.347 268.892 234.353 268.934 234.378 268.968C234.403 269.002 234.44 269.018 234.489 269.018H234.845C234.894 269.018 234.94 269.002 234.982 268.968C235.025 268.934 235.053 268.892 235.064 268.844ZM235.321 269.025C235.364 269.041 235.38 269.069 235.369 269.111C235.362 269.139 235.348 269.163 235.326 269.18C235.306 269.199 235.282 269.209 235.255 269.209L235.225 269.202C235.2 269.195 235.175 269.179 235.15 269.154C235.14 269.147 235.123 269.125 235.097 269.088C235.009 269.165 234.91 269.204 234.801 269.204H234.444C234.343 269.204 234.267 269.169 234.214 269.098C234.179 269.052 234.161 268.998 234.161 268.936C234.161 268.907 234.165 268.876 234.173 268.844L234.442 267.774C234.464 267.684 234.518 267.601 234.605 267.527C234.693 267.452 234.788 267.414 234.89 267.414H235.514C235.563 267.414 235.588 267.435 235.588 267.477C235.588 267.486 235.587 267.497 235.585 267.509L235.25 268.844C235.243 268.879 235.244 268.916 235.253 268.954C235.265 268.98 235.288 269.004 235.321 269.025ZM236.472 268.844L236.74 267.774C236.752 267.726 236.745 267.685 236.72 267.651C236.695 267.617 236.658 267.6 236.608 267.6H236.255C236.206 267.6 236.16 267.617 236.116 267.651C236.073 267.686 236.045 267.727 236.032 267.774L235.765 268.844C235.754 268.893 235.761 268.935 235.786 268.968C235.811 269.002 235.849 269.018 235.899 269.018H236.251C236.3 269.018 236.346 269.001 236.389 268.967C236.431 268.932 236.459 268.891 236.472 268.844ZM236.879 267.514L236.882 267.521L236.886 267.525C236.936 267.594 236.948 267.677 236.923 267.774L236.656 268.844C236.632 268.942 236.577 269.027 236.49 269.098C236.405 269.169 236.31 269.204 236.207 269.204H235.854C235.754 269.204 235.678 269.168 235.624 269.097C235.587 269.048 235.569 268.993 235.569 268.933C235.569 268.904 235.573 268.874 235.581 268.844L235.85 267.772C235.874 267.673 235.929 267.588 236.016 267.519C236.103 267.449 236.197 267.414 236.3 267.414H236.535L236.103 266.86L236.084 266.823C236.08 266.808 236.08 266.794 236.084 266.78C236.091 266.757 236.105 266.739 236.127 266.724C236.149 266.709 236.177 266.701 236.209 266.701H237.1C237.122 266.701 237.141 266.711 237.157 266.732C237.166 266.745 237.171 266.76 237.171 266.776C237.171 266.783 237.17 266.79 237.169 266.796C237.164 266.817 237.151 266.838 237.13 266.858C237.11 266.877 237.085 266.887 237.055 266.887H236.39L236.879 267.514ZM237.985 268.845C237.962 268.945 237.906 269.03 237.82 269.1C237.733 269.169 237.639 269.204 237.538 269.204H237.182C237.081 269.204 237.004 269.169 236.952 269.098C236.916 269.052 236.898 268.998 236.898 268.936C236.898 268.907 236.902 268.876 236.911 268.844L237.18 267.774C237.201 267.684 237.255 267.601 237.342 267.527C237.43 267.452 237.525 267.414 237.627 267.414H237.984C238.084 267.414 238.16 267.448 238.214 267.516C238.249 267.563 238.267 267.619 238.267 267.682C238.267 267.711 238.263 267.742 238.255 267.774L237.985 268.845ZM237.802 268.844L238.071 267.774C238.082 267.724 238.075 267.683 238.05 267.649C238.025 267.616 237.988 267.6 237.939 267.6H237.583C237.534 267.6 237.488 267.617 237.445 267.651C237.404 267.685 237.377 267.726 237.364 267.774L237.096 268.844C237.084 268.892 237.091 268.934 237.116 268.968C237.141 269.002 237.178 269.018 237.226 269.018H237.583C237.631 269.018 237.677 269.002 237.72 268.968C237.763 268.934 237.79 268.892 237.802 268.844ZM239.276 267.6H238.75L238.37 269.111C238.365 269.141 238.35 269.164 238.328 269.18C238.307 269.196 238.284 269.204 238.256 269.204C238.245 269.204 238.225 269.196 238.198 269.18C238.187 269.171 238.182 269.158 238.182 269.141C238.182 269.132 238.183 269.121 238.187 269.109L238.59 267.507C238.604 267.445 238.641 267.414 238.702 267.414H239.86C239.96 267.414 240.037 267.448 240.09 267.516C240.126 267.563 240.144 267.619 240.144 267.682C240.144 267.711 240.14 267.742 240.131 267.774L239.796 269.111C239.79 269.141 239.776 269.164 239.753 269.18C239.733 269.196 239.71 269.204 239.682 269.204C239.67 269.204 239.651 269.196 239.623 269.18C239.608 269.166 239.604 269.143 239.613 269.111L239.948 267.774C239.958 267.724 239.951 267.683 239.926 267.649C239.901 267.616 239.865 267.6 239.816 267.6H239.463L239.083 269.111C239.077 269.141 239.063 269.164 239.041 269.18C239.02 269.196 238.997 269.204 238.969 269.204C238.957 269.204 238.938 269.196 238.91 269.18C238.895 269.166 238.891 269.143 238.9 269.111L239.276 267.6ZM240.985 268.844L241.295 267.6H240.766C240.717 267.6 240.671 267.617 240.629 267.651C240.587 267.685 240.56 267.726 240.547 267.774L240.279 268.844C240.267 268.892 240.274 268.934 240.299 268.968C240.324 269.002 240.361 269.018 240.409 269.018H240.766C240.814 269.018 240.86 269.002 240.903 268.968C240.946 268.934 240.973 268.892 240.985 268.844ZM241.242 269.025C241.284 269.041 241.3 269.069 241.29 269.111C241.283 269.139 241.268 269.163 241.247 269.18C241.227 269.199 241.203 269.209 241.176 269.209L241.145 269.202C241.12 269.195 241.095 269.179 241.071 269.154C241.061 269.147 241.043 269.125 241.017 269.088C240.929 269.165 240.831 269.204 240.721 269.204H240.365C240.264 269.204 240.187 269.169 240.135 269.098C240.099 269.052 240.081 268.998 240.081 268.936C240.081 268.907 240.086 268.876 240.094 268.844L240.363 267.774C240.384 267.684 240.438 267.601 240.525 267.527C240.613 267.452 240.708 267.414 240.81 267.414H241.434C241.484 267.414 241.509 267.435 241.509 267.477C241.509 267.486 241.508 267.497 241.505 267.509L241.17 268.844C241.163 268.879 241.164 268.916 241.174 268.954C241.186 268.98 241.208 269.004 241.242 269.025ZM242.461 269.113C242.455 269.141 242.44 269.164 242.418 269.18C242.398 269.196 242.374 269.204 242.347 269.204C242.335 269.204 242.315 269.196 242.288 269.18C242.272 269.166 242.269 269.143 242.277 269.111L242.653 267.6H242.286L241.564 269.132C241.54 269.18 241.505 269.204 241.459 269.204C241.434 269.204 241.415 269.195 241.4 269.177C241.388 269.166 241.382 269.153 241.382 269.138C241.382 269.129 241.384 269.121 241.388 269.113L241.395 269.09L242.151 267.486C242.172 267.438 242.208 267.414 242.257 267.414H242.792C242.842 267.414 242.867 267.435 242.867 267.477C242.867 267.486 242.866 267.497 242.863 267.509L242.461 269.113Z" fill="black"/>
<rect width="23.5" height="5" transform="translate(245 266.2)" fill="white"/>
<path d="" fill="black"/>
<rect width="15" height="5" transform="translate(269 266.2)" fill="white"/>
<rect width="10" height="5" transform="translate(284.5 266.2)" fill="white"/>
<path d="" fill="black"/>
<rect width="17.5" height="5" transform="translate(227 271.4)" fill="white"/>
<path d="M231.11 273.332H230.579C230.443 273.332 230.329 273.281 230.237 273.177C230.2 273.124 230.175 273.066 230.162 273.003L230.158 272.908L230.163 272.851L230.174 272.794L230.376 271.994C230.379 271.974 230.393 271.954 230.417 271.933C230.44 271.912 230.465 271.901 230.49 271.901C230.512 271.901 230.531 271.91 230.547 271.926C230.562 271.943 230.566 271.966 230.559 271.994L230.358 272.796C230.335 272.895 230.349 272.978 230.399 273.046C230.45 273.113 230.525 273.147 230.623 273.147H231.156L231.447 271.994C231.45 271.974 231.464 271.954 231.488 271.933C231.511 271.912 231.536 271.901 231.561 271.901C231.583 271.901 231.602 271.91 231.618 271.926C231.628 271.937 231.634 271.951 231.634 271.969C231.634 271.976 231.633 271.985 231.63 271.994L231.162 273.865C231.126 274.013 231.042 274.139 230.91 274.245C230.78 274.351 230.639 274.404 230.49 274.404H230.044C230.016 274.404 229.994 274.395 229.98 274.379C229.973 274.366 229.969 274.351 229.969 274.336C229.969 274.328 229.97 274.319 229.973 274.309C229.976 274.296 229.989 274.278 230.01 274.254C230.032 274.23 230.058 274.218 230.089 274.218H230.534C230.629 274.218 230.72 274.185 230.807 274.118C230.895 274.051 230.952 273.966 230.98 273.865L231.11 273.332ZM232.448 272.8H231.923L231.543 274.311C231.537 274.341 231.523 274.364 231.5 274.38C231.48 274.396 231.456 274.404 231.429 274.404C231.417 274.404 231.397 274.396 231.37 274.38C231.359 274.371 231.354 274.358 231.354 274.341C231.354 274.332 231.356 274.321 231.359 274.309L231.762 272.707C231.776 272.645 231.814 272.614 231.874 272.614H233.033C233.133 272.614 233.209 272.648 233.263 272.716C233.298 272.763 233.316 272.819 233.316 272.882C233.316 272.911 233.312 272.942 233.304 272.974L232.969 274.311C232.963 274.341 232.949 274.364 232.926 274.38C232.906 274.396 232.882 274.404 232.855 274.404C232.843 274.404 232.823 274.396 232.796 274.38C232.78 274.366 232.777 274.343 232.785 274.311L233.12 272.974C233.131 272.924 233.124 272.883 233.099 272.849C233.074 272.816 233.037 272.8 232.988 272.8H232.635L232.256 274.311C232.25 274.341 232.236 274.364 232.213 274.38C232.193 274.396 232.169 274.404 232.142 274.404C232.13 274.404 232.11 274.396 232.083 274.38C232.067 274.366 232.064 274.343 232.072 274.311L232.448 272.8ZM233.863 272.609L234.017 272.52C234.059 272.494 234.121 272.45 234.202 272.39L234.227 272.368L234.268 272.32C234.285 272.304 234.295 272.283 234.3 272.258C234.312 272.207 234.305 272.166 234.279 272.135C234.254 272.103 234.217 272.087 234.17 272.087C234.121 272.087 234.075 272.102 234.033 272.133C233.992 272.162 233.964 272.204 233.949 272.26L233.863 272.609ZM234.211 274.044L234.478 272.974C234.49 272.926 234.484 272.885 234.459 272.851C234.434 272.817 234.396 272.8 234.346 272.8H233.993C233.945 272.8 233.898 272.817 233.854 272.851C233.812 272.886 233.784 272.927 233.771 272.974L233.503 274.044C233.493 274.093 233.5 274.135 233.525 274.168C233.55 274.202 233.587 274.218 233.637 274.218H233.99C234.039 274.218 234.084 274.201 234.127 274.167C234.17 274.132 234.198 274.091 234.211 274.044ZM234.191 272.614H234.391C234.492 272.614 234.569 272.648 234.623 272.716C234.658 272.763 234.676 272.819 234.676 272.882C234.676 272.911 234.672 272.942 234.664 272.974L234.394 274.044C234.371 274.142 234.315 274.227 234.229 274.298C234.143 274.369 234.049 274.404 233.945 274.404H233.592C233.493 274.404 233.416 274.368 233.363 274.297C233.326 274.248 233.307 274.193 233.307 274.133C233.307 274.104 233.311 274.074 233.32 274.044L233.589 272.974L233.767 272.26C233.793 272.148 233.852 272.059 233.944 271.994C234.027 271.933 234.116 271.903 234.213 271.903C234.31 271.903 234.386 271.933 234.439 271.992C234.497 272.056 234.512 272.146 234.484 272.26L234.466 272.326L234.444 272.37C234.424 272.407 234.392 272.445 234.346 272.484L234.191 272.614ZM234.951 273.416H235.655L235.767 272.974C235.777 272.924 235.77 272.883 235.745 272.849C235.72 272.816 235.684 272.8 235.635 272.8H235.278C235.23 272.8 235.184 272.817 235.141 272.851C235.1 272.885 235.072 272.926 235.059 272.974L234.951 273.416ZM234.904 273.602L234.79 274.044C234.779 274.093 234.787 274.135 234.812 274.168C234.836 274.202 234.873 274.218 234.922 274.218H235.546C235.568 274.218 235.587 274.228 235.601 274.249C235.616 274.269 235.621 274.29 235.615 274.311C235.611 274.333 235.597 274.355 235.576 274.375C235.556 274.394 235.531 274.404 235.501 274.404H234.877C234.776 274.404 234.7 274.369 234.648 274.298C234.612 274.252 234.594 274.198 234.594 274.136C234.594 274.107 234.598 274.076 234.607 274.044L234.876 272.974C234.897 272.884 234.951 272.801 235.038 272.727C235.126 272.652 235.221 272.614 235.323 272.614H235.679C235.779 272.614 235.856 272.648 235.909 272.716C235.945 272.763 235.963 272.819 235.963 272.882C235.963 272.911 235.959 272.942 235.95 272.974L235.815 273.509C235.801 273.571 235.763 273.602 235.703 273.602H234.904ZM236.082 274.22H236.613C236.659 274.22 236.703 274.203 236.747 274.168C236.791 274.133 236.819 274.091 236.833 274.044L237.102 272.972C237.112 272.924 237.105 272.883 237.08 272.849C237.055 272.816 237.019 272.8 236.972 272.8H236.439L236.082 274.22ZM236.036 274.405L235.881 275.022C235.876 275.045 235.862 275.066 235.838 275.086C235.813 275.106 235.789 275.116 235.767 275.116C235.745 275.116 235.726 275.108 235.71 275.092C235.699 275.078 235.694 275.064 235.694 275.049C235.694 275.039 235.695 275.03 235.697 275.022L236.275 272.709C236.29 272.646 236.329 272.614 236.391 272.614H237.016C237.114 272.614 237.19 272.648 237.244 272.716C237.28 272.765 237.298 272.82 237.298 272.882C237.298 272.91 237.294 272.94 237.285 272.972L237.016 274.044C236.992 274.143 236.937 274.229 236.85 274.3C236.764 274.37 236.67 274.405 236.569 274.405H236.036ZM238.449 272.8H237.922C237.873 272.8 237.826 272.817 237.782 272.851C237.74 272.886 237.712 272.927 237.699 272.974L237.431 274.044C237.421 274.093 237.428 274.135 237.453 274.168C237.478 274.202 237.515 274.218 237.565 274.218H237.918C237.967 274.218 238.012 274.201 238.055 274.167C238.098 274.132 238.126 274.091 238.139 274.044L238.449 272.8ZM238.495 272.614L238.586 272.26C238.597 272.211 238.59 272.17 238.565 272.137C238.54 272.103 238.503 272.087 238.453 272.087H237.831C237.802 272.087 237.781 272.078 237.766 272.06C237.756 272.041 237.754 272.019 237.761 271.994C237.765 271.98 237.777 271.961 237.797 271.937C237.818 271.913 237.844 271.901 237.875 271.901H238.497C238.597 271.901 238.673 271.937 238.725 272.008C238.762 272.057 238.781 272.112 238.781 272.174C238.781 272.201 238.777 272.23 238.77 272.26L238.323 274.044C238.299 274.142 238.243 274.227 238.157 274.298C238.071 274.369 237.977 274.404 237.873 274.404H237.521C237.421 274.404 237.344 274.368 237.291 274.297C237.254 274.248 237.235 274.193 237.235 274.133C237.235 274.104 237.24 274.074 237.248 274.044L237.517 272.972C237.541 272.873 237.596 272.788 237.683 272.719C237.769 272.649 237.864 272.614 237.966 272.614H238.495ZM239.64 274.311C239.625 274.373 239.587 274.404 239.526 274.404H238.902C238.801 274.404 238.724 274.369 238.672 274.298C238.636 274.252 238.618 274.198 238.618 274.136C238.618 274.107 238.623 274.076 238.631 274.044L238.968 272.707C238.971 272.687 238.984 272.667 239.007 272.646C239.031 272.625 239.055 272.614 239.08 272.614C239.103 272.614 239.122 272.623 239.137 272.639C239.154 272.655 239.158 272.677 239.149 272.707L238.816 274.044C238.804 274.092 238.811 274.134 238.836 274.168C238.861 274.202 238.898 274.218 238.946 274.218H239.477L239.859 272.707C239.862 272.687 239.875 272.667 239.898 272.646C239.922 272.625 239.946 272.614 239.971 272.614C239.994 272.614 240.013 272.622 240.028 272.637C240.04 272.649 240.046 272.664 240.046 272.682C240.046 272.689 240.045 272.698 240.042 272.709L239.64 274.311ZM240.891 274.313C240.885 274.341 240.871 274.364 240.848 274.38C240.828 274.396 240.804 274.404 240.777 274.404C240.765 274.404 240.745 274.396 240.718 274.38C240.702 274.366 240.699 274.343 240.707 274.311L241.083 272.8H240.716L239.994 274.332C239.97 274.38 239.935 274.404 239.889 274.404C239.864 274.404 239.845 274.395 239.83 274.377C239.818 274.366 239.812 274.353 239.812 274.338C239.812 274.329 239.814 274.321 239.818 274.313L239.825 274.29L240.581 272.686C240.602 272.638 240.638 272.614 240.688 272.614H241.222C241.272 272.614 241.297 272.635 241.297 272.677C241.297 272.686 241.296 272.697 241.293 272.709L240.891 274.313Z" fill="black"/>
<rect width="23.5" height="5" transform="translate(245 271.4)" fill="white"/>
<rect width="15" height="5" transform="translate(269 271.4)" fill="white"/>
<rect width="10" height="5" transform="translate(284.5 271.4)" fill="white"/>
<rect width="17.5" height="5" transform="translate(227 276.6)" fill="white"/>
<rect width="23.5" height="5" transform="translate(245 276.6)" fill="white"/>
<rect width="15" height="5" transform="translate(269 276.6)" fill="white"/>
<rect width="10" height="5" transform="translate(284.5 276.6)" fill="white"/>
<rect width="7" height="5" transform="translate(227 281.8)" fill="white"/>
<rect width="17.5" height="5" transform="translate(221.75 281.8)" fill="white"/>
<rect width="10" height="5" transform="translate(234.5 281.8)" fill="white"/>
<rect width="23.5" height="5" transform="translate(245 281.8)" fill="white"/>
<rect width="15" height="5" transform="translate(269 281.8)" fill="white"/>
<rect width="10" height="5" transform="translate(284.5 281.8)" fill="white"/>
<rect width="7" height="5" transform="translate(227 287)" fill="white"/>
<rect width="17.5" height="5" transform="translate(221.75 287)" fill="white"/>
<rect width="10" height="5" transform="translate(234.5 287)" fill="white"/>
<rect width="23.5" height="5" transform="translate(245 287)" fill="white"/>
<rect width="15" height="5" transform="translate(269 287)" fill="white"/>
<rect width="10" height="5" transform="translate(284.5 287)" fill="white"/>
</g>
<rect x="227.25" y="235.25" width="67" height="56.5" stroke="black" stroke-width="0.5"/>
<g clip-path="url(#clip2_4639_115950)" nameid="svgGRp">
<mask id="path-14-inside-1_4639_115950" fill="white">
<path d="M294.5 235H414.5V292H294.5V235Z"/>
</mask>
<path d="M294.5 235H414.5V292H294.5V235Z" fill="black"/>
<rect width="120" height="10.5" transform="translate(294.5 235)" fill="white"/>
<path d="" fill="black"/>
<rect width="120" height="10.5" transform="translate(294.5 246)" fill="white"/>
<path d="" fill="black"/>
<rect width="69.5" height="16" transform="translate(294.5 257)" fill="white"/>
<path d="" fill="black"/>
<rect width="16.3333" height="9" transform="translate(364.5 257)" fill="white"/>
<path d="M369.179 262.004H368.736C368.595 262.004 368.483 261.951 368.399 261.845C368.34 261.772 368.311 261.689 368.311 261.595C368.311 261.554 368.317 261.51 368.329 261.465L368.687 260.038C368.722 259.895 368.804 259.77 368.935 259.664C369.066 259.555 369.207 259.501 369.359 259.501H369.803C369.826 259.501 369.844 259.51 369.858 259.528C369.87 259.545 369.876 259.561 369.876 259.578C369.876 259.584 369.876 259.59 369.874 259.596C369.868 259.617 369.855 259.638 369.833 259.658C369.813 259.677 369.788 259.687 369.759 259.687H369.315C369.217 259.687 369.125 259.721 369.039 259.788C368.953 259.856 368.897 259.94 368.869 260.04L368.513 261.465C368.49 261.563 368.504 261.646 368.556 261.715C368.608 261.784 368.683 261.818 368.78 261.818H369.224C369.246 261.818 369.265 261.828 369.279 261.849C369.295 261.869 369.299 261.89 369.293 261.911C369.289 261.933 369.276 261.955 369.254 261.975C369.234 261.994 369.209 262.004 369.179 262.004ZM370.587 260.4H370.061L369.682 261.911C369.676 261.941 369.662 261.964 369.639 261.98C369.619 261.996 369.595 262.004 369.568 262.004C369.556 262.004 369.536 261.996 369.509 261.98C369.498 261.971 369.493 261.958 369.493 261.941C369.493 261.932 369.495 261.921 369.498 261.909L369.901 260.307C369.915 260.245 369.953 260.214 370.013 260.214H371.172C371.272 260.214 371.348 260.248 371.402 260.316C371.437 260.363 371.455 260.419 371.455 260.482C371.455 260.511 371.451 260.542 371.443 260.574L371.108 261.911C371.102 261.941 371.087 261.964 371.065 261.98C371.045 261.996 371.021 262.004 370.994 262.004C370.982 262.004 370.962 261.996 370.935 261.98C370.919 261.966 370.916 261.943 370.924 261.911L371.259 260.574C371.27 260.524 371.263 260.483 371.238 260.449C371.213 260.416 371.176 260.4 371.127 260.4H370.774L370.395 261.911C370.389 261.941 370.375 261.964 370.352 261.98C370.332 261.996 370.308 262.004 370.281 262.004C370.269 262.004 370.249 261.996 370.222 261.98C370.206 261.966 370.203 261.943 370.211 261.911L370.587 260.4ZM372.296 261.644L372.607 260.4H372.077C372.028 260.4 371.983 260.417 371.94 260.451C371.898 260.485 371.871 260.526 371.858 260.574L371.591 261.644C371.579 261.692 371.585 261.734 371.61 261.768C371.635 261.802 371.672 261.818 371.721 261.818H372.077C372.126 261.818 372.172 261.802 372.214 261.768C372.257 261.734 372.285 261.692 372.296 261.644ZM372.553 261.825C372.596 261.841 372.612 261.869 372.601 261.911C372.594 261.939 372.58 261.963 372.558 261.98C372.538 261.999 372.514 262.009 372.487 262.009L372.457 262.002C372.432 261.995 372.407 261.979 372.382 261.954C372.372 261.947 372.355 261.925 372.328 261.888C372.241 261.965 372.142 262.004 372.033 262.004H371.676C371.575 262.004 371.499 261.969 371.446 261.898C371.411 261.852 371.393 261.798 371.393 261.736C371.393 261.707 371.397 261.676 371.405 261.644L371.674 260.574C371.696 260.484 371.75 260.401 371.837 260.326C371.925 260.252 372.02 260.214 372.122 260.214H372.746C372.795 260.214 372.82 260.235 372.82 260.277C372.82 260.286 372.819 260.297 372.817 260.309L372.482 261.644C372.475 261.679 372.476 261.716 372.485 261.754C372.497 261.78 372.52 261.804 372.553 261.825ZM374.014 260.4H373.487C373.438 260.4 373.392 260.417 373.348 260.451C373.305 260.486 373.277 260.527 373.264 260.574L372.997 261.644C372.986 261.693 372.993 261.735 373.018 261.768C373.043 261.802 373.081 261.818 373.13 261.818H373.483C373.532 261.818 373.578 261.801 373.621 261.767C373.663 261.732 373.691 261.691 373.704 261.644L374.014 260.4ZM374.061 260.214L374.152 259.86C374.162 259.811 374.155 259.77 374.13 259.737C374.105 259.703 374.068 259.687 374.018 259.687H373.396C373.368 259.687 373.346 259.678 373.332 259.66C373.321 259.641 373.319 259.619 373.327 259.594C373.33 259.58 373.342 259.561 373.362 259.537C373.384 259.513 373.41 259.501 373.441 259.501H374.063C374.162 259.501 374.238 259.537 374.291 259.608C374.328 259.657 374.346 259.712 374.346 259.774C374.346 259.801 374.342 259.83 374.335 259.86L373.888 261.644C373.864 261.742 373.809 261.827 373.722 261.898C373.637 261.969 373.542 262.004 373.439 262.004H373.086C372.986 262.004 372.909 261.968 372.856 261.897C372.819 261.848 372.801 261.793 372.801 261.733C372.801 261.704 372.805 261.674 372.813 261.644L373.082 260.572C373.106 260.473 373.161 260.388 373.248 260.319C373.335 260.249 373.429 260.214 373.531 260.214H374.061ZM375.205 261.911C375.191 261.973 375.153 262.004 375.091 262.004H374.467C374.366 262.004 374.29 261.969 374.237 261.898C374.202 261.852 374.184 261.798 374.184 261.736C374.184 261.707 374.188 261.676 374.196 261.644L374.533 260.307C374.537 260.287 374.55 260.266 374.572 260.246C374.596 260.225 374.62 260.214 374.645 260.214C374.668 260.214 374.687 260.223 374.702 260.239C374.719 260.255 374.723 260.277 374.715 260.307L374.382 261.644C374.37 261.692 374.376 261.734 374.401 261.768C374.426 261.802 374.463 261.818 374.512 261.818H375.043L375.424 260.307C375.428 260.287 375.441 260.266 375.463 260.246C375.487 260.225 375.512 260.214 375.536 260.214C375.559 260.214 375.578 260.222 375.594 260.237C375.605 260.249 375.611 260.264 375.611 260.282C375.611 260.289 375.61 260.298 375.608 260.309L375.205 261.911ZM376.494 261.913C376.488 261.941 376.473 261.964 376.451 261.98C376.431 261.996 376.407 262.004 376.379 262.004C376.368 262.004 376.348 261.996 376.321 261.98C376.305 261.966 376.302 261.943 376.31 261.911L376.486 261.202H376.189L375.581 261.955L375.54 261.991L375.49 262.004C375.463 262.004 375.443 261.995 375.431 261.979C375.419 261.964 375.414 261.95 375.414 261.934C375.414 261.928 375.415 261.92 375.417 261.911C375.421 261.897 375.429 261.882 375.442 261.866L375.918 261.273C375.843 261.225 375.779 261.167 375.725 261.098C375.673 261.028 375.661 260.943 375.688 260.842L375.754 260.574C375.775 260.484 375.829 260.401 375.916 260.326C376.004 260.252 376.099 260.214 376.201 260.214H376.825C376.875 260.214 376.9 260.235 376.9 260.277C376.9 260.286 376.899 260.297 376.896 260.309L376.494 261.913ZM376.533 261.016L376.686 260.4H376.157C376.108 260.4 376.062 260.417 376.019 260.451C375.978 260.485 375.951 260.526 375.938 260.574L375.87 260.842C375.859 260.891 375.866 260.933 375.891 260.966C375.916 261 375.953 261.016 376.002 261.016H376.533Z" fill="black"/>
<rect width="16.3333" height="9" transform="translate(381.333 257)" fill="white"/>
<path d="M387.461 261.913C387.455 261.941 387.442 261.964 387.42 261.98C387.4 261.996 387.376 262.004 387.349 262.004C387.337 262.004 387.318 261.996 387.29 261.98C387.275 261.965 387.271 261.942 387.278 261.911L387.834 259.687H387.463L386.205 261.939C386.179 261.983 386.144 262.005 386.102 262.005C386.075 262.005 386.055 261.997 386.041 261.98C386.03 261.969 386.025 261.955 386.025 261.939C386.025 261.931 386.026 261.922 386.029 261.913L386.041 261.882L387.335 259.565C387.36 259.523 387.395 259.501 387.44 259.501H387.973C388.023 259.501 388.048 259.521 388.048 259.56C388.048 259.572 388.046 259.584 388.042 259.596L387.461 261.913ZM388.875 261.911C388.86 261.973 388.822 262.004 388.761 262.004H388.137C388.036 262.004 387.959 261.969 387.907 261.898C387.871 261.852 387.854 261.798 387.854 261.736C387.854 261.707 387.858 261.676 387.866 261.644L388.203 260.307C388.206 260.287 388.219 260.266 388.242 260.246C388.266 260.225 388.29 260.214 388.315 260.214C388.338 260.214 388.357 260.223 388.372 260.239C388.389 260.255 388.393 260.277 388.385 260.307L388.051 261.644C388.039 261.692 388.046 261.734 388.071 261.768C388.096 261.802 388.133 261.818 388.181 261.818H388.713L389.094 260.307C389.098 260.287 389.111 260.266 389.133 260.246C389.157 260.225 389.181 260.214 389.206 260.214C389.229 260.214 389.248 260.222 389.263 260.237C389.275 260.249 389.281 260.264 389.281 260.282C389.281 260.289 389.28 260.298 389.278 260.309L388.875 261.911ZM390.08 262.004H389.456C389.355 262.004 389.278 261.969 389.226 261.898C389.19 261.852 389.172 261.798 389.172 261.736C389.172 261.707 389.177 261.676 389.185 261.644L389.454 260.574C389.475 260.484 389.529 260.401 389.616 260.326C389.704 260.252 389.799 260.214 389.901 260.214H390.525C390.548 260.214 390.566 260.223 390.58 260.241C390.592 260.258 390.598 260.274 390.598 260.291C390.598 260.297 390.598 260.303 390.596 260.309C390.59 260.33 390.577 260.351 390.555 260.371C390.535 260.39 390.51 260.4 390.481 260.4H389.857C389.808 260.4 389.762 260.417 389.72 260.451C389.678 260.485 389.651 260.526 389.638 260.574L389.37 261.644C389.358 261.692 389.365 261.734 389.39 261.768C389.415 261.802 389.452 261.818 389.5 261.818H390.124C390.147 261.818 390.165 261.828 390.179 261.849C390.195 261.869 390.2 261.89 390.194 261.911C390.189 261.933 390.176 261.955 390.154 261.975C390.134 261.994 390.109 262.004 390.08 262.004ZM391.514 260.4H390.988L390.609 261.911C390.603 261.941 390.589 261.964 390.566 261.98C390.546 261.996 390.522 262.004 390.495 262.004C390.483 262.004 390.463 261.996 390.436 261.98C390.425 261.971 390.42 261.958 390.42 261.941C390.42 261.932 390.422 261.921 390.425 261.909L390.828 260.307C390.842 260.245 390.88 260.214 390.94 260.214H392.099C392.199 260.214 392.275 260.248 392.329 260.316C392.364 260.363 392.382 260.419 392.382 260.482C392.382 260.511 392.378 260.542 392.37 260.574L392.035 261.911C392.029 261.941 392.014 261.964 391.992 261.98C391.972 261.996 391.948 262.004 391.921 262.004C391.909 262.004 391.889 261.996 391.862 261.98C391.846 261.966 391.843 261.943 391.851 261.911L392.186 260.574C392.197 260.524 392.19 260.483 392.165 260.449C392.14 260.416 392.103 260.4 392.054 260.4H391.701L391.322 261.911C391.316 261.941 391.302 261.964 391.279 261.98C391.259 261.996 391.235 262.004 391.208 262.004C391.196 262.004 391.176 261.996 391.149 261.98C391.133 261.966 391.13 261.943 391.138 261.911L391.514 260.4Z" fill="black"/>
<rect width="16.3333" height="9" transform="translate(398.167 257)" fill="white"/>
<path d="M403.295 261.913C403.289 261.941 403.276 261.964 403.254 261.98C403.234 261.996 403.21 262.004 403.183 262.004C403.171 262.004 403.152 261.996 403.124 261.98C403.109 261.965 403.105 261.942 403.112 261.911L403.668 259.687H403.297L402.039 261.939C402.013 261.983 401.978 262.005 401.936 262.005C401.909 262.005 401.889 261.997 401.875 261.98C401.864 261.969 401.859 261.955 401.859 261.939C401.859 261.931 401.86 261.922 401.863 261.913L401.875 261.882L403.169 259.565C403.194 259.523 403.229 259.501 403.274 259.501H403.807C403.857 259.501 403.882 259.521 403.882 259.56C403.882 259.572 403.88 259.584 403.876 259.596L403.295 261.913ZM404.709 261.911C404.694 261.973 404.656 262.004 404.595 262.004H403.971C403.87 262.004 403.793 261.969 403.741 261.898C403.705 261.852 403.688 261.798 403.688 261.736C403.688 261.707 403.692 261.676 403.7 261.644L404.037 260.307C404.04 260.287 404.053 260.266 404.076 260.246C404.1 260.225 404.124 260.214 404.149 260.214C404.172 260.214 404.191 260.223 404.206 260.239C404.223 260.255 404.227 260.277 404.219 260.307L403.885 261.644C403.873 261.692 403.88 261.734 403.905 261.768C403.93 261.802 403.967 261.818 404.015 261.818H404.547L404.928 260.307C404.931 260.287 404.945 260.266 404.967 260.246C404.991 260.225 405.015 260.214 405.04 260.214C405.063 260.214 405.082 260.222 405.097 260.237C405.109 260.249 405.115 260.264 405.115 260.282C405.115 260.289 405.114 260.298 405.111 260.309L404.709 261.911ZM405.914 262.004H405.29C405.189 262.004 405.112 261.969 405.06 261.898C405.024 261.852 405.006 261.798 405.006 261.736C405.006 261.707 405.011 261.676 405.019 261.644L405.288 260.574C405.309 260.484 405.363 260.401 405.45 260.326C405.538 260.252 405.633 260.214 405.735 260.214H406.359C406.382 260.214 406.4 260.223 406.414 260.241C406.426 260.258 406.432 260.274 406.432 260.291C406.432 260.297 406.432 260.303 406.43 260.309C406.424 260.33 406.411 260.351 406.389 260.371C406.369 260.39 406.344 260.4 406.315 260.4H405.691C405.642 260.4 405.596 260.417 405.553 260.451C405.512 260.485 405.485 260.526 405.472 260.574L405.204 261.644C405.192 261.692 405.199 261.734 405.224 261.768C405.249 261.802 405.286 261.818 405.334 261.818H405.958C405.981 261.818 405.999 261.828 406.013 261.849C406.029 261.869 406.034 261.89 406.028 261.911C406.023 261.933 406.01 261.955 405.988 261.975C405.968 261.994 405.943 262.004 405.914 262.004ZM407.348 260.4H406.822L406.443 261.911C406.437 261.941 406.423 261.964 406.4 261.98C406.38 261.996 406.356 262.004 406.329 262.004C406.317 262.004 406.297 261.996 406.27 261.98C406.259 261.971 406.254 261.958 406.254 261.941C406.254 261.932 406.256 261.921 406.259 261.909L406.662 260.307C406.676 260.245 406.714 260.214 406.774 260.214H407.933C408.033 260.214 408.109 260.248 408.163 260.316C408.198 260.363 408.216 260.419 408.216 260.482C408.216 260.511 408.212 260.542 408.204 260.574L407.869 261.911C407.863 261.941 407.848 261.964 407.826 261.98C407.806 261.996 407.782 262.004 407.755 262.004C407.743 262.004 407.723 261.996 407.696 261.98C407.68 261.966 407.677 261.943 407.685 261.911L408.02 260.574C408.031 260.524 408.024 260.483 407.999 260.449C407.974 260.416 407.937 260.4 407.888 260.4H407.535L407.156 261.911C407.15 261.941 407.136 261.964 407.113 261.98C407.093 261.996 407.069 262.004 407.042 262.004C407.03 262.004 407.01 261.996 406.983 261.98C406.967 261.966 406.964 261.943 406.972 261.911L407.348 260.4ZM409.241 261.645C409.217 261.745 409.162 261.83 409.075 261.9C408.988 261.969 408.895 262.004 408.794 262.004H408.437C408.336 262.004 408.26 261.969 408.207 261.898C408.172 261.852 408.154 261.798 408.154 261.736C408.154 261.707 408.158 261.676 408.166 261.644L408.435 260.574C408.457 260.484 408.511 260.401 408.598 260.326C408.685 260.252 408.781 260.214 408.883 260.214H409.239C409.339 260.214 409.416 260.248 409.469 260.316C409.505 260.363 409.523 260.419 409.523 260.482C409.523 260.511 409.518 260.542 409.51 260.574L409.241 261.645ZM409.057 261.644L409.326 260.574C409.337 260.524 409.33 260.483 409.305 260.449C409.28 260.416 409.243 260.4 409.195 260.4H408.838C408.789 260.4 408.744 260.417 408.701 260.451C408.659 260.485 408.632 260.526 408.619 260.574L408.352 261.644C408.34 261.692 408.346 261.734 408.371 261.768C408.396 261.802 408.433 261.818 408.482 261.818H408.838C408.887 261.818 408.933 261.802 408.975 261.768C409.018 261.734 409.045 261.692 409.057 261.644ZM410.011 260.209L410.164 260.12C410.207 260.094 410.269 260.05 410.349 259.99L410.374 259.968L410.415 259.92C410.432 259.904 410.443 259.883 410.447 259.858C410.459 259.807 410.452 259.766 410.426 259.735C410.401 259.703 410.365 259.687 410.317 259.687C410.269 259.687 410.223 259.702 410.18 259.733C410.14 259.762 410.112 259.804 410.096 259.86L410.011 260.209ZM410.358 261.644L410.626 260.574C410.638 260.526 410.631 260.485 410.606 260.451C410.581 260.417 410.544 260.4 410.494 260.4H410.141C410.092 260.4 410.046 260.417 410.002 260.451C409.959 260.486 409.931 260.527 409.918 260.574L409.651 261.644C409.64 261.693 409.647 261.735 409.672 261.768C409.697 261.802 409.735 261.818 409.784 261.818H410.137C410.186 261.818 410.232 261.801 410.275 261.767C410.317 261.732 410.345 261.691 410.358 261.644ZM410.339 260.214H410.538C410.639 260.214 410.717 260.248 410.77 260.316C410.806 260.363 410.824 260.419 410.824 260.482C410.824 260.511 410.819 260.542 410.811 260.574L410.542 261.644C410.518 261.742 410.463 261.827 410.376 261.898C410.291 261.969 410.196 262.004 410.093 262.004H409.74C409.64 262.004 409.564 261.968 409.51 261.897C409.473 261.848 409.455 261.793 409.455 261.733C409.455 261.704 409.459 261.674 409.467 261.644L409.736 260.574L409.915 259.86C409.941 259.748 410 259.659 410.091 259.594C410.174 259.533 410.264 259.503 410.36 259.503C410.458 259.503 410.533 259.533 410.586 259.592C410.645 259.656 410.66 259.745 410.631 259.86L410.613 259.925L410.592 259.97C410.572 260.007 410.539 260.045 410.494 260.084L410.339 260.214Z" fill="black"/>
<rect width="16.3333" height="6.5" transform="translate(364.5 266.5)" fill="white"/>
<rect width="16.3333" height="6.5" transform="translate(381.333 266.5)" fill="white"/>
<rect width="16.3333" height="6.5" transform="translate(398.167 266.5)" fill="white"/>
<rect width="69.5" height="18.5" transform="translate(294.5 273.5)" fill="white"/>
<path d="" fill="black"/>
<rect width="50" height="18.5" transform="translate(364.5 273.5)" fill="white"/>
</g>
<path d="M294.5 235.5H414.5V234.5H294.5V235.5ZM414.5 291.5H294.5V292.5H414.5V291.5Z" fill="black" mask="url(#path-14-inside-1_4639_115950)"/>
</g>
<defs>
<clipPath id="clip0_4639_115950">
<rect width="420" height="297" fill="white"/>
</clipPath>
<clipPath id="clip1_4639_115950">
<rect x="227" y="235" width="67.5" height="57" fill="white"/>
</clipPath>
<clipPath id="clip2_4639_115950">
<path d="M294.5 235H414.5V292H294.5V235Z" fill="white"/>
</clipPath>
</defs>
</svg>
