<svg width="106" height="56" viewBox="0 0 106 56" fill="none" xmlns="http://www.w3.org/2000/svg">
<rect x="0.568359" width="105" height="56" rx="4" fill="none"/>
<path d="M37.0916 9.14134C36.871 9.9164 36.5981 10.6763 36.2747 11.416C36.1574 11.6501 35.6475 11.7914 35.309 11.8047C34.1455 11.8643 32.9796 11.8643 31.8161 11.8047C28.4405 11.5971 25.6064 12.8691 23.1876 14.9847C19.0989 18.5623 17.0411 23.0807 17.1765 28.4824C17.2203 30.6035 18.0182 32.6433 19.4329 34.2507C20.7867 35.854 22.6596 36.49 24.7174 36.596C25.609 36.6426 26.5005 36.6374 27.3921 36.6322C27.8544 36.6295 28.3167 36.6269 28.7789 36.6314C29.0086 36.6314 29.2382 36.6471 29.489 36.6642C29.6375 36.6743 29.7935 36.685 29.9613 36.6932C30.1418 37.7135 29.7627 38.5527 29.3476 39.3433C29.2393 39.5465 28.7609 39.6525 28.445 39.6525C27.1143 39.6525 25.7822 39.6689 24.4499 39.6854C21.4175 39.7229 18.3833 39.7604 15.3578 39.6039C10.678 39.3786 6.40889 36.8257 5.02345 32.0909C4.73558 31.063 4.58391 30.0031 4.57217 28.9373C4.4774 24.2158 6.15617 20.1038 9.10755 16.4114C11.398 13.5094 14.4662 11.2863 17.9707 9.98936C19.6964 9.34604 21.526 9.01094 23.3726 9H35.6655C35.9148 9 36.1641 9.03132 36.4714 9.06994C36.6536 9.09284 36.8563 9.11832 37.0916 9.14134Z" fill="#C33761"/>
<path d="M51.2782 16.7908C51.2348 17.0155 51.1908 17.2437 51.1445 17.4846C50.8479 17.4948 50.5562 17.5064 50.268 17.5178C49.679 17.5412 49.1042 17.5641 48.5316 17.573C47.8392 17.5835 47.1447 17.5812 46.4502 17.5788C45.1169 17.5743 43.7838 17.5697 42.4663 17.6569C39.7947 17.838 36.6944 20.3069 35.9995 22.5418C35.776 23.1677 35.731 23.8413 35.8694 24.4904C36.0077 25.1394 36.3242 25.7392 36.7847 26.2254C37.5596 27.0729 38.437 27.8249 39.3976 28.4647C40.0843 28.9194 40.805 29.3237 41.5256 29.7279C42.4011 30.219 43.2766 30.7101 44.0909 31.2915C45.404 32.2026 46.6022 33.2626 47.6606 34.4495C48.1863 35.1616 48.4689 36.0179 48.4684 36.8964C48.5414 38.6136 47.9223 40.2901 46.7445 41.5649C43.5133 45.0983 39.4788 46.9843 34.623 46.9843C31.5155 47.0078 28.408 47 25.2992 46.9921L25.297 46.9921C23.7428 46.9882 22.1883 46.9843 20.6333 46.9843C20.3798 46.9843 20.1263 46.9667 19.8433 46.9471C19.678 46.9356 19.5024 46.9234 19.311 46.9136C19.3291 46.7778 19.3437 46.655 19.3573 46.541C19.3878 46.2842 19.4131 46.0721 19.46 45.858C19.7307 44.6478 19.8435 44.5771 21.1117 44.533C21.6623 44.5204 22.2132 44.5093 22.7642 44.4982C24.7282 44.4587 26.6942 44.4191 28.6571 44.3121C30.7377 44.1934 32.7064 43.3506 34.2079 41.9359C35.6159 40.6727 35.6159 37.0775 34.2079 35.8628C32.9101 34.7489 31.4851 33.7855 29.9613 32.9919C28.4901 32.1881 27.0234 31.3621 25.62 30.4479C23.1424 28.8269 22.7949 26.645 23.6118 23.8227C24.1047 22.3045 25.0224 20.9519 26.2608 19.9183C29.4177 17.011 33.5612 15.3483 37.8948 15.2497C40.7777 15.1573 43.6628 15.1788 46.5471 15.2002C47.7985 15.2095 49.0497 15.2188 50.3006 15.2188C50.517 15.2217 50.7334 15.2437 51.0267 15.2734C51.1797 15.289 51.3538 15.3066 51.5597 15.3248C51.4586 15.8554 51.3698 16.3156 51.2782 16.7908Z" fill="#ACB0B9"/>
<path d="M56.6227 19.6338C57.0241 19.7658 57.4595 19.8318 57.9288 19.8318C58.4829 19.8318 58.9776 19.7455 59.4129 19.5729C59.8483 19.3953 60.2102 19.1441 60.4985 18.8193L59.396 17.921C59.2094 18.124 59.003 18.2814 58.7769 18.393C58.5507 18.4996 58.2963 18.5529 58.0136 18.5529C57.7761 18.5529 57.5584 18.5173 57.3605 18.4463C57.1683 18.3752 57.0015 18.2737 56.8602 18.1418C56.7188 18.0098 56.6086 17.8525 56.5294 17.6698C56.4503 17.4871 56.4107 17.2841 56.4107 17.0608C56.4107 16.8375 56.4503 16.6345 56.5294 16.4518C56.6086 16.2691 56.7188 16.1118 56.8602 15.9798C57.0015 15.8479 57.1683 15.7464 57.3605 15.6753C57.5584 15.6043 57.7761 15.5687 58.0136 15.5687C58.2963 15.5687 58.5507 15.6246 58.7769 15.7362C59.003 15.8428 59.2094 15.995 59.396 16.193L60.4985 15.3023C60.2102 14.9724 59.8483 14.7212 59.4129 14.5487C58.9776 14.3761 58.4829 14.2898 57.9288 14.2898C57.4595 14.2898 57.0241 14.3583 56.6227 14.4954C56.2269 14.6273 55.882 14.8176 55.588 15.0663C55.294 15.315 55.065 15.6093 54.9011 15.9494C54.7371 16.2843 54.6551 16.6548 54.6551 17.0608C54.6551 17.4668 54.7371 17.8398 54.9011 18.1798C55.065 18.5148 55.294 18.8066 55.588 19.0553C55.882 19.304 56.2269 19.4968 56.6227 19.6338Z" fill="#ACB0B9"/>
<path fill-rule="evenodd" clip-rule="evenodd" d="M63.2939 19.6262C63.701 19.7633 64.1449 19.8318 64.6255 19.8318C65.1004 19.8318 65.5386 19.7633 65.94 19.6262C66.3415 19.4892 66.6892 19.2964 66.9832 19.0477C67.2829 18.799 67.5147 18.5072 67.6786 18.1722C67.8426 17.8322 67.9246 17.4617 67.9246 17.0608C67.9246 16.6599 67.8426 16.2919 67.6786 15.957C67.5147 15.617 67.2829 15.3226 66.9832 15.0739C66.6892 14.8253 66.3415 14.6324 65.94 14.4954C65.5386 14.3583 65.0976 14.2898 64.617 14.2898C64.142 14.2898 63.701 14.3583 63.2939 14.4954C62.8925 14.6324 62.5448 14.8278 62.2508 15.0815C61.9568 15.3302 61.725 15.622 61.5553 15.957C61.3914 16.2919 61.3094 16.6599 61.3094 17.0608C61.3094 17.4617 61.3914 17.8322 61.5553 18.1722C61.725 18.5072 61.9568 18.799 62.2508 19.0477C62.5448 19.2964 62.8925 19.4892 63.2939 19.6262ZM65.2276 18.4463C65.041 18.5173 64.8375 18.5529 64.617 18.5529C64.3965 18.5529 64.1929 18.5173 64.0063 18.4463C63.8198 18.3752 63.6558 18.2763 63.5144 18.1494C63.3731 18.0174 63.2628 17.8601 63.1837 17.6774C63.1045 17.4947 63.065 17.2892 63.065 17.0608C63.065 16.8324 63.1045 16.6269 63.1837 16.4442C63.2628 16.2615 63.3731 16.1067 63.5144 15.9798C63.6558 15.8479 63.8198 15.7464 64.0063 15.6753C64.1929 15.6043 64.3965 15.5687 64.617 15.5687C64.8375 15.5687 65.041 15.6043 65.2276 15.6753C65.4199 15.7464 65.5838 15.8479 65.7195 15.9798C65.8609 16.1067 65.9711 16.2615 66.0503 16.4442C66.1294 16.6269 66.169 16.8324 66.169 17.0608C66.169 17.2892 66.1294 17.4947 66.0503 17.6774C65.9711 17.8601 65.8609 18.0174 65.7195 18.1494C65.5838 18.2763 65.4199 18.3752 65.2276 18.4463Z" fill="#ACB0B9"/>
<path d="M69.2875 19.7252H70.9837V16.9575L73.5365 19.7252H74.9698V14.3964H73.2651V17.1569L70.7123 14.3964H69.2875V19.7252Z" fill="#ACB0B9"/>
<path d="M77.8929 15.6296V19.7252H79.6315V15.6296H81.4379V14.3964H76.0864V15.6296H77.8929Z" fill="#ACB0B9"/>
<path fill-rule="evenodd" clip-rule="evenodd" d="M82.5547 19.7252H84.2933V18.3245H85.1428L86.2015 19.7252H88.0673L86.7873 18.0605C87.1418 17.9054 87.4187 17.6914 87.6178 17.4186C87.8327 17.1242 87.9401 16.7766 87.9401 16.3757C87.9401 15.9697 87.8327 15.6195 87.6178 15.3251C87.403 15.0257 87.0977 14.7973 86.7019 14.64C86.3061 14.4776 85.834 14.3964 85.2855 14.3964H82.5547V19.7252ZM84.2933 17.1217H85.1838C85.523 17.1217 85.7746 17.0557 85.9386 16.9238C86.1082 16.7918 86.193 16.6091 86.193 16.3757C86.193 16.1371 86.1082 15.9519 85.9386 15.82C85.7746 15.688 85.523 15.622 85.1838 15.622H84.2933V17.1217Z" fill="#ACB0B9"/>
<path fill-rule="evenodd" clip-rule="evenodd" d="M91.0375 19.6262C91.4445 19.7633 91.8884 19.8318 92.369 19.8318C92.8439 19.8318 93.2821 19.7633 93.6835 19.6262C94.085 19.4892 94.4327 19.2964 94.7267 19.0477C95.0264 18.799 95.2582 18.5072 95.4221 18.1722C95.5861 17.8322 95.6681 17.4617 95.6681 17.0608C95.6681 16.6599 95.5861 16.2919 95.4221 15.957C95.2582 15.617 95.0264 15.3226 94.7267 15.0739C94.4327 14.8253 94.085 14.6324 93.6835 14.4954C93.2821 14.3583 92.8411 14.2898 92.3605 14.2898C91.8856 14.2898 91.4445 14.3583 91.0375 14.4954C90.636 14.6324 90.2883 14.8278 89.9943 15.0815C89.7003 15.3302 89.4685 15.622 89.2989 15.957C89.1349 16.2919 89.0529 16.6599 89.0529 17.0608C89.0529 17.4617 89.1349 17.8322 89.2989 18.1722C89.4685 18.5072 89.7003 18.799 89.9943 19.0477C90.2883 19.2964 90.636 19.4892 91.0375 19.6262ZM92.9711 18.4463C92.7845 18.5173 92.581 18.5529 92.3605 18.5529C92.14 18.5529 91.9364 18.5173 91.7499 18.4463C91.5633 18.3752 91.3993 18.2763 91.258 18.1494C91.1166 18.0174 91.0064 17.8601 90.9272 17.6774C90.848 17.4947 90.8085 17.2892 90.8085 17.0608C90.8085 16.8324 90.848 16.6269 90.9272 16.4442C91.0064 16.2615 91.1166 16.1067 91.258 15.9798C91.3993 15.8479 91.5633 15.7464 91.7499 15.6753C91.9364 15.6043 92.14 15.5687 92.3605 15.5687C92.581 15.5687 92.7845 15.6043 92.9711 15.6753C93.1634 15.7464 93.3273 15.8479 93.463 15.9798C93.6044 16.1067 93.7146 16.2615 93.7938 16.4442C93.8729 16.6269 93.9125 16.8324 93.9125 17.0608C93.9125 17.2892 93.8729 17.4947 93.7938 17.6774C93.7146 17.8601 93.6044 18.0174 93.463 18.1494C93.3273 18.2763 93.1634 18.3752 92.9711 18.4463Z" fill="#ACB0B9"/>
<path d="M97.031 19.7252H101.568V18.492H98.7696V14.3964H97.031V19.7252Z" fill="#ACB0B9"/>
<path d="M55.5417 29.665C55.9083 29.742 56.2886 29.7805 56.6827 29.7805C57.1592 29.7805 57.5533 29.7237 57.8649 29.61C58.1811 29.4962 58.417 29.3458 58.5728 29.1587C58.7332 28.9679 58.8134 28.7607 58.8134 28.5369C58.8134 28.3351 58.763 28.1682 58.6622 28.0361C58.566 27.9003 58.4377 27.7921 58.2773 27.7114C58.1169 27.627 57.9382 27.561 57.7412 27.5133C57.5487 27.4619 57.354 27.4197 57.1569 27.3867C56.9645 27.3537 56.7858 27.3225 56.6208 27.2932C56.4605 27.2602 56.3299 27.2198 56.2291 27.1721C56.1328 27.1207 56.0847 27.0529 56.0847 26.9685C56.0847 26.9025 56.1099 26.8438 56.1603 26.7924C56.2107 26.741 56.2932 26.7007 56.4078 26.6713C56.5223 26.6383 56.6735 26.6218 56.8614 26.6218C57.0722 26.6218 57.2898 26.6475 57.5144 26.6988C57.7389 26.7465 57.9657 26.8199 58.1948 26.919L58.6141 26.11C58.3758 26 58.1032 25.9174 57.7962 25.8624C57.4937 25.8037 57.1844 25.7743 56.8683 25.7743C56.3963 25.7743 56.0022 25.8312 55.6861 25.9449C55.3699 26.0587 55.1316 26.2091 54.9713 26.3962C54.8155 26.5833 54.7376 26.7924 54.7376 27.0235C54.7376 27.229 54.788 27.3996 54.8888 27.5353C54.9896 27.6674 55.1202 27.7756 55.2806 27.86C55.4409 27.9407 55.6174 28.0067 55.8098 28.0581C56.0068 28.1095 56.2016 28.1516 56.394 28.1847C56.5911 28.2177 56.7698 28.2507 56.9301 28.2837C57.0905 28.3167 57.2211 28.3589 57.3219 28.4103C57.4227 28.4617 57.4731 28.5314 57.4731 28.6194C57.4731 28.6818 57.4456 28.7368 57.3906 28.7845C57.3402 28.8285 57.2578 28.8652 57.1432 28.8946C57.0286 28.9202 56.8774 28.9331 56.6896 28.9331C56.4101 28.9331 56.1283 28.8982 55.8442 28.8285C55.5647 28.7551 55.3172 28.6634 55.1019 28.5534L54.6551 29.3568C54.8842 29.4815 55.1798 29.5843 55.5417 29.665Z" fill="#ACB0B9"/>
<path d="M60.8328 29.7035V28.3065L58.9977 25.8514H60.4342L61.5726 27.3799L62.7161 25.8514H64.0357L62.1937 28.3236V29.7035H60.8328Z" fill="#ACB0B9"/>
<path d="M66.2469 29.7805C65.8529 29.7805 65.4725 29.742 65.106 29.665C64.744 29.5843 64.4484 29.4815 64.2193 29.3568L64.6661 28.5534C64.8814 28.6634 65.1289 28.7551 65.4084 28.8285C65.6925 28.8982 65.9743 28.9331 66.2538 28.9331C66.4417 28.9331 66.5929 28.9202 66.7074 28.8946C66.822 28.8652 66.9045 28.8285 66.9549 28.7845C67.0098 28.7368 67.0373 28.6818 67.0373 28.6194C67.0373 28.5314 66.9869 28.4617 66.8861 28.4103C66.7853 28.3589 66.6547 28.3167 66.4944 28.2837C66.334 28.2507 66.1553 28.2177 65.9582 28.1847C65.7658 28.1516 65.5711 28.1095 65.374 28.0581C65.1816 28.0067 65.0052 27.9407 64.8448 27.86C64.6844 27.7756 64.5538 27.6674 64.453 27.5353C64.3522 27.3996 64.3018 27.229 64.3018 27.0235C64.3018 26.7924 64.3797 26.5833 64.5355 26.3962C64.6959 26.2091 64.9341 26.0587 65.2503 25.9449C65.5665 25.8312 65.9605 25.7743 66.4325 25.7743C66.7487 25.7743 67.058 25.8037 67.3604 25.8624C67.6674 25.9174 67.94 26 68.1783 26.11L67.759 26.919C67.5299 26.8199 67.3031 26.7465 67.0786 26.6988C66.8541 26.6475 66.6364 26.6218 66.4256 26.6218C66.2378 26.6218 66.0865 26.6383 65.972 26.6713C65.8574 26.7007 65.775 26.741 65.7246 26.7924C65.6742 26.8438 65.649 26.9025 65.649 26.9685C65.649 27.0529 65.6971 27.1207 65.7933 27.1721C65.8941 27.2198 66.0247 27.2602 66.1851 27.2932C66.35 27.3225 66.5287 27.3537 66.7212 27.3867C66.9182 27.4197 67.1129 27.4619 67.3054 27.5133C67.5024 27.561 67.6811 27.627 67.8415 27.7114C68.0019 27.7921 68.1302 27.9003 68.2264 28.0361C68.3272 28.1682 68.3776 28.3351 68.3776 28.5369C68.3776 28.7607 68.2974 28.9679 68.1371 29.1587C67.9813 29.3458 67.7453 29.4962 67.4291 29.61C67.1175 29.7237 66.7235 29.7805 66.2469 29.7805Z" fill="#ACB0B9"/>
<path d="M70.2382 29.7035V26.7154H68.7604V25.8514H73.0699V26.7154H71.5991V29.7035H70.2382Z" fill="#ACB0B9"/>
<path d="M75.199 28.8615V28.1571H77.3366V27.3427H75.199V26.6933H77.6252V25.8514H73.8519V29.7035H77.7146V28.8615H75.199Z" fill="#ACB0B9"/>
<path d="M78.7447 29.7035V25.8514H79.865L81.5586 28.077L83.2054 25.8514H84.3258L84.3395 29.7035H83.0886L83.0765 27.6597L81.8376 29.3238H81.2328L80.0025 27.7169V29.7035H78.7447Z" fill="#ACB0B9"/>
<path d="M87.2682 29.7805C86.8741 29.7805 86.4938 29.742 86.1272 29.665C85.7652 29.5843 85.4697 29.4815 85.2406 29.3568L85.6873 28.5534C85.9027 28.6634 86.1501 28.7551 86.4296 28.8285C86.7137 28.8982 86.9955 28.9331 87.2751 28.9331C87.4629 28.9331 87.6141 28.9202 87.7287 28.8946C87.8432 28.8652 87.9257 28.8285 87.9761 28.7845C88.0311 28.7368 88.0586 28.6818 88.0586 28.6194C88.0586 28.5314 88.0082 28.4617 87.9074 28.4103C87.8066 28.3589 87.676 28.3167 87.5156 28.2837C87.3552 28.2507 87.1765 28.2177 86.9795 28.1847C86.7871 28.1516 86.5923 28.1095 86.3953 28.0581C86.2028 28.0067 86.0264 27.9407 85.866 27.86C85.7057 27.7756 85.5751 27.6674 85.4743 27.5353C85.3735 27.3996 85.3231 27.229 85.3231 27.0235C85.3231 26.7924 85.401 26.5833 85.5568 26.3962C85.7171 26.2091 85.9554 26.0587 86.2716 25.9449C86.5877 25.8312 86.9818 25.7743 87.4538 25.7743C87.7699 25.7743 88.0792 25.8037 88.3816 25.8624C88.6886 25.9174 88.9613 26 89.1995 26.11L88.7803 26.919C88.5512 26.8199 88.3244 26.7465 88.0998 26.6988C87.8753 26.6475 87.6577 26.6218 87.4469 26.6218C87.259 26.6218 87.1078 26.6383 86.9932 26.6713C86.8787 26.7007 86.7962 26.741 86.7458 26.7924C86.6954 26.8438 86.6702 26.9025 86.6702 26.9685C86.6702 27.0529 86.7183 27.1207 86.8145 27.1721C86.9154 27.2198 87.0459 27.2602 87.2063 27.2932C87.3713 27.3225 87.55 27.3537 87.7424 27.3867C87.9395 27.4197 88.1342 27.4619 88.3266 27.5133C88.5237 27.561 88.7024 27.627 88.8628 27.7114C89.0231 27.7921 89.1514 27.9003 89.2477 28.0361C89.3485 28.1682 89.3989 28.3351 89.3989 28.5369C89.3989 28.7607 89.3187 28.9679 89.1583 29.1587C89.0025 29.3458 88.7665 29.4962 88.4504 29.61C88.1388 29.7237 87.7447 29.7805 87.2682 29.7805Z" fill="#ACB0B9"/>
</svg>
