<svg width="147" height="56" viewBox="0 0 147 56" fill="none" xmlns="http://www.w3.org/2000/svg">
<rect x="0.568359" width="146" height="56" rx="4" fill="#FCFCFC"/>
<path d="M108.594 39.4298H113.33L120.015 27.4561V39.4298H124.677V19.4737H119.941L113.256 31.4474V19.4737H108.594V39.4298Z" fill="#211D1E"/>
<path d="M119.053 14C118.609 15.3684 117.524 15.682 116.636 15.682C115.748 15.682 114.662 15.3684 114.218 14L111.456 15.1974C112.393 17.5351 114.588 18.3903 116.636 18.3903C118.683 18.3903 120.878 17.5351 121.816 15.1974L119.053 14Z" fill="#211D1E"/>
<path fill-rule="evenodd" clip-rule="evenodd" d="M106.488 29.4518C106.488 34.7829 103.528 40 97.2129 40C90.8982 40 87.9382 34.7829 87.9382 29.4518C87.9382 24.1206 90.8982 18.9035 97.2129 18.9035C103.528 18.9035 106.488 24.1206 106.488 29.4518ZM92.9209 29.4518C92.9209 33.3004 94.9682 35.2105 97.2129 35.2105C99.4576 35.2105 101.505 33.3004 101.505 29.4518C101.505 25.6031 99.4576 23.693 97.2129 23.693C94.9682 23.693 92.9209 25.6031 92.9209 29.4518Z" fill="#211D1E"/>
<path d="M39.0217 30.4781V19.4737H52.1444V39.4298H47.3097V24.2632H43.8564V32.1316C43.8564 35.011 43.6097 39.6864 37.591 39.6864C36.8757 39.6864 36.333 39.6579 35.5684 39.4298V34.6403C35.9384 34.7544 36.2837 34.8399 36.629 34.8399C38.7504 34.8399 39.0217 33.3004 39.0217 30.4781Z" fill="#211D1E"/>
<path d="M59.9478 33.9276L53.4604 19.4737H59.1585L62.5378 27.8553L65.3005 19.4737H70.5545L62.7845 39.4298H57.6045L59.9478 33.9276Z" fill="#211D1E"/>
<path d="M71.678 39.4298H76.5127V30.8487L81.52 39.4298H87.5634L80.8294 29.1382L87.3907 19.4737H81.7174L76.5127 27.8553V19.4737H71.678V39.4298Z" fill="#211D1E"/>
<path d="M129.446 30.4781V19.4737H142.568V39.4298H137.734V24.2632H134.28V32.1316C134.28 35.011 134.034 39.6864 128.015 39.6864C127.3 39.6864 126.757 39.6579 125.992 39.4298V34.6403C126.362 34.7544 126.708 34.8399 127.053 34.8399C129.174 34.8399 129.446 33.3004 129.446 30.4781Z" fill="#211D1E"/>
<path fill-rule="evenodd" clip-rule="evenodd" d="M4.56836 16H30.5684V42H4.56836V16ZM10.5684 20.5V34.5C10.5684 35.3284 11.2399 36 12.0684 36H25.0528L21.9953 28.3564C21.6382 27.4635 21.6641 26.463 22.0671 25.5898L24.6924 19.9018C24.9234 19.3711 25.4526 19 26.0684 19C26.8968 19 27.5684 19.6716 27.5684 20.5C27.5684 20.736 27.5139 20.9592 27.4168 21.1578L24.962 26.1927C24.7116 26.7062 24.6908 27.2976 24.9082 27.8259C25.583 29.4662 27.125 33.2167 28.2635 36H28.2838L29.0684 37.9614V37.9724C29.2443 38.4052 29.3868 38.7575 29.4839 39H10.5684C8.91151 39 7.56836 37.6569 7.56836 36V20.5C7.56836 19.6716 8.23993 19 9.06836 19C9.89679 19 10.5684 19.6716 10.5684 20.5ZM15.5684 20.5C15.5684 19.6716 14.8968 19 14.0684 19C13.2399 19 12.5684 19.6716 12.5684 20.5V31C12.5684 33.2091 14.3592 35 16.5684 35C18.7775 35 20.5684 33.2091 20.5684 31V20.5C20.5684 19.6716 19.8968 19 19.0684 19C18.2399 19 17.5684 19.6716 17.5684 20.5V31C17.5684 31.5523 17.1206 32 16.5684 32C16.0161 32 15.5684 31.5523 15.5684 31V20.5Z" fill="#E22436"/>
</svg>
